<svg width="885" height="815" viewBox="0 0 885 815" fill="none" xmlns="http://www.w3.org/2000/svg">
<path fill-rule="evenodd" clip-rule="evenodd" d="M533.76 715.461C484.12 644.478 434.01 551.948 488.759 484.741C543.521 417.517 646.214 443.718 723.983 481.95C780.79 509.876 800.212 573.568 798.15 636.837C795.88 706.498 780.263 786.121 713.423 805.997C642.316 827.143 576.241 776.206 533.76 715.461Z" fill="#FEFBE7"/>
<path fill-rule="evenodd" clip-rule="evenodd" d="M151.142 428.743C77.4672 375.557 123.666 251.643 155.557 166.557C181.432 97.5226 238.416 45.7656 305.853 15.9734C360.946 -8.36597 419.328 20.9285 479.505 23.4413C555.954 26.6336 668.876 -37.4034 700.131 32.4373C733.817 107.709 597.082 155.002 573.782 234.108C556.626 292.358 635.521 369.246 589.323 408.656C544.215 447.136 484.204 358.337 424.975 361.052C327.332 365.528 230.394 485.956 151.142 428.743Z" fill="#DAE5D0"/>
</svg>
