<svg width="504" height="541" viewBox="0 0 504 541" fill="none" xmlns="http://www.w3.org/2000/svg">
<path fill-rule="evenodd" clip-rule="evenodd" d="M98.5454 483.003C65 438.5 83.1178 399.437 53.5 351.5C18.0448 294.115 -4.87589 272.409 0.999996 208.5C6.67961 146.724 31.7169 124.883 83.5 90.5C126.425 61.9998 136.195 1.98386 190.006 0.550956C243.889 -0.884051 283.472 35.4956 338.184 72.3304C392.897 109.165 464.485 98.9038 495.658 151.092C526.326 202.435 457.893 254.934 448.705 310.925C439.247 368.567 436.315 427.258 400.941 473.14C363.51 521.69 306.637 540.671 241.541 540.636C178.568 540.603 132.091 527.505 98.5454 483.003Z" fill="#A0BCC2"/>
</svg>
