<svg width="773" height="697" viewBox="0 0 773 697" fill="none" xmlns="http://www.w3.org/2000/svg">
<path fill-rule="evenodd" clip-rule="evenodd" d="M401.518 76.1547C466.447 96.0642 481.711 181.863 540.401 215.494C610.658 255.753 735.942 212.706 767.643 285.953C798.286 356.755 688.914 412.919 656.081 482.779C628.864 540.687 646.867 623.338 592.5 658.601C538.061 693.911 466.723 643.425 401.518 647.891C328.196 652.913 252.808 723.453 190.013 686.169C128.234 649.489 155.25 554.344 131.622 487.642C107.297 418.973 40.6588 362.642 49.8669 290.543C59.6107 214.25 113.663 145.861 180.475 105.128C245.108 65.7235 328.815 53.8613 401.518 76.1547Z" fill="#A0BCC2"/>
<path fill-rule="evenodd" clip-rule="evenodd" d="M134.096 11.8507C153.989 15.6368 174.011 17.6563 191.348 28.1321C209.03 38.816 227.156 52.2073 233.472 71.8969C239.618 91.0587 225.321 110.216 224.121 130.306C222.767 152.996 238.343 178.015 225.998 197.091C213.772 215.983 187.261 221.76 164.782 221.998C144.593 222.212 129.752 203.924 110.354 198.316C90.8213 192.67 68.8814 199.41 51.2968 189.192C30.2837 176.982 10.5518 159.412 3.39186 136.163C-4.13417 111.726 1.80971 84.9537 11.9678 61.4913C22.2493 37.7439 36.9632 13.0416 60.9124 3.30712C84.1396 -6.13383 109.47 7.16371 134.096 11.8507Z" fill="#FEFBE7"/>
</svg>
