<svg width="368" height="352" viewBox="0 0 368 352" fill="none" xmlns="http://www.w3.org/2000/svg">
<path d="M183.669 352C285.107 352 367.338 344.416 367.338 335.06C367.338 325.704 285.107 318.12 183.669 318.12C82.2314 318.12 0 325.704 0 335.06C0 344.416 82.2314 352 183.669 352Z" fill="#F5F5F5"/>
<path d="M259.829 60.1427H243.547L247.88 110.209L222.134 114.359V117.843H276.364V114.359L265.252 110.209L259.829 60.1427Z" fill="#263238"/>
<path d="M196.615 91.9186C196.531 92.6853 196.599 93.4625 196.816 94.1986C197.032 94.9348 197.392 95.613 197.872 96.1883C198.351 96.7636 198.939 97.2228 199.596 97.5355C200.253 97.8481 200.965 98.007 201.684 98.0017H300.324C301.865 97.9679 303.343 97.3315 304.478 96.2116C305.614 95.0918 306.331 93.5654 306.494 91.9186L312.348 24.1481C312.416 23.4875 312.373 22.8192 312.221 22.1749C311.937 20.9934 311.292 19.9487 310.389 19.2083C309.486 18.468 308.378 18.0749 307.242 18.0923H208.64C207.098 18.1261 205.621 18.7625 204.485 19.8824C203.349 21.0022 202.632 22.5285 202.469 24.1753L196.615 91.9186Z" fill="#263238"/>
<path d="M300.324 94.5996C301.076 94.5693 301.794 94.2508 302.347 93.7017C302.9 93.1526 303.252 92.4092 303.339 91.6057L309.193 23.8351C309.239 23.5607 309.239 23.2795 309.193 23.005C309.095 22.5495 308.851 22.1456 308.504 21.8644C308.156 21.5831 307.727 21.4425 307.292 21.4672H208.64C207.888 21.498 207.172 21.8169 206.621 22.3662C206.07 22.9155 205.721 23.6588 205.637 24.4611L199.783 92.2317C199.746 92.5378 199.77 92.8488 199.853 93.1443C199.936 93.4398 200.076 93.7131 200.264 93.9464C200.451 94.1628 200.679 94.3333 200.933 94.4461C201.186 94.5588 201.46 94.6112 201.734 94.5996H300.324Z" fill="#FEFBE7"/>
<path opacity="0.6" d="M300.324 94.5996C301.076 94.5693 301.794 94.2508 302.347 93.7017C302.9 93.1526 303.252 92.4092 303.339 91.6057L309.193 23.8351C309.239 23.5607 309.239 23.2795 309.193 23.005C309.095 22.5495 308.851 22.1456 308.504 21.8644C308.156 21.5831 307.727 21.4425 307.292 21.4672H208.64C207.888 21.498 207.172 21.8169 206.621 22.3662C206.07 22.9155 205.721 23.6588 205.637 24.4611L199.783 92.2317C199.746 92.5378 199.77 92.8488 199.853 93.1443C199.936 93.4398 200.076 93.7131 200.264 93.9464C200.451 94.1628 200.679 94.3333 200.933 94.4461C201.186 94.5588 201.46 94.6112 201.734 94.5996H300.324Z" fill="white"/>
<path d="M233.388 74.1617C233.388 74.1617 231.453 37.9184 239.852 29.6387C248.251 21.359 259.564 23.7674 265.564 28.1937C271.563 32.6199 278.15 44.1152 272.175 78.2755L233.388 74.1617Z" fill="#463531"/>
<path d="M271.701 94.5995C271.694 94.5408 271.694 94.4813 271.701 94.4226C272.453 91.837 273.297 89.0472 274.235 86.0533C274.932 83.7807 275.68 81.372 276.516 78.8272C271.543 77.1214 266.462 75.807 261.311 74.8943C255.893 73.8626 250.414 73.2441 244.915 73.0436C237.807 72.9755 229.647 73.8329 229.647 73.8329C229.647 73.8329 228.482 74.1323 227.76 82.2293C227.506 85.1416 227.253 89.1833 227.113 94.5995H271.701Z" fill="#407BFF"/>
<path d="M271.701 94.5995C271.694 94.5408 271.694 94.4813 271.701 94.4226C272.453 91.837 273.297 89.0472 274.235 86.0533C274.932 83.7807 275.679 81.372 276.516 78.8272C271.543 77.1214 266.462 75.807 261.311 74.8943C255.893 73.8626 250.414 73.2441 244.915 73.0436C237.807 72.9755 229.647 73.8329 229.647 73.8329C229.647 73.8329 228.482 74.1323 227.76 82.2293C227.531 84.8422 227.316 89.0336 227.202 94.5995H271.701Z" fill="#A0BCC2"/>
<g opacity="0.2">
<path opacity="0.2" d="M271.701 94.5995C271.694 94.5408 271.694 94.4813 271.701 94.4226C272.453 91.837 273.297 89.0472 274.235 86.0533C274.932 83.7807 275.68 81.372 276.516 78.8272C271.543 77.1214 266.462 75.807 261.311 74.8943C255.893 73.8626 250.414 73.2441 244.915 73.0436C237.807 72.9755 229.647 73.8329 229.647 73.8329C229.647 73.8329 228.482 74.1323 227.76 82.2293C227.506 85.1416 227.253 89.1833 227.113 94.5995H271.701Z" fill="black"/>
<path opacity="0.2" d="M271.701 94.5995C271.694 94.5408 271.694 94.4813 271.701 94.4226C272.453 91.837 273.297 89.0472 274.235 86.0533C274.932 83.7807 275.679 81.372 276.516 78.8272C271.543 77.1214 266.462 75.807 261.311 74.8943C255.893 73.8626 250.414 73.2441 244.915 73.0436C237.807 72.9755 229.647 73.8329 229.647 73.8329C229.647 73.8329 228.482 74.1323 227.76 82.2293C227.531 84.8422 227.316 89.0336 227.202 94.5995H271.701Z" fill="black"/>
</g>
<path d="M228.951 94.5996L228.317 83.3589L229.5 74C227.321 74.4627 219.802 84.9511 214.975 94.5996H228.951Z" fill="#A0BCC2"/>
<path opacity="0.2" d="M228.951 94.5995L228.317 83.3589C225.672 86.7561 223.5 90.5469 221.868 94.6131L228.951 94.5995Z" fill="black"/>
<path d="M282.826 94.5995C278.949 82.4199 276.554 78.8272 276.554 78.8272L271.346 94.5995H282.826Z" fill="#A0BCC2"/>
<path d="M247.994 81.6986C256.99 80.4603 259.702 76.3369 259.702 76.3369C253.988 70.5532 258.739 60.5237 258.739 60.5237L247.906 62.6875C248.154 64.3077 248.293 65.9449 248.324 67.5866C248.4 74.6494 245.435 74.7311 245.435 74.7311C243.534 78.5551 247.994 81.6986 247.994 81.6986Z" fill="#EEC1BB"/>
<path opacity="0.2" d="M247.906 62.6875C248.154 64.3077 248.293 65.9449 248.324 67.5866C255.647 67.5866 258.739 60.5237 258.739 60.5237L247.906 62.6875Z" fill="black"/>
<path d="M253.886 30.1495C244.472 29.6051 241.216 34.8444 239.949 45.2277C238.428 58.1967 240.645 67.6138 252.619 65.5181C268.736 62.6875 269.534 31.0884 253.886 30.1495Z" fill="#EEC1BB"/>
<path d="M246.056 45.01C245.232 46.4959 244.24 47.8671 243.104 49.0925C243.351 49.5373 243.707 49.8999 244.135 50.1402C244.562 50.3804 245.043 50.4888 245.524 50.4534L246.056 45.01Z" fill="#D4827D"/>
<path d="M252.315 37.5525C253.064 37.4976 253.815 37.6285 254.509 37.9353C255.204 38.2421 255.823 38.7165 256.319 39.3216" stroke="#263238" stroke-width="0.72468" stroke-linecap="round" stroke-linejoin="round"/>
<path d="M245.498 36.7224C244.864 36.5087 244.192 36.4516 243.534 36.5552C242.876 36.6589 242.248 36.9207 241.697 37.3212" stroke="#263238" stroke-width="0.72468" stroke-linecap="round" stroke-linejoin="round"/>
<path d="M246.702 54.3999C247.087 55.5673 247.392 56.7635 247.614 57.9789H248.222C250.985 57.8428 252.226 56.8086 252.758 55.6927C253.012 55.1438 253.134 54.5358 253.113 53.9236C253.123 53.5747 253.085 53.2262 252.999 52.8893C251.335 53.7972 249.505 54.2991 247.64 54.3591C247.107 54.3999 246.702 54.3999 246.702 54.3999Z" fill="#263238"/>
<path d="M247.64 54.3318L247.931 55.3797C250.528 55.2436 252.34 54.7809 253.113 53.8964C253.123 53.5475 253.085 53.1989 252.999 52.8621C251.335 53.77 249.505 54.2719 247.64 54.3318Z" fill="white"/>
<path d="M248.222 57.9517C250.985 57.8156 252.226 56.7814 252.759 55.6655C251.712 55.7351 250.686 56.0071 249.73 56.4684C249.097 56.7832 248.57 57.3015 248.222 57.9517Z" fill="#DE5753"/>
<path d="M266.594 50.4817C266.594 50.4817 259.287 39.3084 260.275 32.9124C260.275 32.9124 240.025 25.2017 238.074 45.4921C238.074 45.4921 238.404 28.3543 254.61 28.8986C270.815 29.4429 269.459 54.8773 260.704 61.9674C260.704 61.981 269.052 55.8299 266.594 50.4817Z" fill="#463631"/>
<path d="M261.666 49.8546C261.82 48.692 262.395 47.6415 263.265 46.9308C264.136 46.2201 265.232 45.9065 266.316 46.0579C269.218 46.575 270.282 53.0935 262.946 54.223C261.894 54.3727 261.362 53.2432 261.666 49.8546Z" fill="#EEC1BB"/>
<path d="M249.908 44.6154C249.908 44.6154 252.226 42.2037 254 44C253.5 45.5 251.285 44.631 249.908 44.6154Z" fill="#263238"/>
<path d="M245.46 44.4929C245.46 44.4929 243.344 42.0706 241.406 43.6628C242.729 44.0796 244.087 44.3576 245.46 44.4929Z" fill="#263238"/>
<path d="M268.052 77.3575C268.052 77.3575 257.472 86.5705 247.64 86.4208C237.807 86.2711 234.336 74.3772 234.336 74.3772C234.336 74.3772 249.642 69.587 268.052 77.3575Z" fill="#EEC1BB"/>
<path d="M263.402 52.658C263.369 52.6149 263.34 52.5695 263.313 52.5219C263.061 52.0282 262.967 51.459 263.047 50.9025C263.186 49.7185 264.834 46.8199 266.113 48.5074C266.405 48.9504 266.54 49.491 266.493 50.0315C266.467 50.7705 266.28 51.4927 265.949 52.1409C265.826 52.433 265.64 52.6892 265.407 52.8882C265.173 53.0871 264.898 53.2228 264.605 53.284C264.372 53.299 264.138 53.2493 263.928 53.1397C263.717 53.0301 263.536 52.8642 263.402 52.658Z" fill="white"/>
<path opacity="0.2" d="M263.402 52.658C263.369 52.6149 263.34 52.5695 263.313 52.5219C263.061 52.0282 262.967 51.459 263.047 50.9025C263.186 49.7185 264.834 46.8199 266.113 48.5074C266.405 48.9504 266.54 49.491 266.493 50.0315C266.467 50.7705 266.28 51.4927 265.949 52.1409C265.826 52.433 265.64 52.6892 265.407 52.8882C265.173 53.0871 264.898 53.2228 264.605 53.284C264.372 53.299 264.138 53.2493 263.928 53.1397C263.717 53.0301 263.536 52.8642 263.402 52.658Z" fill="black"/>
<path d="M263.579 50.7936C263.579 50.7936 264.707 48.2352 265.467 48.7115C266.227 49.1878 265.923 51.4332 265.188 51.8687C264.732 52.1572 264.386 52.6106 264.213 53.1479C264.213 53.1479 261.083 57.2304 260.259 56.8086V55.6655C261.772 54.4101 262.922 52.7212 263.579 50.7936Z" fill="white"/>
<path d="M243.61 336.138H251.377L265.328 127.6H255.027L243.61 336.138Z" fill="#263238"/>
<path opacity="0.4" d="M243.61 336.138H251.377L264.643 137.956L265.328 127.927H255.027L254.469 137.956L243.61 336.138Z" fill="white"/>
<path opacity="0.2" d="M254.469 137.453H264.643L265.328 127.927H255.027L254.469 137.453Z" fill="black"/>
<path d="M186.644 336.138H194.411L195.678 127.6H185.377L186.644 336.138Z" fill="#263238"/>
<path opacity="0.5" d="M185.377 127.927L185.579 161.581L186.644 336.138H194.411L195.475 161.581L195.678 127.927H185.377Z" fill="white"/>
<path opacity="0.2" d="M185.377 127.927L185.579 161.948H195.475L195.678 127.927H185.377Z" fill="black"/>
<path d="M104.234 336.138H112.001L125.952 127.6H115.651L104.234 336.138Z" fill="#263238"/>
<path opacity="0.5" d="M104.234 336.138H112.001L125.268 137.956L125.952 127.927H115.651L115.093 137.956L104.234 336.138Z" fill="white"/>
<path opacity="0.2" d="M115.093 137.453H125.268L125.952 127.927H115.651L115.093 137.453Z" fill="black"/>
<path d="M332.405 336.138H340.173L328.769 127.6H318.468L332.405 336.138Z" fill="#263238"/>
<path opacity="0.5" d="M318.468 127.927L319.152 137.956L332.418 336.138H340.173L329.327 137.956L328.769 127.927H318.468Z" fill="white"/>
<path opacity="0.2" d="M328.769 127.927H318.468L319.152 137.453H329.327L328.769 127.927Z" fill="black"/>
<path d="M334.141 132.812L110.215 132.812C109.855 132.812 109.5 132.736 109.168 132.589C108.836 132.441 108.534 132.224 108.28 131.951C108.026 131.678 107.824 131.354 107.686 130.998C107.549 130.641 107.478 130.259 107.478 129.873V122.375L336.916 122.375V129.873C336.916 130.262 336.844 130.648 336.704 131.007C336.564 131.367 336.359 131.692 336.101 131.966C335.843 132.239 335.537 132.455 335.2 132.6C334.864 132.746 334.504 132.818 334.141 132.812Z" fill="#407BFF"/>
<path opacity="0.6" d="M334.141 132.812L110.215 132.812C109.855 132.812 109.5 132.736 109.168 132.589C108.836 132.441 108.534 132.224 108.28 131.951C108.026 131.678 107.824 131.354 107.686 130.998C107.549 130.641 107.478 130.259 107.478 129.873V122.375L336.916 122.375V129.873C336.916 130.262 336.844 130.648 336.704 131.007C336.564 131.367 336.359 131.692 336.101 131.966C335.843 132.239 335.537 132.455 335.2 132.6C334.864 132.746 334.504 132.818 334.141 132.812Z" fill="#F9EBC8"/>
<path opacity="0.2" d="M107.478 127.587L336.916 127.587V122.361L107.478 122.361V127.587Z" fill="black"/>
<path d="M102.663 123.735H341.744C342.103 123.735 342.459 123.659 342.791 123.512C343.123 123.364 343.425 123.147 343.679 122.874C343.933 122.602 344.135 122.277 344.272 121.921C344.41 121.564 344.481 121.182 344.481 120.796C344.481 120.015 344.193 119.266 343.68 118.713C343.167 118.159 342.471 117.847 341.744 117.843H102.663C101.936 117.847 101.24 118.159 100.727 118.713C100.214 119.266 99.9264 120.015 99.9265 120.796C99.9265 121.182 99.9973 121.564 100.135 121.921C100.272 122.277 100.474 122.602 100.728 122.874C100.982 123.147 101.284 123.364 101.616 123.512C101.948 123.659 102.304 123.735 102.663 123.735Z" fill="#F9EBC8"/>
<path opacity="0.6" d="M102.663 123.735H341.744C342.103 123.735 342.459 123.659 342.791 123.512C343.123 123.364 343.425 123.147 343.679 122.874C343.933 122.602 344.135 122.277 344.272 121.921C344.41 121.564 344.481 121.182 344.481 120.796C344.481 120.015 344.193 119.266 343.68 118.713C343.167 118.159 342.471 117.847 341.744 117.843H102.663C101.936 117.847 101.24 118.159 100.727 118.713C100.214 119.266 99.9264 120.015 99.9265 120.796C99.9265 121.182 99.9973 121.564 100.135 121.921C100.272 122.277 100.474 122.602 100.728 122.874C100.982 123.147 101.284 123.364 101.616 123.512C101.948 123.659 102.304 123.735 102.663 123.735Z" fill="#A0BCC2"/>
<path d="M243.699 117.843L242.445 112.781H191.066L167.41 115.312L166.51 117.843H243.699Z" fill="#263238"/>
<path opacity="0.4" d="M191.066 112.781V117.843H243.699L242.445 112.781H191.066Z" fill="black"/>
<path d="M224.706 107.119L233.892 102.629C233.892 102.629 241.583 101.091 244.751 101.853C247.918 102.615 254.95 112.862 254.786 114.101C254.621 115.339 242.609 118.414 242.343 118.414C242.077 118.414 236.882 115.244 236.882 115.244L228.38 118.414L224.706 107.119Z" fill="#E4897B"/>
<path d="M145.148 322.23L155.233 320.746L156.64 294.972L146.554 296.469L145.148 322.23Z" fill="#EBB376"/>
<path opacity="0.2" d="M146.554 296.469L156.64 294.985L155.829 309.723L145.768 310.662L146.554 296.469Z" fill="black"/>
<path d="M145.553 170.739L143.019 154.178L86.4323 150.544C86.4323 150.544 80.4138 185.015 85.0385 194.201C93.2997 210.599 137.773 202.366 150.786 203.944C143.006 238.115 143.766 304.892 143.766 304.892L162.354 306.417C162.354 306.417 176.659 234.455 179.548 200.27C181.563 177.19 163.773 177.775 145.553 170.739Z" fill="#DAE5D0"/>
<path d="M141.65 305.831L163.989 307.41L165.902 297.135L141.359 295.911L141.65 305.831Z" fill="#DAE5D0"/>
<path opacity="0.2" d="M141.65 305.831L163.989 307.41L165.902 297.135L141.359 295.911L141.65 305.831Z" fill="white"/>
<path d="M155.994 319.44L144.59 318.678C144.497 318.667 144.402 318.675 144.312 318.703C144.222 318.732 144.138 318.779 144.065 318.842C143.992 318.905 143.931 318.983 143.887 319.072C143.842 319.161 143.814 319.258 143.805 319.358L142.69 329.02C142.661 329.528 142.819 330.027 143.13 330.411C143.44 330.795 143.878 331.033 144.349 331.075C148.341 331.266 150.241 331.143 155.271 331.443C159.72 331.938 164.195 332.092 168.664 331.905C172.921 331.456 172.402 326.965 170.565 326.748C166.206 326.217 160.428 322.774 157.717 320.175C157.236 319.729 156.629 319.47 155.994 319.44Z" fill="#263238"/>
<path d="M168.423 322.134L178.585 322.937L184.958 298.047L174.809 297.258L168.423 322.134Z" fill="#EBB376"/>
<path d="M179.954 323.427C179.954 323.427 179.954 323.427 179.954 323.509H180.042C180.846 323.988 181.696 324.371 182.576 324.652C183.213 324.91 183.916 324.91 184.553 324.652C184.762 324.524 184.933 324.334 185.045 324.105C185.157 323.876 185.206 323.617 185.187 323.359C185.199 323.197 185.175 323.034 185.115 322.885C185.055 322.735 184.962 322.604 184.844 322.502C183.934 322.11 182.922 322.081 181.994 322.42C182.72 321.89 183.252 321.106 183.501 320.202C183.516 319.987 183.463 319.774 183.35 319.596C183.237 319.418 183.072 319.286 182.88 319.222C182.723 319.138 182.549 319.095 182.374 319.095C182.198 319.095 182.024 319.138 181.867 319.222C180.6 319.943 180.144 323.005 180.106 323.169C180.051 323.175 179.996 323.175 179.941 323.169C179.912 323.206 179.898 323.253 179.9 323.301C179.902 323.349 179.922 323.394 179.954 323.427ZM180.701 322.815L180.473 322.897C180.714 321.889 181.233 320.243 181.968 319.821C182.049 319.768 182.139 319.733 182.233 319.719C182.326 319.705 182.422 319.712 182.513 319.739H182.627C182.944 319.875 182.982 320.08 182.956 320.229C182.931 320.95 181.753 322.23 180.752 322.815H180.701ZM180.701 323.386C182.044 322.937 183.907 322.556 184.502 323.005C184.563 323.052 184.611 323.117 184.64 323.191C184.669 323.266 184.679 323.347 184.667 323.427C184.68 323.59 184.651 323.753 184.584 323.899C184.517 324.045 184.414 324.169 184.287 324.257C183.755 324.598 182.488 324.271 180.79 323.386H180.701Z" fill="#DAE5D0"/>
<path opacity="0.2" d="M174.809 297.258L184.946 298.061L181.309 312.282L171.274 310.962L174.809 297.258Z" fill="black"/>
<path d="M188.392 310.526L170.501 304.879C170.501 304.879 181.183 240.129 192.041 217.675C191.23 217.389 190.153 217.022 188.823 216.6C186.428 215.824 183.248 214.858 179.51 213.742C153.51 205.999 100.813 191.479 100.813 191.479L124.887 167.351C124.887 167.351 220.778 183.055 222.767 210.19C223.692 223.241 188.392 310.526 188.392 310.526Z" fill="#DAE5D0"/>
<path d="M168.195 305.314L189.735 311.846L193.6 302.225L169.83 295.543L168.195 305.314Z" fill="#DAE5D0"/>
<path opacity="0.2" d="M168.195 305.314L189.735 311.846L193.6 302.225L169.83 295.543L168.195 305.314Z" fill="white"/>
<path d="M179.586 321.835L168.55 318.528C168.367 318.468 168.169 318.487 167.999 318.581C167.828 318.675 167.699 318.837 167.638 319.032L164.749 328.245C164.686 328.489 164.669 328.745 164.698 328.997C164.728 329.249 164.804 329.493 164.922 329.713C165.04 329.933 165.197 330.126 165.385 330.281C165.573 330.435 165.787 330.548 166.016 330.613C169.817 331.701 171.768 331.973 176.621 333.416C180.878 334.895 185.226 336.05 189.634 336.872C193.878 337.39 194.246 332.872 192.485 332.246C188.329 330.749 183.362 326.108 181.208 322.937C180.799 322.383 180.227 321.994 179.586 321.835Z" fill="#263238"/>
<path d="M156.247 320.774H156.45C156.45 320.774 156.678 320.855 156.716 320.882C156.754 320.91 156.716 320.882 156.716 320.882H156.805C157.666 321.17 158.554 321.357 159.453 321.44C160.124 321.575 160.817 321.429 161.391 321.032C161.563 320.863 161.688 320.647 161.753 320.407C161.818 320.167 161.82 319.912 161.759 319.671C161.739 319.509 161.683 319.355 161.594 319.222C161.506 319.089 161.388 318.982 161.252 318.909C160.261 318.769 159.255 319.01 158.414 319.59C159.019 318.919 159.376 318.033 159.415 317.099C159.376 316.878 159.271 316.677 159.115 316.527C158.959 316.377 158.762 316.286 158.553 316.269C158.357 316.233 158.156 316.24 157.962 316.289C157.768 316.338 157.586 316.428 157.425 316.555C156.361 317.535 156.158 320.637 156.158 320.814L156.247 320.774ZM157.337 320.148L157.121 320.27C157.07 319.084 157.371 317.911 157.983 316.922C158.052 316.853 158.134 316.799 158.223 316.764C158.313 316.729 158.407 316.713 158.502 316.718H158.616C158.958 316.718 159.035 316.963 159.047 317.113C158.822 318.307 158.217 319.38 157.337 320.148ZM157.476 320.678C158.743 319.957 160.454 319.154 161.1 319.481C161.167 319.513 161.225 319.564 161.268 319.628C161.31 319.693 161.335 319.769 161.341 319.848C161.38 320.005 161.381 320.17 161.343 320.328C161.306 320.485 161.23 320.629 161.125 320.746C160.618 321.223 159.275 321.182 157.476 320.678Z" fill="#DAE5D0"/>
<path d="M186.91 43.4994C186.669 44.071 186.403 44.6425 186.124 45.1733C184.499 48.2887 182.034 50.8031 179.054 52.3858C178.302 52.7886 177.523 53.1298 176.723 53.4064C173.646 54.5266 170.311 54.5301 167.232 53.4162C164.153 52.3024 161.5 50.1331 159.681 47.2418C154.828 39.8387 156.146 32.5581 157.438 20.0247C157.694 17.097 158.644 14.2887 160.197 11.8668C161.75 9.445 163.854 7.49034 166.309 6.18895C168.764 4.88756 171.489 4.28275 174.223 4.43209C176.957 4.58143 179.611 5.47995 181.93 7.04212C192.51 14.0777 191.167 32.8031 186.91 43.4994Z" fill="#F4B0A6"/>
<path opacity="0.2" d="M179.054 52.3858C178.302 52.7886 177.523 53.1298 176.723 53.4064C174.615 54.1548 172.38 54.3905 170.177 54.0963C167.975 53.8021 165.861 52.9854 163.989 51.7053C164.74 50.3102 165.655 49.0249 166.713 47.8813C171.144 48.0792 175.428 49.643 179.054 52.3858Z" fill="black"/>
<path d="M148.518 55.7063C150.52 63.7897 163.431 70.2674 163.431 70.2674C163.431 70.2674 172.136 73.2341 172.072 69.6686C168.183 65.8719 167.384 62.2248 168.195 58.7818C168.767 56.7182 169.71 54.7949 170.97 53.1207C171.647 52.1728 172.37 51.2643 173.137 50.3989L165.534 28.5572C162.785 37.6341 156.614 53.42 148.518 55.7063Z" fill="#F4B0A6"/>
<path d="M185.263 16.119C185.263 16.119 188.532 27.9448 177.242 36.4366C177.242 36.4366 172.503 47.3234 169.855 48.6843C167.207 50.0451 161.227 49.2286 159.212 48.6843C157.197 48.1399 146.769 38.8589 149.785 17.0308C152.801 -4.79733 169.855 2.06138 169.855 2.06138C169.855 2.06138 175.684 -3.38204 186.517 3.42224C195.564 9.05618 193.79 19.5892 185.263 16.119Z" fill="#263238"/>
<path d="M175.709 30.7754C175.749 31.9795 176.037 33.1592 176.552 34.2297C177.067 35.3002 177.796 36.2351 178.687 36.9673C180.866 38.4643 182.969 35.1982 183.21 31.415C183.413 28.0537 182.551 23.1138 179.941 23.2499C177.331 23.386 175.418 27.2917 175.709 30.7754Z" fill="#E4897B"/>
<path d="M186.656 71.4922C186.656 71.4922 170.641 52.2225 149.24 54.2094C127.84 56.1962 106.464 73.9554 95.7325 101.853C85.0005 129.75 81.8582 171.923 81.8582 171.923C81.8582 171.923 116.487 182.579 151.698 172.862C159.053 137.537 170.812 103.44 186.656 71.4922Z" fill="#263238"/>
<path d="M186.656 71.4922C192.067 77.5208 207.512 105.16 211.909 106.194C216.305 107.228 222.704 102.982 227.709 104.602C232.714 106.221 237.845 111.12 236.705 114.264C235.565 117.407 223.781 125.777 209.172 126.226C196.666 126.62 170.311 93.1706 170.311 93.1706C170.311 80.2425 186.656 71.4922 186.656 71.4922Z" fill="#263238"/>
<path d="M187.328 48.5618V47.2009C187.628 47.1906 187.923 47.1157 188.196 46.9805C188.469 46.8454 188.713 46.6528 188.915 46.4142C189.117 46.1756 189.273 45.8958 189.372 45.5915C189.472 45.2871 189.513 44.9644 189.494 44.6425C189.494 42.6149 184.806 38.2329 181.892 35.9467L182.627 34.8444C183.463 35.484 190.825 41.2676 190.812 44.6425C190.833 45.1482 190.758 45.6531 190.592 46.1269C190.426 46.6007 190.173 47.0336 189.848 47.3997C189.522 47.7657 189.131 48.0574 188.698 48.2571C188.265 48.4568 187.799 48.5604 187.328 48.5618Z" fill="#263238"/>
<path d="M186.593 30.2991C186.593 35.9331 183.527 40.5055 179.764 40.5055C176 40.5055 172.934 35.9331 172.934 30.2991C172.934 24.6652 175.988 20.1063 179.764 20.1063C183.539 20.1063 186.593 24.6652 186.593 30.2991Z" fill="white"/>
<path opacity="0.2" d="M186.593 30.2991C186.593 35.9331 183.527 40.5055 179.764 40.5055C176 40.5055 172.934 35.9331 172.934 30.2991C172.934 24.6652 175.988 20.1063 179.764 20.1063C183.539 20.1063 186.593 24.6652 186.593 30.2991Z" fill="black"/>
<path d="M182.158 37.0218C184.642 37.0218 186.656 34.0119 186.656 30.2991C186.656 26.5863 184.642 23.5765 182.158 23.5765C179.674 23.5765 177.66 26.5863 177.66 30.2991C177.66 34.0119 179.674 37.0218 182.158 37.0218Z" fill="white"/>
<path d="M184.3 25.4272C184.3 25.4272 184.654 -3.99443 164.027 1.08156C164.027 1.08156 179.447 3.08201 180.498 26.2301L184.3 25.4272Z" fill="white"/>
<path d="M187.661 46.7962L186.613 46.991C186.261 47.0563 186.025 47.4154 186.086 47.7931L186.185 48.41C186.246 48.7877 186.58 49.0409 186.932 48.9756L187.981 48.7808C188.333 48.7155 188.568 48.3564 188.508 47.9787L188.408 47.3619C188.347 46.9842 188.013 46.7309 187.661 46.7962Z" fill="#263238"/>
<path d="M72.7608 198.719H157.552C159.232 198.719 160.844 199.435 162.032 200.711C163.22 201.987 163.887 203.718 163.887 205.523V214.627H66.4255V205.523C66.4255 203.718 67.093 201.987 68.2811 200.711C69.4692 199.435 71.0806 198.719 72.7608 198.719Z" fill="#F9EBC8"/>
<path opacity="0.3" d="M72.7608 198.719H157.552C159.232 198.719 160.844 199.435 162.032 200.711C163.22 201.987 163.887 203.718 163.887 205.523V214.627H66.4255V205.523C66.4255 203.718 67.093 201.987 68.2811 200.711C69.4692 199.435 71.0806 198.719 72.7608 198.719Z" fill="black"/>
<path d="M56.4158 137.793H91.2598C101.462 137.793 109.733 128.91 109.733 117.952V103.309C109.733 92.351 101.462 83.4677 91.2598 83.4677H56.4158C46.2131 83.4677 37.9422 92.351 37.9422 103.309V117.952C37.9422 128.91 46.2131 137.793 56.4158 137.793Z" fill="#A0BCC2"/>
<g opacity="0.3">
<path opacity="0.3" d="M56.4158 137.793H91.2598C101.462 137.793 109.733 128.91 109.733 117.952V103.309C109.733 92.351 101.462 83.4677 91.2598 83.4677H56.4158C46.2131 83.4677 37.9422 92.351 37.9422 103.309V117.952C37.9422 128.91 46.2131 137.793 56.4158 137.793Z" fill="#A0BCC2"/>
</g>
<path d="M70.138 305.192L106.655 301.34V246.24H121.124V301.327L157.767 305.192C159.525 305.374 161.157 306.253 162.344 307.657C163.532 309.06 164.19 310.889 164.191 312.785V318.678H63.7267V312.785C63.7277 310.891 64.3844 309.064 65.5693 307.661C66.7542 306.258 68.3826 305.377 70.138 305.192Z" fill="#263238"/>
<path opacity="0.2" d="M70.138 305.192L106.655 301.34V246.24H121.124V301.327L157.767 305.192C159.525 305.374 161.157 306.253 162.344 307.657C163.532 309.06 164.19 310.889 164.191 312.785V318.678H63.7267V312.785C63.7277 310.891 64.3844 309.064 65.5693 307.661C66.7542 306.258 68.3826 305.377 70.138 305.192Z" fill="white"/>
<path d="M161.87 336.005C167.029 335.105 170.533 329.884 169.696 324.342C168.858 318.8 163.996 315.037 158.837 315.936C153.677 316.836 150.173 322.058 151.01 327.599C151.848 333.141 156.71 336.904 161.87 336.005Z" fill="#263238"/>
<path d="M74.2917 333.176C77.988 329.206 77.988 322.769 74.2917 318.799C70.5954 314.83 64.6026 314.829 60.9063 318.799C57.2101 322.769 57.2101 329.206 60.9063 333.176C64.6026 337.146 70.5954 337.146 74.2917 333.176Z" fill="#263238"/>
<path d="M118.375 258.079H109.391C108.004 258.079 106.672 257.487 105.691 256.433C104.71 255.379 104.158 253.949 104.158 252.459V208.993H123.608V252.445C123.609 253.184 123.475 253.917 123.213 254.6C122.951 255.284 122.566 255.905 122.079 256.428C121.593 256.951 121.016 257.367 120.38 257.65C119.745 257.933 119.063 258.079 118.375 258.079Z" fill="#263238"/>
<path opacity="0.3" d="M118.375 258.079H109.391C108.004 258.079 106.672 257.487 105.691 256.433C104.71 255.379 104.158 253.949 104.158 252.459V208.993H123.608V252.445C123.609 253.184 123.475 253.917 123.213 254.6C122.951 255.284 122.566 255.905 122.079 256.428C121.593 256.951 121.016 257.367 120.38 257.65C119.745 257.933 119.063 258.079 118.375 258.079Z" fill="white"/>
<path d="M79.2988 122.864C79.2988 122.864 76.5366 196.351 95.5804 208.993H73.8378C73.8378 208.993 56.986 183.967 61.7501 122.864H79.2988Z" fill="#263238"/>
<path opacity="0.3" d="M79.2988 122.864C79.2988 122.864 76.5366 196.351 95.5804 208.993H73.8378C73.8378 208.993 56.986 183.967 61.7501 122.864H79.2988Z" fill="white"/>
<path d="M165.408 206.68H64.9177C63.5112 206.68 62.3709 207.904 62.3709 209.415V211.892C62.3709 213.402 63.5112 214.627 64.9177 214.627H165.408C166.814 214.627 167.955 213.402 167.955 211.892V209.415C167.955 207.904 166.814 206.68 165.408 206.68Z" fill="#263238"/>
<path opacity="0.6" d="M165.408 206.68H64.9177C63.5112 206.68 62.3709 207.904 62.3709 209.415V211.892C62.3709 213.402 63.5112 214.627 64.9177 214.627H165.408C166.814 214.627 167.955 213.402 167.955 211.892V209.415C167.955 207.904 166.814 206.68 165.408 206.68Z" fill="white"/>
<path d="M79.5775 99.9749H59.9002C54.134 99.9749 49.4597 104.995 49.4597 111.188V119.449C49.4597 125.642 54.134 130.662 59.9002 130.662H79.5775C85.3437 130.662 90.0181 125.642 90.0181 119.449V111.188C90.0181 104.995 85.3437 99.9749 79.5775 99.9749Z" fill="#263238"/>
<path opacity="0.2" d="M79.5775 99.9749H59.9002C54.134 99.9749 49.4597 104.995 49.4597 111.188V119.449C49.4597 125.642 54.134 130.662 59.9002 130.662H79.5775C85.3437 130.662 90.0181 125.642 90.0181 119.449V111.188C90.0181 104.995 85.3437 99.9749 79.5775 99.9749Z" fill="white"/>
</svg>
