<svg width="645" height="507" viewBox="0 0 645 507" fill="none" xmlns="http://www.w3.org/2000/svg">
<path d="M645 445.544H11.4731V445.884H645V445.544Z" fill="#EBEBEB"/>
<path d="M581.521 467.44H539.556V467.78H581.521V467.44Z" fill="#EBEBEB"/>
<path d="M431.147 471.141H420.136V471.482H431.147V471.141Z" fill="#EBEBEB"/>
<path d="M538.289 454.811H513.974V455.151H538.289V454.811Z" fill="#EBEBEB"/>
<path d="M132.667 457.098H77.9427V457.438H132.667V457.098Z" fill="#EBEBEB"/>
<path d="M151.977 457.098H143.956V457.438H151.977V457.098Z" fill="#EBEBEB"/>
<path d="M296.75 462.84H178.053V463.18H296.75V462.84Z" fill="#EBEBEB"/>
<path d="M311.765 384.85H67.1094C65.1928 384.846 63.3558 384.026 62.0018 382.569C60.6477 381.112 59.8872 379.138 59.8872 377.079V7.70244C59.9039 5.65575 60.6717 3.69877 62.024 2.25659C63.3763 0.814415 65.2037 0.00350609 67.1094 0H311.765C313.684 0 315.524 0.818674 316.881 2.27592C318.238 3.73317 319 5.70962 319 7.77048V377.079C319 379.14 318.238 381.117 316.881 382.574C315.524 384.031 313.684 384.85 311.765 384.85ZM67.1094 0.272172C65.2768 0.275777 63.5204 1.06019 62.2257 2.45325C60.9311 3.8463 60.2039 5.73416 60.2039 7.70244V377.079C60.2039 379.048 60.9311 380.935 62.2257 382.328C63.5204 383.721 65.2768 384.506 67.1094 384.509H311.765C313.599 384.506 315.356 383.722 316.653 382.329C317.95 380.937 318.68 379.049 318.683 377.079V7.70244C318.68 5.73291 317.95 3.84508 316.653 2.45242C315.356 1.05975 313.599 0.275769 311.765 0.272172H67.1094Z" fill="#EBEBEB"/>
<path d="M585.841 384.85H341.173C339.255 384.846 337.417 384.026 336.061 382.57C334.705 381.113 333.942 379.139 333.938 377.079V7.70244C333.958 5.65451 334.729 3.69755 336.083 2.25574C337.438 0.813939 339.266 0.00346785 341.173 0H585.841C587.745 0.00708256 589.569 0.819574 590.919 2.26137C592.268 3.70317 593.034 5.6581 593.051 7.70244V377.079C593.051 379.135 592.292 381.108 590.941 382.564C589.589 384.021 587.756 384.842 585.841 384.85ZM341.173 0.272172C339.339 0.275769 337.582 1.05975 336.285 2.45242C334.988 3.84508 334.258 5.73291 334.255 7.70244V377.079C334.258 379.049 334.988 380.937 336.285 382.329C337.582 383.722 339.339 384.506 341.173 384.509H585.841C587.675 384.506 589.433 383.722 590.729 382.329C592.026 380.937 592.756 379.049 592.759 377.079V7.70244C592.756 5.73291 592.026 3.84508 590.729 2.45242C589.433 1.05975 587.675 0.275769 585.841 0.272172H341.173Z" fill="#EBEBEB"/>
<path d="M265.378 80.4673H100.103V89.5851H265.378V80.4673Z" fill="#E0E0E0"/>
<path d="M114.991 46.8542H107.706V80.4674H114.991V46.8542Z" fill="#EBEBEB"/>
<path d="M150.203 46.8542H142.917V80.4674H150.203V46.8542Z" fill="#EBEBEB"/>
<path d="M190.163 46.004L182.983 47.3332L188.299 80.4578L195.479 79.1286L190.163 46.004Z" fill="#EBEBEB"/>
<path d="M124.013 51.277H116.727V80.4673H124.013V51.277Z" fill="#EBEBEB"/>
<path d="M140.751 51.277H133.465V80.4673H140.751V51.277Z" fill="#EBEBEB"/>
<path d="M182.994 51.277H175.709V80.4673H182.994V51.277Z" fill="#EBEBEB"/>
<path d="M159.775 50.271L152.663 51.9686L158.559 80.4637L165.671 78.7661L159.775 50.271Z" fill="#EBEBEB"/>
<path d="M130.31 45.1804H126.674V80.4674H130.31V45.1804Z" fill="#EBEBEB"/>
<path d="M173.618 45.1804H169.982V80.4674H173.618V45.1804Z" fill="#EBEBEB"/>
<path d="M249.514 53.8626H214.037V80.168H249.514V53.8626Z" fill="#EBEBEB"/>
<path d="M100.103 157.682L265.378 157.682V148.564L100.103 148.564V157.682Z" fill="#E0E0E0"/>
<path d="M250.477 148.551H257.763V114.938H250.477V148.551Z" fill="#EBEBEB"/>
<path d="M215.279 148.551H222.564V114.938H215.279V148.551Z" fill="#EBEBEB"/>
<path d="M169.992 147.222L177.172 148.551L182.488 115.427L175.308 114.098L169.992 147.222Z" fill="#EBEBEB"/>
<path d="M241.456 148.551H248.742V119.361H241.456V148.551Z" fill="#EBEBEB"/>
<path d="M224.718 148.551H232.004V119.361H224.718V148.551Z" fill="#EBEBEB"/>
<path d="M182.475 148.551H189.76V119.361H182.475V148.551Z" fill="#EBEBEB"/>
<path d="M199.826 146.84L206.938 148.538L212.834 120.043L205.722 118.345L199.826 146.84Z" fill="#EBEBEB"/>
<path d="M235.171 148.564H238.808V113.278H235.171V148.564Z" fill="#EBEBEB"/>
<path d="M191.864 148.564H195.5V113.278H191.864V148.564Z" fill="#EBEBEB"/>
<path d="M115.967 148.251H151.445V121.946H115.967V148.251Z" fill="#EBEBEB"/>
<path d="M552.201 48.773H386.318V245.92H552.201V48.773Z" fill="#E9E9E9"/>
<path d="M545.334 56.5843H393.617V238.517H545.334V56.5843Z" fill="#F4F4F4"/>
<path d="M436.494 56.5843L393.617 229.059V135.691L413.243 56.5843H436.494Z" fill="white"/>
<path d="M455.664 56.5843L410.443 238.517H401.916L447.124 56.5843H455.664Z" fill="white"/>
<path d="M545.334 106.201V199.583L535.729 238.517H512.466L545.334 106.201Z" fill="white"/>
<path d="M472.199 48.773H466.307V245.92H472.199V48.773Z" fill="#E9E9E9"/>
<path d="M549.008 88.7821H389.194V95.1101H549.008V88.7821Z" fill="#E9E9E9"/>
<path d="M573.576 350.053C571.296 345.97 567.532 349.536 567.532 349.536C568.077 341.806 561.45 336.512 561.45 336.512C561.45 336.512 569.142 336.512 570.219 328.633C571.296 320.753 567.532 324.414 564.01 324.36C560.488 324.305 556.8 335.369 561.476 341.588C566.151 347.807 564.872 358.408 554.152 368.628C551.579 371.202 549.653 374.432 548.552 378.018C549.35 368.642 549.819 355.428 547.285 346.596C542.914 331.627 551.238 327.544 553.62 320.087C556.002 312.629 547.285 306.26 547.285 306.26C547.285 306.26 555.521 302.178 551.504 297.619C547.488 293.06 539.163 293.632 539.163 299.66C539.163 305.689 544.801 307.989 544.801 307.989C544.801 307.989 551.238 315.188 551.238 318.944C551.238 322.699 544.801 330.756 544.801 330.756C544.801 330.756 547.741 323.843 541.849 323.557C535.957 323.271 534.069 331.613 536.477 335.369C538.884 339.125 542.913 335.941 542.913 335.941C543.165 340.315 543.784 344.655 544.763 348.91C545.372 351.06 545.08 359.511 544.573 368.302C543.457 365.129 541.67 362.278 539.353 359.973C528.621 349.767 527.367 339.152 532.017 332.933C536.667 326.714 532.98 315.664 529.483 315.718C525.986 315.773 522.21 312.098 523.274 319.991C524.338 327.884 532.042 327.871 532.042 327.871C532.042 327.871 525.428 333.164 525.96 340.894C525.96 340.894 522.159 337.383 519.929 341.411C515.849 348.61 525.289 353.087 526.873 349.576C526.873 349.576 546.879 364.791 542.077 386.687L543.205 388.47C543.053 390.239 542.964 391.3 542.964 391.3L544.535 390.579L546.309 393.396C546.246 396.579 546.399 399.763 546.765 402.922L551.555 395.342C546.727 373.432 566.759 358.218 566.759 358.218C568.204 361.729 577.643 357.265 573.576 350.053Z" fill="#E0E0E0"/>
<path opacity="0.2" d="M573.576 350.053C571.296 345.97 567.532 349.536 567.532 349.536C568.077 341.806 561.45 336.512 561.45 336.512C561.45 336.512 569.142 336.512 570.219 328.633C571.296 320.753 567.532 324.414 564.01 324.36C560.488 324.305 556.8 335.369 561.476 341.588C566.151 347.807 564.872 358.408 554.152 368.628C551.579 371.202 549.653 374.432 548.552 378.018C549.35 368.642 549.819 355.428 547.285 346.596C542.914 331.627 551.238 327.544 553.62 320.087C556.002 312.629 547.285 306.26 547.285 306.26C547.285 306.26 555.521 302.178 551.504 297.619C547.488 293.06 539.163 293.632 539.163 299.66C539.163 305.689 544.801 307.989 544.801 307.989C544.801 307.989 551.238 315.188 551.238 318.944C551.238 322.699 544.801 330.756 544.801 330.756C544.801 330.756 547.741 323.843 541.849 323.557C535.957 323.271 534.069 331.613 536.477 335.369C538.884 339.125 542.913 335.941 542.913 335.941C543.165 340.315 543.784 344.655 544.763 348.91C545.372 351.06 545.08 359.511 544.573 368.302C543.457 365.129 541.67 362.278 539.353 359.973C528.621 349.767 527.367 339.152 532.017 332.933C536.667 326.714 532.98 315.664 529.483 315.718C525.986 315.773 522.21 312.098 523.274 319.991C524.338 327.884 532.042 327.871 532.042 327.871C532.042 327.871 525.428 333.164 525.96 340.894C525.96 340.894 522.159 337.383 519.929 341.411C515.849 348.61 525.289 353.087 526.873 349.576C526.873 349.576 546.879 364.791 542.077 386.687L543.205 388.47C543.053 390.239 542.964 391.3 542.964 391.3L544.535 390.579L546.309 393.396C546.246 396.579 546.399 399.763 546.765 402.922L551.555 395.342C546.727 373.432 566.759 358.218 566.759 358.218C568.204 361.729 577.643 357.265 573.576 350.053Z" fill="#E0E0E0"/>
<path d="M569.661 443.475H523.819L518.877 389.572H574.603L569.661 443.475Z" fill="#E6E6E6"/>
<path d="M577.048 383.625H516.432V395.519H577.048V383.625Z" fill="#F0F0F0"/>
<path d="M328.949 507C464.628 507 574.618 500.103 574.618 491.595C574.618 483.087 464.628 476.19 328.949 476.19C193.27 476.19 83.2801 483.087 83.2801 491.595C83.2801 500.103 193.27 507 328.949 507Z" fill="#F5F5F5"/>
<path d="M96.3941 489.744L319.421 489.744L319.421 189.268L96.3941 189.268L96.3941 489.744Z" fill="#407BFF"/>
<path opacity="0.5" d="M319.535 189.254H96.3814V488.955H319.535V189.254Z" fill="white"/>
<path opacity="0.2" d="M312.82 198.685H135.952V254.031H312.82V198.685Z" fill="black"/>
<path opacity="0.5" d="M145.999 207.653H135.952V254.044H145.999V207.653Z" fill="white"/>
<path opacity="0.5" d="M194.578 207.653H184.53V254.044H194.578V207.653Z" fill="white"/>
<path opacity="0.5" d="M249.735 206.485L239.834 208.318L247.171 254.036L257.072 252.202L249.735 206.485Z" fill="white"/>
<path opacity="0.5" d="M158.442 213.763H148.394V254.044H158.442V213.763Z" fill="white"/>
<path opacity="0.5" d="M181.54 213.763H171.492V254.044H181.54V213.763Z" fill="white"/>
<path opacity="0.5" d="M239.837 213.763H229.79V254.044H239.837V213.763Z" fill="white"/>
<path opacity="0.5" d="M207.787 212.367L197.979 214.708L206.115 254.03L215.924 251.689L207.787 212.367Z" fill="white"/>
<path opacity="0.5" d="M167.134 205.353H162.116V254.044H167.134V205.353Z" fill="white"/>
<path opacity="0.5" d="M226.888 205.353H221.87V254.044H226.888V205.353Z" fill="white"/>
<path opacity="0.2" d="M135.952 318.154H312.82V262.808H135.952V318.154Z" fill="black"/>
<path opacity="0.5" d="M302.772 318.154H312.82V271.763H302.772V318.154Z" fill="white"/>
<path opacity="0.5" d="M254.18 318.154H264.228V271.763H254.18V318.154Z" fill="white"/>
<path opacity="0.5" d="M191.7 316.316L201.602 318.149L208.939 272.432L199.038 270.599L191.7 316.316Z" fill="white"/>
<path opacity="0.5" d="M290.329 318.154H300.377V277.873H290.329V318.154Z" fill="white"/>
<path opacity="0.5" d="M267.218 318.154H277.266V277.873H267.218V318.154Z" fill="white"/>
<path opacity="0.5" d="M208.934 318.154H218.982V277.873H208.934V318.154Z" fill="white"/>
<path opacity="0.5" d="M232.874 315.8L242.682 318.141L250.819 278.819L241.01 276.478L232.874 315.8Z" fill="white"/>
<path opacity="0.5" d="M281.637 318.154H286.655V269.463H281.637V318.154Z" fill="white"/>
<path opacity="0.5" d="M221.883 318.154H226.901V269.463H221.883V318.154Z" fill="white"/>
<path opacity="0.5" d="M145.999 271.763H135.952V318.154H145.999V271.763Z" fill="white"/>
<path opacity="0.5" d="M158.442 277.873H148.394V318.154H158.442V277.873Z" fill="white"/>
<path opacity="0.5" d="M181.54 277.873H171.492V318.154H181.54V277.873Z" fill="white"/>
<path opacity="0.5" d="M167.134 269.463H162.116V318.154H167.134V269.463Z" fill="white"/>
<path opacity="0.2" d="M312.82 326.918H135.952V382.264H312.82V326.918Z" fill="black"/>
<g opacity="0.5">
<path opacity="0.5" d="M247.516 335.886H237.468V382.278H247.516V335.886Z" fill="white"/>
<path opacity="0.5" d="M302.672 334.71L292.77 336.543L300.107 382.26L310.009 380.427L302.672 334.71Z" fill="white"/>
<path opacity="0.5" d="M211.379 341.996H201.332V382.278H211.379V341.996Z" fill="white"/>
<path opacity="0.5" d="M234.478 341.996H224.43V382.278H234.478V341.996Z" fill="white"/>
<path opacity="0.5" d="M292.762 341.996H282.714V382.278H292.762V341.996Z" fill="white"/>
<path opacity="0.5" d="M260.722 340.589L250.914 342.93L259.051 382.252L268.859 379.911L260.722 340.589Z" fill="white"/>
<path opacity="0.5" d="M220.059 333.573H215.041V382.264H220.059V333.573Z" fill="white"/>
<path opacity="0.5" d="M279.825 333.573H274.808V382.264H279.825V333.573Z" fill="white"/>
<path opacity="0.5" d="M187.086 334.719L177.184 336.552L184.521 382.27L194.423 380.436L187.086 334.719Z" fill="white"/>
<path opacity="0.5" d="M177.169 341.996H167.121V382.278H177.169V341.996Z" fill="white"/>
<path opacity="0.5" d="M145.133 340.606L135.324 342.947L143.461 382.269L153.269 379.928L145.133 340.606Z" fill="white"/>
<path opacity="0.5" d="M164.232 333.573H159.215V382.264H164.232V333.573Z" fill="white"/>
</g>
<path opacity="0.2" d="M96.3941 489.744H129.223L129.223 189.268H96.3941L96.3941 489.744Z" fill="black"/>
<path opacity="0.1" d="M311.502 392.089H227.788V477.238H311.502V392.089Z" fill="black"/>
<path opacity="0.1" d="M221.11 392.089H135.952V477.238H221.11V392.089Z" fill="black"/>
<path opacity="0.2" d="M216.017 430.343C216.017 431.199 215.78 432.036 215.338 432.747C214.895 433.459 214.266 434.014 213.529 434.341C212.793 434.669 211.983 434.754 211.201 434.587C210.42 434.42 209.702 434.008 209.138 433.403C208.575 432.798 208.191 432.027 208.036 431.187C207.88 430.348 207.96 429.478 208.265 428.687C208.57 427.896 209.086 427.22 209.749 426.745C210.412 426.269 211.191 426.016 211.987 426.016C213.056 426.016 214.081 426.471 214.837 427.283C215.592 428.095 216.017 429.195 216.017 430.343Z" fill="black"/>
<path opacity="0.2" d="M240.091 430.343C240.091 431.199 239.854 432.036 239.412 432.747C238.969 433.459 238.34 434.014 237.603 434.341C236.867 434.669 236.057 434.754 235.275 434.587C234.494 434.42 233.776 434.008 233.212 433.403C232.649 432.798 232.265 432.027 232.11 431.187C231.954 430.348 232.034 429.478 232.339 428.687C232.644 427.896 233.16 427.22 233.823 426.745C234.486 426.269 235.265 426.016 236.061 426.016C237.13 426.016 238.155 426.471 238.911 427.283C239.666 428.095 240.091 429.195 240.091 430.343Z" fill="black"/>
<path d="M467.109 218.213H450.827L455.16 268.279L429.414 272.429V275.913H483.644V272.429L472.532 268.279L467.109 218.213Z" fill="#263238"/>
<path d="M403.895 249.989C403.811 250.756 403.879 251.533 404.096 252.269C404.312 253.005 404.672 253.683 405.152 254.259C405.631 254.834 406.219 255.293 406.876 255.606C407.533 255.918 408.245 256.077 408.964 256.072H507.604C509.145 256.038 510.623 255.402 511.759 254.282C512.894 253.162 513.611 251.636 513.774 249.989L519.628 182.218C519.696 181.558 519.653 180.889 519.501 180.245C519.218 179.064 518.572 178.019 517.669 177.279C516.766 176.538 515.658 176.145 514.522 176.163H415.92C414.378 176.196 412.901 176.833 411.765 177.953C410.629 179.073 409.912 180.599 409.749 182.246L403.895 249.989Z" fill="#263238"/>
<path d="M507.604 252.67C508.356 252.64 509.074 252.321 509.627 251.772C510.18 251.223 510.532 250.48 510.619 249.676L516.473 181.905C516.519 181.631 516.519 181.35 516.473 181.075C516.375 180.62 516.131 180.216 515.784 179.935C515.436 179.653 515.007 179.513 514.573 179.538H415.92C415.169 179.568 414.452 179.887 413.901 180.437C413.35 180.986 413.001 181.729 412.917 182.531L407.063 250.302C407.026 250.608 407.05 250.919 407.133 251.215C407.216 251.51 407.356 251.783 407.545 252.017C407.731 252.233 407.959 252.404 408.213 252.516C408.466 252.629 408.74 252.682 409.014 252.67H507.604Z" fill="#407BFF"/>
<path opacity="0.6" d="M507.604 252.67C508.356 252.64 509.074 252.321 509.627 251.772C510.18 251.223 510.532 250.48 510.619 249.676L516.473 181.905C516.519 181.631 516.519 181.35 516.473 181.075C516.375 180.62 516.131 180.216 515.784 179.935C515.436 179.653 515.007 179.513 514.573 179.538H415.92C415.169 179.568 414.452 179.887 413.901 180.437C413.35 180.986 413.001 181.729 412.917 182.531L407.063 250.302C407.026 250.608 407.05 250.919 407.133 251.215C407.216 251.51 407.356 251.783 407.545 252.017C407.731 252.233 407.959 252.404 408.213 252.516C408.466 252.629 408.74 252.682 409.014 252.67H507.604Z" fill="white"/>
<path d="M440.668 232.232C440.668 232.232 438.734 195.989 447.132 187.709C455.531 179.429 466.844 181.838 472.844 186.264C478.843 190.69 485.43 202.186 479.455 236.346L440.668 232.232Z" fill="#463531"/>
<path d="M478.981 252.67C478.974 252.611 478.974 252.552 478.981 252.493C479.733 249.907 480.577 247.118 481.515 244.124C482.212 241.851 482.96 239.442 483.796 236.898C478.823 235.192 473.742 233.877 468.591 232.965C463.173 231.933 457.695 231.315 452.195 231.114C445.087 231.046 436.927 231.903 436.927 231.903C436.927 231.903 435.762 232.203 435.04 240.3C434.786 243.212 434.533 247.254 434.393 252.67H478.981Z" fill="#407BFF"/>
<path d="M478.981 252.67C478.974 252.611 478.974 252.552 478.981 252.493C479.733 249.907 480.578 247.118 481.515 244.124C482.212 241.851 482.96 239.442 483.796 236.898C478.823 235.192 473.742 233.877 468.591 232.965C463.173 231.933 457.695 231.315 452.196 231.114C445.087 231.046 436.928 231.903 436.928 231.903C436.928 231.903 435.762 232.203 435.04 240.3C434.812 242.913 434.596 247.104 434.482 252.67H478.981Z" fill="#407BFF"/>
<g opacity="0.2">
<path opacity="0.2" d="M478.981 252.67C478.974 252.611 478.974 252.552 478.981 252.493C479.733 249.907 480.577 247.118 481.515 244.124C482.212 241.851 482.96 239.442 483.796 236.898C478.823 235.192 473.742 233.877 468.591 232.965C463.173 231.933 457.695 231.315 452.195 231.114C445.087 231.046 436.927 231.903 436.927 231.903C436.927 231.903 435.762 232.203 435.04 240.3C434.786 243.212 434.533 247.254 434.393 252.67H478.981Z" fill="black"/>
<path opacity="0.2" d="M478.981 252.67C478.974 252.611 478.974 252.552 478.981 252.493C479.733 249.907 480.577 247.118 481.515 244.124C482.212 241.851 482.96 239.442 483.796 236.898C478.823 235.192 473.742 233.877 468.591 232.965C463.173 231.933 457.694 231.315 452.195 231.114C445.087 231.046 436.927 231.903 436.927 231.903C436.927 231.903 435.762 232.203 435.04 240.3C434.811 242.913 434.596 247.104 434.482 252.67H478.981Z" fill="black"/>
</g>
<path d="M436.231 252.67L435.597 241.429L435.052 231.903C432.873 232.366 427.083 243.021 422.255 252.67H436.231Z" fill="white"/>
<path opacity="0.2" d="M436.231 252.67L435.597 241.429C432.953 244.826 430.78 248.617 429.148 252.684L436.231 252.67Z" fill="black"/>
<path d="M490.106 252.67C486.229 240.49 483.834 236.898 483.834 236.898L478.626 252.67H490.106Z" fill="white"/>
<path d="M455.274 239.769C464.271 238.531 466.982 234.407 466.982 234.407C461.268 228.624 466.019 218.594 466.019 218.594L455.186 220.758C455.434 222.378 455.573 224.015 455.604 225.657C455.68 232.72 452.715 232.801 452.715 232.801C450.814 236.625 455.274 239.769 455.274 239.769Z" fill="#EEC1BB"/>
<path opacity="0.2" d="M455.186 220.758C455.434 222.378 455.573 224.015 455.604 225.657C462.927 225.657 466.019 218.594 466.019 218.594L455.186 220.758Z" fill="black"/>
<path d="M461.166 188.22C451.752 187.675 448.496 192.915 447.229 203.298C445.708 216.267 447.925 225.684 459.899 223.588C476.016 220.758 476.814 189.159 461.166 188.22Z" fill="#EEC1BB"/>
<path d="M453.336 203.08C452.512 204.566 451.52 205.937 450.384 207.163C450.631 207.608 450.987 207.97 451.415 208.211C451.842 208.451 452.323 208.559 452.804 208.524L453.336 203.08Z" fill="#D4827D"/>
<path d="M459.595 195.623C460.344 195.568 461.095 195.699 461.789 196.006C462.484 196.312 463.103 196.787 463.599 197.392" stroke="#263238" stroke-width="0.72468" stroke-linecap="round" stroke-linejoin="round"/>
<path d="M452.778 194.793C452.144 194.579 451.472 194.522 450.814 194.626C450.156 194.729 449.528 194.991 448.977 195.392" stroke="#263238" stroke-width="0.72468" stroke-linecap="round" stroke-linejoin="round"/>
<path d="M453.982 212.47C454.367 213.638 454.672 214.834 454.894 216.049H455.503C458.265 215.913 459.506 214.879 460.039 213.763C460.292 213.214 460.414 212.606 460.393 211.994C460.403 211.645 460.365 211.297 460.279 210.96C458.615 211.868 456.785 212.369 454.92 212.429C454.388 212.47 453.982 212.47 453.982 212.47Z" fill="#263238"/>
<path d="M454.92 212.402L455.211 213.45C457.809 213.314 459.62 212.851 460.393 211.967C460.403 211.618 460.365 211.269 460.279 210.932C458.615 211.84 456.785 212.342 454.92 212.402Z" fill="white"/>
<path d="M455.503 216.022C458.265 215.886 459.506 214.852 460.039 213.736C458.992 213.805 457.966 214.077 457.01 214.539C456.377 214.854 455.85 215.372 455.503 216.022Z" fill="#DE5753"/>
<path d="M473.874 208.552C473.874 208.552 466.567 197.379 467.555 190.983C467.555 190.983 447.305 183.272 445.354 203.562C445.354 203.562 445.684 186.425 461.89 186.969C478.095 187.513 476.739 212.948 467.984 220.038C467.984 220.051 476.333 213.9 473.874 208.552Z" fill="#463631"/>
<path d="M468.946 207.925C469.1 206.762 469.675 205.712 470.545 205.001C471.416 204.29 472.512 203.977 473.596 204.128C476.498 204.645 477.562 211.164 470.226 212.293C469.174 212.443 468.642 211.314 468.946 207.925Z" fill="#EEC1BB"/>
<path d="M457.188 202.686C457.188 202.686 459.519 200.495 461.293 202.291C459.94 202.569 458.565 202.701 457.188 202.686Z" fill="#263238"/>
<path d="M452.74 202.563C452.74 202.563 450.624 200.141 448.686 201.733C450.009 202.15 451.367 202.428 452.74 202.563Z" fill="#263238"/>
<path d="M475.332 235.428C475.332 235.428 464.752 244.641 454.92 244.491C445.087 244.341 441.616 232.448 441.616 232.448C441.616 232.448 456.922 227.657 475.332 235.428Z" fill="#EEC1BB"/>
<path d="M480.527 252.67C481.477 247.226 482.567 241.783 483.821 236.898L474.432 233.74C471.589 239.715 469.533 246.086 468.325 252.67H480.527Z" fill="white"/>
<path d="M441.388 252.67C442.515 242.708 442.591 231.114 442.591 231.114L435.052 231.903C433.19 237.347 432.201 244.859 431.72 252.67H441.388Z" fill="white"/>
<path d="M470.682 210.728C470.649 210.685 470.62 210.64 470.593 210.592C470.341 210.099 470.247 209.529 470.327 208.973C470.466 207.789 472.114 204.89 473.393 206.578C473.685 207.021 473.82 207.561 473.773 208.102C473.747 208.841 473.56 209.563 473.229 210.211C473.106 210.503 472.92 210.76 472.687 210.959C472.453 211.157 472.178 211.293 471.886 211.354C471.652 211.369 471.418 211.32 471.208 211.21C470.997 211.1 470.816 210.935 470.682 210.728Z" fill="#407BFF"/>
<path opacity="0.2" d="M470.682 210.728C470.649 210.685 470.62 210.64 470.593 210.592C470.341 210.099 470.247 209.529 470.327 208.973C470.466 207.789 472.114 204.89 473.393 206.578C473.685 207.021 473.82 207.561 473.773 208.102C473.747 208.841 473.56 209.563 473.229 210.211C473.106 210.503 472.92 210.76 472.687 210.959C472.453 211.157 472.178 211.293 471.886 211.354C471.652 211.369 471.418 211.32 471.208 211.21C470.997 211.1 470.816 210.935 470.682 210.728Z" fill="black"/>
<path d="M470.859 208.864C470.859 208.864 471.987 206.306 472.747 206.782C473.507 207.258 473.203 209.504 472.468 209.939C472.012 210.228 471.666 210.681 471.493 211.218C471.493 211.218 468.363 215.301 467.54 214.879V213.736C469.052 212.48 470.202 210.792 470.859 208.864Z" fill="#407BFF"/>
<path d="M450.89 494.208H458.657L472.608 285.671H462.307L450.89 494.208Z" fill="#263238"/>
<path opacity="0.4" d="M450.89 494.208H458.657L471.924 296.027L472.608 285.997H462.307L461.749 296.027L450.89 494.208Z" fill="white"/>
<path opacity="0.2" d="M461.749 295.523H471.924L472.608 285.997H462.307L461.749 295.523Z" fill="black"/>
<path d="M393.924 494.208H401.691L402.958 285.671H392.657L393.924 494.208Z" fill="#263238"/>
<path opacity="0.5" d="M392.657 285.997L392.859 319.651L393.924 494.208H401.691L402.755 319.651L402.958 285.997H392.657Z" fill="white"/>
<path opacity="0.2" d="M392.657 285.997L392.859 320.019H402.755L402.958 285.997H392.657Z" fill="black"/>
<path d="M311.514 494.208H319.282L333.232 285.671H322.931L311.514 494.208Z" fill="#263238"/>
<path opacity="0.5" d="M311.514 494.208H319.282L332.548 296.027L333.232 285.997H322.931L322.373 296.027L311.514 494.208Z" fill="white"/>
<path opacity="0.2" d="M322.373 295.523H332.548L333.232 285.997H322.931L322.373 295.523Z" fill="black"/>
<path d="M539.686 494.208H547.453L536.049 285.671H525.748L539.686 494.208Z" fill="#263238"/>
<path opacity="0.5" d="M525.748 285.997L526.432 296.027L539.698 494.208H547.453L536.607 296.027L536.049 285.997H525.748Z" fill="white"/>
<path opacity="0.2" d="M536.049 285.997H525.748L526.432 295.523H536.607L536.049 285.997Z" fill="black"/>
<path d="M541.421 290.883L317.495 290.883C317.136 290.883 316.78 290.807 316.448 290.659C316.116 290.511 315.814 290.295 315.56 290.022C315.306 289.749 315.104 289.425 314.966 289.068C314.829 288.711 314.758 288.329 314.758 287.943V280.445L544.196 280.445V287.943C544.196 288.333 544.124 288.718 543.984 289.078C543.844 289.437 543.639 289.763 543.381 290.036C543.123 290.31 542.817 290.525 542.48 290.671C542.144 290.816 541.784 290.888 541.421 290.883Z" fill="#407BFF"/>
<path opacity="0.6" d="M541.421 290.883L317.495 290.883C317.136 290.883 316.78 290.807 316.448 290.659C316.116 290.511 315.814 290.295 315.56 290.022C315.306 289.749 315.104 289.425 314.966 289.068C314.829 288.711 314.758 288.329 314.758 287.943V280.445L544.196 280.445V287.943C544.196 288.333 544.124 288.718 543.984 289.078C543.844 289.437 543.639 289.763 543.381 290.036C543.123 290.31 542.817 290.525 542.48 290.671C542.144 290.816 541.784 290.888 541.421 290.883Z" fill="white"/>
<path opacity="0.2" d="M314.758 285.657L544.196 285.657V280.431L314.758 280.431V285.657Z" fill="black"/>
<path d="M309.943 281.806H549.024C549.383 281.806 549.739 281.73 550.071 281.582C550.403 281.434 550.705 281.218 550.959 280.945C551.213 280.672 551.415 280.348 551.552 279.991C551.69 279.635 551.761 279.252 551.761 278.866C551.761 278.085 551.473 277.336 550.96 276.783C550.447 276.23 549.751 275.917 549.024 275.913H309.943C309.216 275.917 308.52 276.23 308.007 276.783C307.494 277.336 307.207 278.085 307.207 278.866C307.207 279.252 307.277 279.635 307.415 279.991C307.552 280.348 307.754 280.672 308.008 280.945C308.262 281.218 308.564 281.434 308.896 281.582C309.228 281.73 309.584 281.806 309.943 281.806Z" fill="#407BFF"/>
<path opacity="0.6" d="M309.943 281.806H549.024C549.383 281.806 549.739 281.73 550.071 281.582C550.403 281.434 550.705 281.218 550.959 280.945C551.213 280.672 551.415 280.348 551.552 279.991C551.69 279.635 551.761 279.252 551.761 278.866C551.761 278.085 551.473 277.336 550.96 276.783C550.447 276.23 549.751 275.917 549.024 275.913H309.943C309.216 275.917 308.52 276.23 308.007 276.783C307.494 277.336 307.207 278.085 307.207 278.866C307.207 279.252 307.277 279.635 307.415 279.991C307.552 280.348 307.754 280.672 308.008 280.945C308.262 281.218 308.564 281.434 308.896 281.582C309.228 281.73 309.584 281.806 309.943 281.806Z" fill="white"/>
<path d="M450.979 275.913L449.725 270.851H398.346L374.69 273.382L373.79 275.913H450.979Z" fill="#263238"/>
<path opacity="0.4" d="M398.346 270.851V275.913H450.979L449.725 270.851H398.346Z" fill="black"/>
<path d="M545.843 268.51C545.947 271.049 545.514 273.58 544.576 275.913H490.093V274.552H491.195V262.509H490.093V261.148H544.576C545.495 263.473 545.927 265.986 545.843 268.51Z" fill="#263238"/>
<path opacity="0.2" d="M545.843 268.51C545.947 271.049 545.514 273.58 544.576 275.913H490.093V274.552H491.195V262.509H490.093V261.148H544.576C545.495 263.473 545.927 265.986 545.843 268.51Z" fill="white"/>
<path opacity="0.2" d="M516.701 268.51C516.805 271.049 516.372 273.58 515.434 275.913H490.093V274.552H491.195V262.509H490.093V261.148H515.434C516.352 263.473 516.785 265.986 516.701 268.51Z" fill="black"/>
<path opacity="0.8" d="M514.015 268.51C514.1 270.573 513.749 272.629 512.989 274.525H491.208V262.482H512.989C513.739 264.386 514.089 266.444 514.015 268.51Z" fill="white"/>
<path opacity="0.6" d="M536.974 268.51C537.078 271.049 536.645 273.58 535.707 275.913H525.571C526.508 273.58 526.941 271.049 526.838 268.51C526.929 265.968 526.496 263.435 525.571 261.094H535.707C536.632 263.435 537.065 265.968 536.974 268.51Z" fill="white"/>
<path d="M550.684 253.691C550.787 256.229 550.354 258.76 549.417 261.094H494.933V259.733H496.036V247.676H494.933V246.315H549.417C550.337 248.644 550.769 251.162 550.684 253.691Z" fill="#407BFF"/>
<path opacity="0.2" d="M521.541 253.691C521.645 256.229 521.212 258.76 520.274 261.094H494.933V259.733H496.036V247.676H494.933V246.315H520.274C521.194 248.644 521.627 251.162 521.541 253.691Z" fill="black"/>
<path opacity="0.8" d="M518.868 253.691C518.952 255.753 518.602 257.809 517.842 259.705H496.061V247.676H517.842C518.59 249.576 518.94 251.629 518.868 253.691Z" fill="white"/>
<path opacity="0.2" d="M541.814 253.691C541.918 256.229 541.485 258.76 540.547 261.094H530.411C531.348 258.76 531.782 256.229 531.678 253.691C531.769 251.148 531.336 248.616 530.411 246.274H540.547C541.473 248.616 541.905 251.148 541.814 253.691Z" fill="black"/>
<path d="M534.56 68.7692H420.32C413.963 68.7692 408.809 71.3408 408.809 74.5131V131.516C408.809 134.688 413.963 137.26 420.32 137.26H534.56C540.917 137.26 546.071 134.688 546.071 131.516V102.245V74.5131C546.071 71.3408 540.917 68.7692 534.56 68.7692Z" fill="#3E79FF"/>
<path d="M446.547 129.626C446.547 129.626 451.176 153.559 485.016 164.35C485.016 164.35 465.794 147 465.794 129.626H446.547Z" fill="#407BFF"/>
<g style="mix-blend-mode:darken">
<path d="M438.495 87.9V97H437.832V92.671H431.748V97H431.085V87.9H431.748V92.086H437.832V87.9H438.495ZM447.198 93.763H441.361C441.378 94.2917 441.513 94.764 441.764 95.18C442.015 95.5873 442.353 95.9037 442.778 96.129C443.211 96.3543 443.697 96.467 444.234 96.467C444.676 96.467 445.083 96.389 445.456 96.233C445.837 96.0683 446.154 95.83 446.405 95.518L446.782 95.947C446.487 96.3023 446.115 96.5753 445.664 96.766C445.222 96.9567 444.741 97.052 444.221 97.052C443.545 97.052 442.943 96.9047 442.414 96.61C441.885 96.3153 441.469 95.908 441.166 95.388C440.871 94.868 440.724 94.2743 440.724 93.607C440.724 92.9483 440.863 92.359 441.14 91.839C441.426 91.3103 441.816 90.8987 442.31 90.604C442.804 90.3093 443.359 90.162 443.974 90.162C444.589 90.162 445.14 90.3093 445.625 90.604C446.119 90.89 446.505 91.293 446.782 91.813C447.068 92.333 447.211 92.9223 447.211 93.581L447.198 93.763ZM443.974 90.734C443.497 90.734 443.068 90.8423 442.687 91.059C442.306 91.267 441.998 91.566 441.764 91.956C441.539 92.3373 441.409 92.7707 441.374 93.256H446.574C446.548 92.7707 446.418 92.3373 446.184 91.956C445.95 91.5747 445.642 91.2757 445.261 91.059C444.88 90.8423 444.451 90.734 443.974 90.734ZM449.222 87.354H449.872V97H449.222V87.354ZM452.611 87.354H453.261V97H452.611V87.354ZM458.653 97.052C458.012 97.052 457.431 96.9047 456.911 96.61C456.4 96.3153 455.997 95.908 455.702 95.388C455.407 94.8593 455.26 94.2657 455.26 93.607C455.26 92.9483 455.407 92.359 455.702 91.839C455.997 91.3103 456.4 90.8987 456.911 90.604C457.431 90.3093 458.012 90.162 458.653 90.162C459.294 90.162 459.871 90.3093 460.382 90.604C460.902 90.8987 461.309 91.3103 461.604 91.839C461.899 92.359 462.046 92.9483 462.046 93.607C462.046 94.2657 461.899 94.8593 461.604 95.388C461.309 95.908 460.902 96.3153 460.382 96.61C459.871 96.9047 459.294 97.052 458.653 97.052ZM458.653 96.467C459.173 96.467 459.637 96.3457 460.044 96.103C460.46 95.8603 460.785 95.5223 461.019 95.089C461.262 94.6557 461.383 94.1617 461.383 93.607C461.383 93.0523 461.262 92.5583 461.019 92.125C460.785 91.6917 460.46 91.3537 460.044 91.111C459.637 90.8683 459.173 90.747 458.653 90.747C458.133 90.747 457.665 90.8683 457.249 91.111C456.842 91.3537 456.517 91.6917 456.274 92.125C456.04 92.5583 455.923 93.0523 455.923 93.607C455.923 94.1617 456.04 94.6557 456.274 95.089C456.517 95.5223 456.842 95.8603 457.249 96.103C457.665 96.3457 458.133 96.467 458.653 96.467ZM463.769 95.947C463.925 95.947 464.055 96.0033 464.159 96.116C464.263 96.22 464.315 96.3457 464.315 96.493C464.315 96.5797 464.302 96.6707 464.276 96.766C464.258 96.8613 464.232 96.9697 464.198 97.091L463.691 98.859H463.223L463.652 97.026C463.522 96.9913 463.418 96.9307 463.34 96.844C463.262 96.7487 463.223 96.6317 463.223 96.493C463.223 96.337 463.275 96.207 463.379 96.103C463.483 95.999 463.613 95.947 463.769 95.947ZM475.625 94.439H470.347L469.19 97H468.475L472.661 87.9H473.324L477.51 97H476.795L475.625 94.439ZM475.378 93.88L472.986 88.628L470.607 93.88H475.378ZM482.269 90.162C483.119 90.162 483.79 90.409 484.284 90.903C484.778 91.397 485.025 92.1077 485.025 93.035V97H484.375V93.087C484.375 92.3243 484.18 91.7437 483.79 91.345C483.409 90.9463 482.872 90.747 482.178 90.747C481.381 90.747 480.753 90.9853 480.293 91.462C479.834 91.9387 479.604 92.58 479.604 93.386V97H478.954V90.214H479.578V91.683C479.812 91.2063 480.159 90.8337 480.618 90.565C481.086 90.2963 481.637 90.162 482.269 90.162ZM493.746 87.354V97H493.109V95.401C492.84 95.9297 492.463 96.337 491.978 96.623C491.493 96.909 490.942 97.052 490.327 97.052C489.694 97.052 489.122 96.9047 488.611 96.61C488.1 96.3153 487.697 95.908 487.402 95.388C487.116 94.868 486.973 94.2743 486.973 93.607C486.973 92.9397 487.116 92.346 487.402 91.826C487.697 91.2973 488.1 90.89 488.611 90.604C489.122 90.3093 489.694 90.162 490.327 90.162C490.934 90.162 491.475 90.305 491.952 90.591C492.437 90.877 492.819 91.2757 493.096 91.787V87.354H493.746ZM490.366 96.467C490.886 96.467 491.35 96.3457 491.757 96.103C492.173 95.8603 492.498 95.5223 492.732 95.089C492.975 94.6557 493.096 94.1617 493.096 93.607C493.096 93.0523 492.975 92.5583 492.732 92.125C492.498 91.6917 492.173 91.3537 491.757 91.111C491.35 90.8683 490.886 90.747 490.366 90.747C489.846 90.747 489.378 90.8683 488.962 91.111C488.555 91.3537 488.23 91.6917 487.987 92.125C487.753 92.5583 487.636 93.0523 487.636 93.607C487.636 94.1617 487.753 94.6557 487.987 95.089C488.23 95.5223 488.555 95.8603 488.962 96.103C489.378 96.3457 489.846 96.467 490.366 96.467ZM497.11 91.696C497.318 91.202 497.643 90.825 498.085 90.565C498.527 90.2963 499.065 90.162 499.697 90.162V90.799L499.541 90.786C498.787 90.786 498.198 91.0243 497.773 91.501C497.349 91.969 497.136 92.6233 497.136 93.464V97H496.486V90.214H497.11V91.696ZM507.158 93.763H501.321C501.338 94.2917 501.473 94.764 501.724 95.18C501.975 95.5873 502.313 95.9037 502.738 96.129C503.171 96.3543 503.657 96.467 504.194 96.467C504.636 96.467 505.043 96.389 505.416 96.233C505.797 96.0683 506.114 95.83 506.365 95.518L506.742 95.947C506.447 96.3023 506.075 96.5753 505.624 96.766C505.182 96.9567 504.701 97.052 504.181 97.052C503.505 97.052 502.903 96.9047 502.374 96.61C501.845 96.3153 501.429 95.908 501.126 95.388C500.831 94.868 500.684 94.2743 500.684 93.607C500.684 92.9483 500.823 92.359 501.1 91.839C501.386 91.3103 501.776 90.8987 502.27 90.604C502.764 90.3093 503.319 90.162 503.934 90.162C504.549 90.162 505.1 90.3093 505.585 90.604C506.079 90.89 506.465 91.293 506.742 91.813C507.028 92.333 507.171 92.9223 507.171 93.581L507.158 93.763ZM503.934 90.734C503.457 90.734 503.028 90.8423 502.647 91.059C502.266 91.267 501.958 91.566 501.724 91.956C501.499 92.3373 501.369 92.7707 501.334 93.256H506.534C506.508 92.7707 506.378 92.3373 506.144 91.956C505.91 91.5747 505.602 91.2757 505.221 91.059C504.84 90.8423 504.411 90.734 503.934 90.734ZM518.753 90.214L516.179 97H515.568L513.28 91.111L510.979 97H510.381L507.807 90.214H508.431L510.693 96.272L513.007 90.214H513.566L515.867 96.259L518.155 90.214H518.753ZM520.148 87.9H520.902L520.772 94.387H520.278L520.148 87.9ZM520.525 97.052C520.377 97.052 520.252 97 520.148 96.896C520.044 96.792 519.992 96.6663 519.992 96.519C519.992 96.3717 520.044 96.246 520.148 96.142C520.252 96.038 520.377 95.986 520.525 95.986C520.681 95.986 520.811 96.038 520.915 96.142C521.019 96.246 521.071 96.3717 521.071 96.519C521.071 96.6663 521.019 96.792 520.915 96.896C520.811 97 520.681 97.052 520.525 97.052ZM422.899 107.9V117H422.236V112.671H416.152V117H415.489V107.9H416.152V112.086H422.236V107.9H422.899ZM428.521 117.052C427.879 117.052 427.299 116.905 426.779 116.61C426.267 116.315 425.864 115.908 425.57 115.388C425.275 114.859 425.128 114.266 425.128 113.607C425.128 112.948 425.275 112.359 425.57 111.839C425.864 111.31 426.267 110.899 426.779 110.604C427.299 110.309 427.879 110.162 428.521 110.162C429.162 110.162 429.738 110.309 430.25 110.604C430.77 110.899 431.177 111.31 431.472 111.839C431.766 112.359 431.914 112.948 431.914 113.607C431.914 114.266 431.766 114.859 431.472 115.388C431.177 115.908 430.77 116.315 430.25 116.61C429.738 116.905 429.162 117.052 428.521 117.052ZM428.521 116.467C429.041 116.467 429.504 116.346 429.912 116.103C430.328 115.86 430.653 115.522 430.887 115.089C431.129 114.656 431.251 114.162 431.251 113.607C431.251 113.052 431.129 112.558 430.887 112.125C430.653 111.692 430.328 111.354 429.912 111.111C429.504 110.868 429.041 110.747 428.521 110.747C428.001 110.747 427.533 110.868 427.117 111.111C426.709 111.354 426.384 111.692 426.142 112.125C425.908 112.558 425.791 113.052 425.791 113.607C425.791 114.162 425.908 114.656 426.142 115.089C426.384 115.522 426.709 115.86 427.117 116.103C427.533 116.346 428.001 116.467 428.521 116.467ZM443.438 110.214L440.864 117H440.253L437.965 111.111L435.664 117H435.066L432.492 110.214H433.116L435.378 116.272L437.692 110.214H438.251L440.552 116.259L442.84 110.214H443.438ZM450.577 110.162C451.417 110.162 452.063 110.379 452.514 110.812C452.964 111.237 453.19 111.865 453.19 112.697V117H452.566V115.791C452.349 116.19 452.033 116.502 451.617 116.727C451.201 116.944 450.702 117.052 450.122 117.052C449.368 117.052 448.77 116.874 448.328 116.519C447.894 116.164 447.678 115.696 447.678 115.115C447.678 114.552 447.877 114.097 448.276 113.75C448.683 113.395 449.329 113.217 450.213 113.217H452.54V112.671C452.54 112.038 452.366 111.557 452.02 111.228C451.682 110.899 451.183 110.734 450.525 110.734C450.074 110.734 449.641 110.812 449.225 110.968C448.817 111.124 448.471 111.332 448.185 111.592L447.86 111.124C448.198 110.821 448.605 110.587 449.082 110.422C449.558 110.249 450.057 110.162 450.577 110.162ZM450.213 116.519C450.776 116.519 451.253 116.389 451.643 116.129C452.041 115.869 452.34 115.492 452.54 114.998V113.724H450.226C449.558 113.724 449.073 113.845 448.77 114.088C448.475 114.331 448.328 114.664 448.328 115.089C448.328 115.531 448.492 115.882 448.822 116.142C449.151 116.393 449.615 116.519 450.213 116.519ZM456.492 111.696C456.7 111.202 457.025 110.825 457.467 110.565C457.909 110.296 458.446 110.162 459.079 110.162V110.799L458.923 110.786C458.169 110.786 457.579 111.024 457.155 111.501C456.73 111.969 456.518 112.623 456.518 113.464V117H455.868V110.214H456.492V111.696ZM466.539 113.763H460.702C460.72 114.292 460.854 114.764 461.105 115.18C461.357 115.587 461.695 115.904 462.119 116.129C462.553 116.354 463.038 116.467 463.575 116.467C464.017 116.467 464.425 116.389 464.797 116.233C465.179 116.068 465.495 115.83 465.746 115.518L466.123 115.947C465.829 116.302 465.456 116.575 465.005 116.766C464.563 116.957 464.082 117.052 463.562 117.052C462.886 117.052 462.284 116.905 461.755 116.61C461.227 116.315 460.811 115.908 460.507 115.388C460.213 114.868 460.065 114.274 460.065 113.607C460.065 112.948 460.204 112.359 460.481 111.839C460.767 111.31 461.157 110.899 461.651 110.604C462.145 110.309 462.7 110.162 463.315 110.162C463.931 110.162 464.481 110.309 464.966 110.604C465.46 110.89 465.846 111.293 466.123 111.813C466.409 112.333 466.552 112.922 466.552 113.581L466.539 113.763ZM463.315 110.734C462.839 110.734 462.41 110.842 462.028 111.059C461.647 111.267 461.339 111.566 461.105 111.956C460.88 112.337 460.75 112.771 460.715 113.256H465.915C465.889 112.771 465.759 112.337 465.525 111.956C465.291 111.575 464.984 111.276 464.602 111.059C464.221 110.842 463.792 110.734 463.315 110.734ZM477.349 110.214L473.865 117.923C473.605 118.521 473.302 118.946 472.955 119.197C472.617 119.448 472.214 119.574 471.746 119.574C471.434 119.574 471.139 119.522 470.862 119.418C470.593 119.314 470.364 119.162 470.173 118.963L470.498 118.469C470.845 118.824 471.265 119.002 471.759 119.002C472.088 119.002 472.37 118.911 472.604 118.729C472.838 118.547 473.055 118.235 473.254 117.793L473.618 116.974L470.563 110.214H471.252L473.969 116.285L476.686 110.214H477.349ZM481.232 117.052C480.59 117.052 480.01 116.905 479.49 116.61C478.978 116.315 478.575 115.908 478.281 115.388C477.986 114.859 477.839 114.266 477.839 113.607C477.839 112.948 477.986 112.359 478.281 111.839C478.575 111.31 478.978 110.899 479.49 110.604C480.01 110.309 480.59 110.162 481.232 110.162C481.873 110.162 482.449 110.309 482.961 110.604C483.481 110.899 483.888 111.31 484.183 111.839C484.477 112.359 484.625 112.948 484.625 113.607C484.625 114.266 484.477 114.859 484.183 115.388C483.888 115.908 483.481 116.315 482.961 116.61C482.449 116.905 481.873 117.052 481.232 117.052ZM481.232 116.467C481.752 116.467 482.215 116.346 482.623 116.103C483.039 115.86 483.364 115.522 483.598 115.089C483.84 114.656 483.962 114.162 483.962 113.607C483.962 113.052 483.84 112.558 483.598 112.125C483.364 111.692 483.039 111.354 482.623 111.111C482.215 110.868 481.752 110.747 481.232 110.747C480.712 110.747 480.244 110.868 479.828 111.111C479.42 111.354 479.095 111.692 478.853 112.125C478.619 112.558 478.502 113.052 478.502 113.607C478.502 114.162 478.619 114.656 478.853 115.089C479.095 115.522 479.42 115.86 479.828 116.103C480.244 116.346 480.712 116.467 481.232 116.467ZM492.582 110.214V117H491.958V115.544C491.733 116.021 491.399 116.393 490.957 116.662C490.515 116.922 489.995 117.052 489.397 117.052C488.513 117.052 487.82 116.805 487.317 116.311C486.815 115.817 486.563 115.106 486.563 114.179V110.214H487.213V114.127C487.213 114.89 487.408 115.47 487.798 115.869C488.188 116.268 488.739 116.467 489.449 116.467C490.212 116.467 490.814 116.229 491.256 115.752C491.707 115.275 491.932 114.634 491.932 113.828V110.214H492.582ZM502.043 116.571C501.879 116.727 501.671 116.848 501.419 116.935C501.177 117.013 500.921 117.052 500.652 117.052C500.063 117.052 499.608 116.892 499.287 116.571C498.967 116.242 498.806 115.787 498.806 115.206V110.773H497.558V110.214H498.806V108.732H499.456V110.214H501.614V110.773H499.456V115.141C499.456 115.583 499.56 115.921 499.768 116.155C499.985 116.38 500.301 116.493 500.717 116.493C501.142 116.493 501.493 116.367 501.77 116.116L502.043 116.571ZM506.267 117.052C505.625 117.052 505.045 116.905 504.525 116.61C504.013 116.315 503.61 115.908 503.316 115.388C503.021 114.859 502.874 114.266 502.874 113.607C502.874 112.948 503.021 112.359 503.316 111.839C503.61 111.31 504.013 110.899 504.525 110.604C505.045 110.309 505.625 110.162 506.267 110.162C506.908 110.162 507.484 110.309 507.996 110.604C508.516 110.899 508.923 111.31 509.218 111.839C509.512 112.359 509.66 112.948 509.66 113.607C509.66 114.266 509.512 114.859 509.218 115.388C508.923 115.908 508.516 116.315 507.996 116.61C507.484 116.905 506.908 117.052 506.267 117.052ZM506.267 116.467C506.787 116.467 507.25 116.346 507.658 116.103C508.074 115.86 508.399 115.522 508.633 115.089C508.875 114.656 508.997 114.162 508.997 113.607C508.997 113.052 508.875 112.558 508.633 112.125C508.399 111.692 508.074 111.354 507.658 111.111C507.25 110.868 506.787 110.747 506.267 110.747C505.747 110.747 505.279 110.868 504.863 111.111C504.455 111.354 504.13 111.692 503.888 112.125C503.654 112.558 503.537 113.052 503.537 113.607C503.537 114.162 503.654 114.656 503.888 115.089C504.13 115.522 504.455 115.86 504.863 116.103C505.279 116.346 505.747 116.467 506.267 116.467ZM517.708 107.354V117H517.071V115.401C516.803 115.93 516.426 116.337 515.94 116.623C515.455 116.909 514.905 117.052 514.289 117.052C513.657 117.052 513.085 116.905 512.573 116.61C512.062 116.315 511.659 115.908 511.364 115.388C511.078 114.868 510.935 114.274 510.935 113.607C510.935 112.94 511.078 112.346 511.364 111.826C511.659 111.297 512.062 110.89 512.573 110.604C513.085 110.309 513.657 110.162 514.289 110.162C514.896 110.162 515.438 110.305 515.914 110.591C516.4 110.877 516.781 111.276 517.058 111.787V107.354H517.708ZM514.328 116.467C514.848 116.467 515.312 116.346 515.719 116.103C516.135 115.86 516.46 115.522 516.694 115.089C516.937 114.656 517.058 114.162 517.058 113.607C517.058 113.052 516.937 112.558 516.694 112.125C516.46 111.692 516.135 111.354 515.719 111.111C515.312 110.868 514.848 110.747 514.328 110.747C513.808 110.747 513.34 110.868 512.924 111.111C512.517 111.354 512.192 111.692 511.949 112.125C511.715 112.558 511.598 113.052 511.598 113.607C511.598 114.162 511.715 114.656 511.949 115.089C512.192 115.522 512.517 115.86 512.924 116.103C513.34 116.346 513.808 116.467 514.328 116.467ZM522.737 110.162C523.577 110.162 524.223 110.379 524.674 110.812C525.124 111.237 525.35 111.865 525.35 112.697V117H524.726V115.791C524.509 116.19 524.193 116.502 523.777 116.727C523.361 116.944 522.862 117.052 522.282 117.052C521.528 117.052 520.93 116.874 520.488 116.519C520.054 116.164 519.838 115.696 519.838 115.115C519.838 114.552 520.037 114.097 520.436 113.75C520.843 113.395 521.489 113.217 522.373 113.217H524.7V112.671C524.7 112.038 524.526 111.557 524.18 111.228C523.842 110.899 523.343 110.734 522.685 110.734C522.234 110.734 521.801 110.812 521.385 110.968C520.977 111.124 520.631 111.332 520.345 111.592L520.02 111.124C520.358 110.821 520.765 110.587 521.242 110.422C521.718 110.249 522.217 110.162 522.737 110.162ZM522.373 116.519C522.936 116.519 523.413 116.389 523.803 116.129C524.201 115.869 524.5 115.492 524.7 114.998V113.724H522.386C521.718 113.724 521.233 113.845 520.93 114.088C520.635 114.331 520.488 114.664 520.488 115.089C520.488 115.531 520.652 115.882 520.982 116.142C521.311 116.393 521.775 116.519 522.373 116.519ZM533.348 110.214L529.864 117.923C529.604 118.521 529.301 118.946 528.954 119.197C528.616 119.448 528.213 119.574 527.745 119.574C527.433 119.574 527.138 119.522 526.861 119.418C526.592 119.314 526.363 119.162 526.172 118.963L526.497 118.469C526.844 118.824 527.264 119.002 527.758 119.002C528.087 119.002 528.369 118.911 528.603 118.729C528.837 118.547 529.054 118.235 529.253 117.793L529.617 116.974L526.562 110.214H527.251L529.968 116.285L532.685 110.214H533.348ZM536.93 114.387C536.93 114.023 536.991 113.707 537.112 113.438C537.234 113.161 537.377 112.927 537.541 112.736C537.715 112.545 537.944 112.324 538.23 112.073C538.62 111.726 538.906 111.423 539.088 111.163C539.279 110.894 539.374 110.556 539.374 110.149C539.374 109.638 539.175 109.222 538.776 108.901C538.378 108.58 537.819 108.42 537.099 108.42C536.519 108.42 536.016 108.511 535.591 108.693C535.167 108.866 534.798 109.135 534.486 109.499L534.005 109.122C534.725 108.264 535.769 107.835 537.138 107.835C538.022 107.835 538.729 108.039 539.257 108.446C539.786 108.845 540.05 109.382 540.05 110.058C540.05 110.422 539.99 110.743 539.868 111.02C539.756 111.289 539.613 111.523 539.439 111.722C539.275 111.913 539.049 112.134 538.763 112.385C538.495 112.628 538.287 112.831 538.139 112.996C537.992 113.161 537.866 113.36 537.762 113.594C537.658 113.819 537.606 114.084 537.606 114.387H536.93ZM537.268 117.052C537.121 117.052 536.995 117 536.891 116.896C536.787 116.792 536.735 116.666 536.735 116.519C536.735 116.372 536.787 116.246 536.891 116.142C536.995 116.038 537.121 115.986 537.268 115.986C537.424 115.986 537.554 116.038 537.658 116.142C537.762 116.246 537.814 116.372 537.814 116.519C537.814 116.666 537.762 116.792 537.658 116.896C537.554 117 537.424 117.052 537.268 117.052Z" fill="black"/>
</g>
<path d="M279.144 129.929C279.144 129.929 285.042 153.654 328.153 164.35C328.153 164.35 303.664 147.151 303.664 129.929H279.144Z" fill="#004FFF"/>
<path opacity="0.6" d="M279.144 129.929C279.144 129.929 285.042 153.654 328.153 164.35C328.153 164.35 303.664 147.151 303.664 129.929H279.144Z" fill="white"/>
<path d="M367.079 52.6303H229.045C221.364 52.6303 215.136 55.8168 215.136 59.7475V130.379C215.136 134.31 221.364 137.496 229.045 137.496H367.079C374.761 137.496 380.988 134.31 380.988 130.379V59.7475C380.988 55.8168 374.761 52.6303 367.079 52.6303Z" fill="#407BFF"/>
<path opacity="0.6" d="M367.169 52H228.93C221.237 52 215 55.2013 215 59.1503V130.111C215 134.06 221.237 137.261 228.93 137.261H367.169C374.863 137.261 381.099 134.06 381.099 130.111V59.1503C381.099 55.2013 374.863 52 367.169 52Z" fill="white" fill-opacity="0.8"/>
<path d="M252.571 65.5H253.336V76H252.571V65.5ZM256.275 65.5H256.965L256.905 69.37H256.335L256.275 65.5ZM269.42 68.11C270.39 68.11 271.15 68.395 271.7 68.965C272.26 69.535 272.54 70.355 272.54 71.425V76H271.79V71.485C271.79 70.605 271.575 69.935 271.145 69.475C270.715 69.015 270.115 68.785 269.345 68.785C268.465 68.785 267.765 69.06 267.245 69.61C266.735 70.16 266.48 70.9 266.48 71.83V76H265.73V71.485C265.73 70.605 265.515 69.935 265.085 69.475C264.655 69.015 264.055 68.785 263.285 68.785C262.405 68.785 261.705 69.06 261.185 69.61C260.675 70.16 260.42 70.9 260.42 71.83V76H259.67V68.17H260.39V69.85C260.65 69.3 261.035 68.875 261.545 68.575C262.065 68.265 262.68 68.11 263.39 68.11C264.1 68.11 264.7 68.27 265.19 68.59C265.69 68.91 266.045 69.38 266.255 70C266.515 69.42 266.92 68.96 267.47 68.62C268.03 68.28 268.68 68.11 269.42 68.11ZM286.104 72.265H279.369C279.389 72.875 279.544 73.42 279.834 73.9C280.124 74.37 280.514 74.735 281.004 74.995C281.504 75.255 282.064 75.385 282.684 75.385C283.194 75.385 283.664 75.295 284.094 75.115C284.534 74.925 284.899 74.65 285.189 74.29L285.624 74.785C285.284 75.195 284.854 75.51 284.334 75.73C283.824 75.95 283.269 76.06 282.669 76.06C281.889 76.06 281.194 75.89 280.584 75.55C279.974 75.21 279.494 74.74 279.144 74.14C278.804 73.54 278.634 72.855 278.634 72.085C278.634 71.325 278.794 70.645 279.114 70.045C279.444 69.435 279.894 68.96 280.464 68.62C281.034 68.28 281.674 68.11 282.384 68.11C283.094 68.11 283.729 68.28 284.289 68.62C284.859 68.95 285.304 69.415 285.624 70.015C285.954 70.615 286.119 71.295 286.119 72.055L286.104 72.265ZM282.384 68.77C281.834 68.77 281.339 68.895 280.899 69.145C280.459 69.385 280.104 69.73 279.834 70.18C279.574 70.62 279.424 71.12 279.384 71.68H285.384C285.354 71.12 285.204 70.62 284.934 70.18C284.664 69.74 284.309 69.395 283.869 69.145C283.429 68.895 282.934 68.77 282.384 68.77ZM293.199 76L290.514 72.505L287.829 76H286.974L290.079 71.965L287.139 68.17H287.994L290.514 71.425L293.034 68.17H293.874L290.934 71.965L294.084 76H293.199ZM298.824 76.06C298.064 76.06 297.384 75.89 296.784 75.55C296.184 75.21 295.714 74.74 295.374 74.14C295.034 73.53 294.864 72.845 294.864 72.085C294.864 71.315 295.034 70.63 295.374 70.03C295.714 69.42 296.184 68.95 296.784 68.62C297.384 68.28 298.064 68.11 298.824 68.11C299.454 68.11 300.024 68.235 300.534 68.485C301.054 68.725 301.474 69.08 301.794 69.55L301.239 69.955C300.959 69.565 300.609 69.275 300.189 69.085C299.779 68.885 299.324 68.785 298.824 68.785C298.214 68.785 297.664 68.925 297.174 69.205C296.694 69.475 296.314 69.86 296.034 70.36C295.764 70.86 295.629 71.435 295.629 72.085C295.629 72.735 295.764 73.31 296.034 73.81C296.314 74.31 296.694 74.7 297.174 74.98C297.664 75.25 298.214 75.385 298.824 75.385C299.324 75.385 299.779 75.29 300.189 75.1C300.609 74.9 300.959 74.605 301.239 74.215L301.794 74.62C301.474 75.09 301.054 75.45 300.534 75.7C300.024 75.94 299.454 76.06 298.824 76.06ZM310.523 72.265H303.788C303.808 72.875 303.963 73.42 304.253 73.9C304.543 74.37 304.933 74.735 305.423 74.995C305.923 75.255 306.483 75.385 307.103 75.385C307.613 75.385 308.083 75.295 308.513 75.115C308.953 74.925 309.318 74.65 309.608 74.29L310.043 74.785C309.703 75.195 309.273 75.51 308.753 75.73C308.243 75.95 307.688 76.06 307.088 76.06C306.308 76.06 305.613 75.89 305.003 75.55C304.393 75.21 303.913 74.74 303.563 74.14C303.223 73.54 303.053 72.855 303.053 72.085C303.053 71.325 303.213 70.645 303.533 70.045C303.863 69.435 304.313 68.96 304.883 68.62C305.453 68.28 306.093 68.11 306.803 68.11C307.513 68.11 308.148 68.28 308.708 68.62C309.278 68.95 309.723 69.415 310.043 70.015C310.373 70.615 310.538 71.295 310.538 72.055L310.523 72.265ZM306.803 68.77C306.253 68.77 305.758 68.895 305.318 69.145C304.878 69.385 304.523 69.73 304.253 70.18C303.993 70.62 303.843 71.12 303.803 71.68H309.803C309.773 71.12 309.623 70.62 309.353 70.18C309.083 69.74 308.728 69.395 308.288 69.145C307.848 68.895 307.353 68.77 306.803 68.77ZM312.858 64.87H313.608V76H312.858V64.87ZM316.769 64.87H317.519V76H316.769V64.87ZM327.295 72.265H320.56C320.58 72.875 320.735 73.42 321.025 73.9C321.315 74.37 321.705 74.735 322.195 74.995C322.695 75.255 323.255 75.385 323.875 75.385C324.385 75.385 324.855 75.295 325.285 75.115C325.725 74.925 326.09 74.65 326.38 74.29L326.815 74.785C326.475 75.195 326.045 75.51 325.525 75.73C325.015 75.95 324.46 76.06 323.86 76.06C323.08 76.06 322.385 75.89 321.775 75.55C321.165 75.21 320.685 74.74 320.335 74.14C319.995 73.54 319.825 72.855 319.825 72.085C319.825 71.325 319.985 70.645 320.305 70.045C320.635 69.435 321.085 68.96 321.655 68.62C322.225 68.28 322.865 68.11 323.575 68.11C324.285 68.11 324.92 68.28 325.48 68.62C326.05 68.95 326.495 69.415 326.815 70.015C327.145 70.615 327.31 71.295 327.31 72.055L327.295 72.265ZM323.575 68.77C323.025 68.77 322.53 68.895 322.09 69.145C321.65 69.385 321.295 69.73 321.025 70.18C320.765 70.62 320.615 71.12 320.575 71.68H326.575C326.545 71.12 326.395 70.62 326.125 70.18C325.855 69.74 325.5 69.395 325.06 69.145C324.62 68.895 324.125 68.77 323.575 68.77ZM333.456 68.11C334.436 68.11 335.211 68.395 335.781 68.965C336.351 69.535 336.636 70.355 336.636 71.425V76H335.886V71.485C335.886 70.605 335.661 69.935 335.211 69.475C334.771 69.015 334.151 68.785 333.351 68.785C332.431 68.785 331.706 69.06 331.176 69.61C330.646 70.16 330.381 70.9 330.381 71.83V76H329.631V68.17H330.351V69.865C330.621 69.315 331.021 68.885 331.551 68.575C332.091 68.265 332.726 68.11 333.456 68.11ZM343.608 75.505C343.418 75.685 343.178 75.825 342.888 75.925C342.608 76.015 342.313 76.06 342.003 76.06C341.323 76.06 340.798 75.875 340.428 75.505C340.058 75.125 339.873 74.6 339.873 73.93V68.815H338.433V68.17H339.873V66.46H340.623V68.17H343.113V68.815H340.623V73.855C340.623 74.365 340.743 74.755 340.983 75.025C341.233 75.285 341.598 75.415 342.078 75.415C342.568 75.415 342.973 75.27 343.293 74.98L343.608 75.505ZM345.756 74.785C345.936 74.785 346.086 74.85 346.206 74.98C346.326 75.1 346.386 75.245 346.386 75.415C346.386 75.515 346.371 75.62 346.341 75.73C346.321 75.84 346.291 75.965 346.251 76.105L345.666 78.145H345.126L345.621 76.03C345.471 75.99 345.351 75.92 345.261 75.82C345.171 75.71 345.126 75.575 345.126 75.415C345.126 75.235 345.186 75.085 345.306 74.965C345.426 74.845 345.576 74.785 345.756 74.785ZM264.105 96.045H258.015L256.68 99H255.855L260.685 88.5H261.45L266.28 99H265.455L264.105 96.045ZM263.82 95.4L261.06 89.34L258.315 95.4H263.82ZM271.771 91.11C272.751 91.11 273.526 91.395 274.096 91.965C274.666 92.535 274.951 93.355 274.951 94.425V99H274.201V94.485C274.201 93.605 273.976 92.935 273.526 92.475C273.086 92.015 272.466 91.785 271.666 91.785C270.746 91.785 270.021 92.06 269.491 92.61C268.961 93.16 268.696 93.9 268.696 94.83V99H267.946V91.17H268.666V92.865C268.936 92.315 269.336 91.885 269.866 91.575C270.406 91.265 271.041 91.11 271.771 91.11ZM280.679 91.11C281.649 91.11 282.394 91.36 282.914 91.86C283.434 92.35 283.694 93.075 283.694 94.035V99H282.974V97.605C282.724 98.065 282.359 98.425 281.879 98.685C281.399 98.935 280.824 99.06 280.154 99.06C279.284 99.06 278.594 98.855 278.084 98.445C277.584 98.035 277.334 97.495 277.334 96.825C277.334 96.175 277.564 95.65 278.024 95.25C278.494 94.84 279.239 94.635 280.259 94.635H282.944V94.005C282.944 93.275 282.744 92.72 282.344 92.34C281.954 91.96 281.379 91.77 280.619 91.77C280.099 91.77 279.599 91.86 279.119 92.04C278.649 92.22 278.249 92.46 277.919 92.76L277.544 92.22C277.934 91.87 278.404 91.6 278.954 91.41C279.504 91.21 280.079 91.11 280.679 91.11ZM280.259 98.445C280.909 98.445 281.459 98.295 281.909 97.995C282.369 97.695 282.714 97.26 282.944 96.69V95.22H280.274C279.504 95.22 278.944 95.36 278.594 95.64C278.254 95.92 278.084 96.305 278.084 96.795C278.084 97.305 278.274 97.71 278.654 98.01C279.034 98.3 279.569 98.445 280.259 98.445ZM288.764 99.06C288.134 99.06 287.534 98.965 286.964 98.775C286.394 98.585 285.949 98.345 285.629 98.055L285.974 97.455C286.294 97.725 286.704 97.95 287.204 98.13C287.714 98.31 288.244 98.4 288.794 98.4C289.584 98.4 290.164 98.27 290.534 98.01C290.914 97.75 291.104 97.39 291.104 96.93C291.104 96.6 290.999 96.34 290.789 96.15C290.589 95.96 290.339 95.82 290.039 95.73C289.739 95.64 289.324 95.545 288.794 95.445C288.174 95.335 287.674 95.215 287.294 95.085C286.914 94.955 286.589 94.745 286.319 94.455C286.049 94.165 285.914 93.765 285.914 93.255C285.914 92.635 286.169 92.125 286.679 91.725C287.199 91.315 287.934 91.11 288.884 91.11C289.384 91.11 289.879 91.18 290.369 91.32C290.859 91.46 291.259 91.645 291.569 91.875L291.224 92.475C290.904 92.245 290.539 92.07 290.129 91.95C289.719 91.83 289.299 91.77 288.869 91.77C288.139 91.77 287.589 91.905 287.219 92.175C286.849 92.445 286.664 92.8 286.664 93.24C286.664 93.59 286.769 93.865 286.979 94.065C287.189 94.255 287.444 94.4 287.744 94.5C288.054 94.59 288.484 94.69 289.034 94.8C289.644 94.91 290.134 95.03 290.504 95.16C290.884 95.28 291.204 95.48 291.464 95.76C291.724 96.04 291.854 96.425 291.854 96.915C291.854 97.565 291.584 98.085 291.044 98.475C290.504 98.865 289.744 99.06 288.764 99.06ZM297.832 98.505C297.642 98.685 297.402 98.825 297.112 98.925C296.832 99.015 296.537 99.06 296.227 99.06C295.547 99.06 295.022 98.875 294.652 98.505C294.282 98.125 294.097 97.6 294.097 96.93V91.815H292.657V91.17H294.097V89.46H294.847V91.17H297.337V91.815H294.847V96.855C294.847 97.365 294.967 97.755 295.207 98.025C295.457 98.285 295.822 98.415 296.302 98.415C296.792 98.415 297.197 98.27 297.517 97.98L297.832 98.505ZM302.563 91.11C303.533 91.11 304.278 91.36 304.798 91.86C305.318 92.35 305.578 93.075 305.578 94.035V99H304.858V97.605C304.608 98.065 304.243 98.425 303.763 98.685C303.283 98.935 302.708 99.06 302.038 99.06C301.168 99.06 300.478 98.855 299.968 98.445C299.468 98.035 299.218 97.495 299.218 96.825C299.218 96.175 299.448 95.65 299.908 95.25C300.378 94.84 301.123 94.635 302.143 94.635H304.828V94.005C304.828 93.275 304.628 92.72 304.228 92.34C303.838 91.96 303.263 91.77 302.503 91.77C301.983 91.77 301.483 91.86 301.003 92.04C300.533 92.22 300.133 92.46 299.803 92.76L299.428 92.22C299.818 91.87 300.288 91.6 300.838 91.41C301.388 91.21 301.963 91.11 302.563 91.11ZM302.143 98.445C302.793 98.445 303.343 98.295 303.793 97.995C304.253 97.695 304.598 97.26 304.828 96.69V95.22H302.158C301.388 95.22 300.828 95.36 300.478 95.64C300.138 95.92 299.968 96.305 299.968 96.795C299.968 97.305 300.158 97.71 300.538 98.01C300.918 98.3 301.453 98.445 302.143 98.445ZM310.649 99.06C310.019 99.06 309.419 98.965 308.849 98.775C308.279 98.585 307.834 98.345 307.514 98.055L307.859 97.455C308.179 97.725 308.589 97.95 309.089 98.13C309.599 98.31 310.129 98.4 310.679 98.4C311.469 98.4 312.049 98.27 312.419 98.01C312.799 97.75 312.989 97.39 312.989 96.93C312.989 96.6 312.884 96.34 312.674 96.15C312.474 95.96 312.224 95.82 311.924 95.73C311.624 95.64 311.209 95.545 310.679 95.445C310.059 95.335 309.559 95.215 309.179 95.085C308.799 94.955 308.474 94.745 308.204 94.455C307.934 94.165 307.799 93.765 307.799 93.255C307.799 92.635 308.054 92.125 308.564 91.725C309.084 91.315 309.819 91.11 310.769 91.11C311.269 91.11 311.764 91.18 312.254 91.32C312.744 91.46 313.144 91.645 313.454 91.875L313.109 92.475C312.789 92.245 312.424 92.07 312.014 91.95C311.604 91.83 311.184 91.77 310.754 91.77C310.024 91.77 309.474 91.905 309.104 92.175C308.734 92.445 308.549 92.8 308.549 93.24C308.549 93.59 308.654 93.865 308.864 94.065C309.074 94.255 309.329 94.4 309.629 94.5C309.939 94.59 310.369 94.69 310.919 94.8C311.529 94.91 312.019 95.03 312.389 95.16C312.769 95.28 313.089 95.48 313.349 95.76C313.609 96.04 313.739 96.425 313.739 96.915C313.739 97.565 313.469 98.085 312.929 98.475C312.389 98.865 311.629 99.06 310.649 99.06ZM315.832 91.17H316.582V99H315.832V91.17ZM316.207 89.265C316.037 89.265 315.892 89.21 315.772 89.1C315.652 88.98 315.592 88.835 315.592 88.665C315.592 88.495 315.652 88.35 315.772 88.23C315.892 88.11 316.037 88.05 316.207 88.05C316.377 88.05 316.522 88.11 316.642 88.23C316.762 88.34 316.822 88.48 316.822 88.65C316.822 88.82 316.762 88.965 316.642 89.085C316.522 89.205 316.377 89.265 316.207 89.265ZM326.028 91.17L322.008 100.065C321.708 100.755 321.358 101.245 320.958 101.535C320.568 101.825 320.103 101.97 319.563 101.97C319.203 101.97 318.863 101.91 318.543 101.79C318.233 101.67 317.968 101.495 317.748 101.265L318.123 100.695C318.523 101.105 319.008 101.31 319.578 101.31C319.958 101.31 320.283 101.205 320.553 100.995C320.823 100.785 321.073 100.425 321.303 99.915L321.723 98.97L318.198 91.17H318.993L322.128 98.175L325.263 91.17H326.028ZM330.073 91.11C331.043 91.11 331.788 91.36 332.308 91.86C332.828 92.35 333.088 93.075 333.088 94.035V99H332.368V97.605C332.118 98.065 331.753 98.425 331.273 98.685C330.793 98.935 330.218 99.06 329.548 99.06C328.678 99.06 327.988 98.855 327.478 98.445C326.978 98.035 326.728 97.495 326.728 96.825C326.728 96.175 326.958 95.65 327.418 95.25C327.888 94.84 328.633 94.635 329.653 94.635H332.338V94.005C332.338 93.275 332.138 92.72 331.738 92.34C331.348 91.96 330.773 91.77 330.013 91.77C329.493 91.77 328.993 91.86 328.513 92.04C328.043 92.22 327.643 92.46 327.313 92.76L326.938 92.22C327.328 91.87 327.798 91.6 328.348 91.41C328.898 91.21 329.473 91.11 330.073 91.11ZM329.653 98.445C330.303 98.445 330.853 98.295 331.303 97.995C331.763 97.695 332.108 97.26 332.338 96.69V95.22H329.668C328.898 95.22 328.338 95.36 327.988 95.64C327.648 95.92 327.478 96.305 327.478 96.795C327.478 97.305 327.668 97.71 328.048 98.01C328.428 98.3 328.963 98.445 329.653 98.445ZM336.043 88.5H336.913L336.763 95.985H336.193L336.043 88.5ZM336.478 99.06C336.308 99.06 336.163 99 336.043 98.88C335.923 98.76 335.863 98.615 335.863 98.445C335.863 98.275 335.923 98.13 336.043 98.01C336.163 97.89 336.308 97.83 336.478 97.83C336.658 97.83 336.808 97.89 336.928 98.01C337.048 98.13 337.108 98.275 337.108 98.445C337.108 98.615 337.048 98.76 336.928 98.88C336.808 99 336.658 99.06 336.478 99.06ZM237.354 112.19H233.574V111.5H241.899V112.19H238.119V122H237.354V112.19ZM247.381 114.11C248.361 114.11 249.136 114.395 249.706 114.965C250.276 115.535 250.561 116.355 250.561 117.425V122H249.811V117.485C249.811 116.605 249.586 115.935 249.136 115.475C248.696 115.015 248.076 114.785 247.276 114.785C246.356 114.785 245.631 115.06 245.101 115.61C244.571 116.16 244.306 116.9 244.306 117.83V122H243.556V110.87H244.306V115.805C244.576 115.265 244.976 114.85 245.506 114.56C246.036 114.26 246.661 114.11 247.381 114.11ZM256.289 114.11C257.259 114.11 258.004 114.36 258.524 114.86C259.044 115.35 259.304 116.075 259.304 117.035V122H258.584V120.605C258.334 121.065 257.969 121.425 257.489 121.685C257.009 121.935 256.434 122.06 255.764 122.06C254.894 122.06 254.204 121.855 253.694 121.445C253.194 121.035 252.944 120.495 252.944 119.825C252.944 119.175 253.174 118.65 253.634 118.25C254.104 117.84 254.849 117.635 255.869 117.635H258.554V117.005C258.554 116.275 258.354 115.72 257.954 115.34C257.564 114.96 256.989 114.77 256.229 114.77C255.709 114.77 255.209 114.86 254.729 115.04C254.259 115.22 253.859 115.46 253.529 115.76L253.154 115.22C253.544 114.87 254.014 114.6 254.564 114.41C255.114 114.21 255.689 114.11 256.289 114.11ZM255.869 121.445C256.519 121.445 257.069 121.295 257.519 120.995C257.979 120.695 258.324 120.26 258.554 119.69V118.22H255.884C255.114 118.22 254.554 118.36 254.204 118.64C253.864 118.92 253.694 119.305 253.694 119.795C253.694 120.305 253.884 120.71 254.264 121.01C254.644 121.3 255.179 121.445 255.869 121.445ZM266.219 114.11C267.199 114.11 267.974 114.395 268.544 114.965C269.114 115.535 269.399 116.355 269.399 117.425V122H268.649V117.485C268.649 116.605 268.424 115.935 267.974 115.475C267.534 115.015 266.914 114.785 266.114 114.785C265.194 114.785 264.469 115.06 263.939 115.61C263.409 116.16 263.144 116.9 263.144 117.83V122H262.394V114.17H263.114V115.865C263.384 115.315 263.784 114.885 264.314 114.575C264.854 114.265 265.489 114.11 266.219 114.11ZM275.277 117.815L273.237 119.675V122H272.487V110.87H273.237V118.745L278.247 114.17H279.207L275.832 117.335L279.537 122H278.607L275.277 117.815ZM283.051 122.06C282.421 122.06 281.821 121.965 281.251 121.775C280.681 121.585 280.236 121.345 279.916 121.055L280.261 120.455C280.581 120.725 280.991 120.95 281.491 121.13C282.001 121.31 282.531 121.4 283.081 121.4C283.871 121.4 284.451 121.27 284.821 121.01C285.201 120.75 285.391 120.39 285.391 119.93C285.391 119.6 285.286 119.34 285.076 119.15C284.876 118.96 284.626 118.82 284.326 118.73C284.026 118.64 283.611 118.545 283.081 118.445C282.461 118.335 281.961 118.215 281.581 118.085C281.201 117.955 280.876 117.745 280.606 117.455C280.336 117.165 280.201 116.765 280.201 116.255C280.201 115.635 280.456 115.125 280.966 114.725C281.486 114.315 282.221 114.11 283.171 114.11C283.671 114.11 284.166 114.18 284.656 114.32C285.146 114.46 285.546 114.645 285.856 114.875L285.511 115.475C285.191 115.245 284.826 115.07 284.416 114.95C284.006 114.83 283.586 114.77 283.156 114.77C282.426 114.77 281.876 114.905 281.506 115.175C281.136 115.445 280.951 115.8 280.951 116.24C280.951 116.59 281.056 116.865 281.266 117.065C281.476 117.255 281.731 117.4 282.031 117.5C282.341 117.59 282.771 117.69 283.321 117.8C283.931 117.91 284.421 118.03 284.791 118.16C285.171 118.28 285.491 118.48 285.751 118.76C286.011 119.04 286.141 119.425 286.141 119.915C286.141 120.565 285.871 121.085 285.331 121.475C284.791 121.865 284.031 122.06 283.051 122.06ZM288.099 111.5H288.969L288.819 118.985H288.249L288.099 111.5ZM288.534 122.06C288.364 122.06 288.219 122 288.099 121.88C287.979 121.76 287.919 121.615 287.919 121.445C287.919 121.275 287.979 121.13 288.099 121.01C288.219 120.89 288.364 120.83 288.534 120.83C288.714 120.83 288.864 120.89 288.984 121.01C289.104 121.13 289.164 121.275 289.164 121.445C289.164 121.615 289.104 121.76 288.984 121.88C288.864 122 288.714 122.06 288.534 122.06ZM302.601 119.045H296.511L295.176 122H294.351L299.181 111.5H299.946L304.776 122H303.951L302.601 119.045ZM302.316 118.4L299.556 112.34L296.811 118.4H302.316ZM310.267 114.11C311.247 114.11 312.022 114.395 312.592 114.965C313.162 115.535 313.447 116.355 313.447 117.425V122H312.697V117.485C312.697 116.605 312.472 115.935 312.022 115.475C311.582 115.015 310.962 114.785 310.162 114.785C309.242 114.785 308.517 115.06 307.987 115.61C307.457 116.16 307.192 116.9 307.192 117.83V122H306.442V114.17H307.162V115.865C307.432 115.315 307.832 114.885 308.362 114.575C308.902 114.265 309.537 114.11 310.267 114.11ZM323.509 110.87V122H322.774V120.155C322.464 120.765 322.029 121.235 321.469 121.565C320.909 121.895 320.274 122.06 319.564 122.06C318.834 122.06 318.174 121.89 317.584 121.55C316.994 121.21 316.529 120.74 316.189 120.14C315.859 119.54 315.694 118.855 315.694 118.085C315.694 117.315 315.859 116.63 316.189 116.03C316.529 115.42 316.994 114.95 317.584 114.62C318.174 114.28 318.834 114.11 319.564 114.11C320.264 114.11 320.889 114.275 321.439 114.605C321.999 114.935 322.439 115.395 322.759 115.985V110.87H323.509ZM319.609 121.385C320.209 121.385 320.744 121.245 321.214 120.965C321.694 120.685 322.069 120.295 322.339 119.795C322.619 119.295 322.759 118.725 322.759 118.085C322.759 117.445 322.619 116.875 322.339 116.375C322.069 115.875 321.694 115.485 321.214 115.205C320.744 114.925 320.209 114.785 319.609 114.785C319.009 114.785 318.469 114.925 317.989 115.205C317.519 115.485 317.144 115.875 316.864 116.375C316.594 116.875 316.459 117.445 316.459 118.085C316.459 118.725 316.594 119.295 316.864 119.795C317.144 120.295 317.519 120.685 317.989 120.965C318.469 121.245 319.009 121.385 319.609 121.385ZM336.809 114.17L332.789 123.065C332.489 123.755 332.139 124.245 331.739 124.535C331.349 124.825 330.884 124.97 330.344 124.97C329.984 124.97 329.644 124.91 329.324 124.79C329.014 124.67 328.749 124.495 328.529 124.265L328.904 123.695C329.304 124.105 329.789 124.31 330.359 124.31C330.739 124.31 331.064 124.205 331.334 123.995C331.604 123.785 331.854 123.425 332.084 122.915L332.504 121.97L328.979 114.17H329.774L332.909 121.175L336.044 114.17H336.809ZM341.289 122.06C340.549 122.06 339.879 121.89 339.279 121.55C338.689 121.21 338.224 120.74 337.884 120.14C337.544 119.53 337.374 118.845 337.374 118.085C337.374 117.325 337.544 116.645 337.884 116.045C338.224 115.435 338.689 114.96 339.279 114.62C339.879 114.28 340.549 114.11 341.289 114.11C342.029 114.11 342.694 114.28 343.284 114.62C343.884 114.96 344.354 115.435 344.694 116.045C345.034 116.645 345.204 117.325 345.204 118.085C345.204 118.845 345.034 119.53 344.694 120.14C344.354 120.74 343.884 121.21 343.284 121.55C342.694 121.89 342.029 122.06 341.289 122.06ZM341.289 121.385C341.889 121.385 342.424 121.245 342.894 120.965C343.374 120.685 343.749 120.295 344.019 119.795C344.299 119.295 344.439 118.725 344.439 118.085C344.439 117.445 344.299 116.875 344.019 116.375C343.749 115.875 343.374 115.485 342.894 115.205C342.424 114.925 341.889 114.785 341.289 114.785C340.689 114.785 340.149 114.925 339.669 115.205C339.199 115.485 338.824 115.875 338.544 116.375C338.274 116.875 338.139 117.445 338.139 118.085C338.139 118.725 338.274 119.295 338.544 119.795C338.824 120.295 339.199 120.685 339.669 120.965C340.149 121.245 340.689 121.385 341.289 121.385ZM354.386 114.17V122H353.666V120.32C353.406 120.87 353.021 121.3 352.511 121.61C352.001 121.91 351.401 122.06 350.711 122.06C349.691 122.06 348.891 121.775 348.311 121.205C347.731 120.635 347.441 119.815 347.441 118.745V114.17H348.191V118.685C348.191 119.565 348.416 120.235 348.866 120.695C349.316 121.155 349.951 121.385 350.771 121.385C351.651 121.385 352.346 121.11 352.856 120.56C353.376 120.01 353.636 119.27 353.636 118.34V114.17H354.386ZM359.678 118.985C359.678 118.565 359.748 118.2 359.888 117.89C360.028 117.57 360.193 117.3 360.383 117.08C360.583 116.86 360.848 116.605 361.178 116.315C361.628 115.915 361.958 115.565 362.168 115.265C362.388 114.955 362.498 114.565 362.498 114.095C362.498 113.505 362.268 113.025 361.808 112.655C361.348 112.285 360.703 112.1 359.873 112.1C359.203 112.1 358.623 112.205 358.133 112.415C357.643 112.615 357.218 112.925 356.858 113.345L356.303 112.91C357.133 111.92 358.338 111.425 359.918 111.425C360.938 111.425 361.753 111.66 362.363 112.13C362.973 112.59 363.278 113.21 363.278 113.99C363.278 114.41 363.208 114.78 363.068 115.1C362.938 115.41 362.773 115.68 362.573 115.91C362.383 116.13 362.123 116.385 361.793 116.675C361.483 116.955 361.243 117.19 361.073 117.38C360.903 117.57 360.758 117.8 360.638 118.07C360.518 118.33 360.458 118.635 360.458 118.985H359.678ZM360.068 122.06C359.898 122.06 359.753 122 359.633 121.88C359.513 121.76 359.453 121.615 359.453 121.445C359.453 121.275 359.513 121.13 359.633 121.01C359.753 120.89 359.898 120.83 360.068 120.83C360.248 120.83 360.398 120.89 360.518 121.01C360.638 121.13 360.698 121.275 360.698 121.445C360.698 121.615 360.638 121.76 360.518 121.88C360.398 122 360.248 122.06 360.068 122.06Z" fill="black"/>
<path d="M453.995 252.547L438.359 268.088L440.526 269.98L455.655 254.48C455.879 254.227 456.004 253.89 456.004 253.541C456.004 253.191 455.879 252.855 455.655 252.602C455.43 252.38 455.139 252.252 454.834 252.242C454.529 252.232 454.231 252.34 453.995 252.547Z" fill="#407BFF"/>
<path d="M431.986 265.19L441.172 260.699C441.172 260.699 448.863 259.161 452.031 259.923C455.198 260.685 462.231 270.933 462.066 272.171C461.901 273.409 449.889 276.485 449.623 276.485C449.357 276.485 444.162 273.314 444.162 273.314L435.66 276.485L431.986 265.19Z" fill="#E4897B"/>
<path d="M352.428 480.3L362.513 478.817L363.92 453.042L353.834 454.539L352.428 480.3Z" fill="#EBB376"/>
<path opacity="0.2" d="M353.834 454.539L363.92 453.056L363.109 467.794L353.049 468.733L353.834 454.539Z" fill="black"/>
<path d="M352.833 328.81L350.299 312.248L293.712 308.615C293.712 308.615 287.694 343.085 292.319 352.271C300.58 368.669 345.053 360.436 358.066 362.015C350.286 396.186 351.047 462.963 351.047 462.963L369.634 464.487C369.634 464.487 383.939 392.525 386.828 358.34C388.843 335.26 371.053 335.845 352.833 328.81Z" fill="#407BFF"/>
<path d="M348.931 463.902L371.269 465.48L373.182 455.206L348.639 453.981L348.931 463.902Z" fill="#407BFF"/>
<path opacity="0.2" d="M348.931 463.902L371.269 465.48L373.182 455.206L348.639 453.981L348.931 463.902Z" fill="white"/>
<path d="M363.274 477.51L351.87 476.748C351.777 476.737 351.682 476.746 351.592 476.774C351.502 476.802 351.418 476.849 351.345 476.912C351.272 476.976 351.211 477.054 351.167 477.142C351.122 477.231 351.094 477.328 351.085 477.429L349.97 487.091C349.941 487.598 350.099 488.097 350.41 488.481C350.72 488.865 351.158 489.104 351.629 489.146C355.621 489.336 357.521 489.214 362.551 489.513C367 490.008 371.475 490.163 375.944 489.976C380.201 489.527 379.682 485.036 377.845 484.818C373.486 484.287 367.708 480.844 364.997 478.245C364.516 477.799 363.909 477.54 363.274 477.51Z" fill="#263238"/>
<path d="M375.703 480.205L385.865 481.008L392.239 456.118L382.089 455.328L375.703 480.205Z" fill="#EBB376"/>
<path d="M387.234 481.498C387.234 481.498 387.234 481.498 387.234 481.579H387.322C388.126 482.058 388.976 482.441 389.856 482.722C390.493 482.98 391.196 482.98 391.833 482.722C392.042 482.594 392.213 482.404 392.325 482.175C392.437 481.946 392.486 481.687 392.467 481.43C392.479 481.267 392.455 481.105 392.395 480.955C392.335 480.806 392.242 480.674 392.124 480.572C391.214 480.18 390.202 480.151 389.274 480.491C390 479.96 390.532 479.177 390.781 478.272C390.796 478.058 390.743 477.844 390.63 477.666C390.517 477.488 390.352 477.357 390.161 477.293C390.003 477.209 389.83 477.165 389.654 477.165C389.478 477.165 389.304 477.209 389.147 477.293C387.88 478.014 387.424 481.076 387.386 481.239C387.331 481.246 387.276 481.246 387.221 481.239C387.192 481.276 387.178 481.323 387.18 481.371C387.182 481.419 387.202 481.464 387.234 481.498ZM387.981 480.885L387.753 480.967C387.994 479.96 388.513 478.313 389.248 477.891C389.329 477.838 389.419 477.803 389.513 477.789C389.607 477.775 389.702 477.782 389.793 477.81H389.907C390.224 477.946 390.262 478.15 390.237 478.3C390.211 479.021 389.033 480.3 388.032 480.885H387.981ZM387.981 481.457C389.324 481.008 391.187 480.627 391.782 481.076C391.844 481.123 391.891 481.187 391.92 481.262C391.95 481.336 391.959 481.418 391.947 481.498C391.96 481.66 391.931 481.823 391.864 481.969C391.797 482.115 391.695 482.239 391.567 482.328C391.035 482.668 389.768 482.341 388.07 481.457H387.981Z" fill="#407BFF"/>
<path opacity="0.2" d="M382.089 455.328L392.226 456.131L388.589 470.352L378.554 469.032L382.089 455.328Z" fill="black"/>
<path d="M395.672 468.597L377.781 462.949C377.781 462.949 388.463 398.2 399.321 375.746C398.51 375.46 397.433 375.092 396.103 374.67C393.708 373.895 390.528 372.929 386.79 371.813C360.79 364.069 308.093 349.549 308.093 349.549L332.167 325.421C332.167 325.421 428.058 341.125 430.047 368.261C430.972 381.311 395.672 468.597 395.672 468.597Z" fill="#407BFF"/>
<path d="M375.475 463.385L397.015 469.917L400.88 460.296L377.11 453.614L375.475 463.385Z" fill="#407BFF"/>
<path opacity="0.2" d="M375.475 463.385L397.015 469.917L400.88 460.296L377.11 453.614L375.475 463.385Z" fill="white"/>
<path d="M386.866 479.905L375.83 476.598C375.647 476.538 375.449 476.557 375.279 476.651C375.108 476.745 374.979 476.907 374.918 477.102L372.029 486.315C371.966 486.56 371.949 486.816 371.978 487.068C372.008 487.32 372.084 487.563 372.202 487.783C372.32 488.004 372.477 488.197 372.665 488.351C372.853 488.505 373.067 488.618 373.296 488.683C377.097 489.772 379.048 490.044 383.901 491.486C388.158 492.965 392.506 494.12 396.914 494.943C401.159 495.46 401.526 490.942 399.765 490.316C395.609 488.819 390.642 484.178 388.488 481.008C388.079 480.453 387.508 480.065 386.866 479.905Z" fill="#263238"/>
<path d="M363.527 478.844H363.73C363.73 478.844 363.958 478.926 363.996 478.953C364.034 478.98 363.996 478.953 363.996 478.953H364.085C364.946 479.24 365.834 479.427 366.733 479.511C367.404 479.645 368.097 479.499 368.671 479.102C368.843 478.934 368.968 478.717 369.033 478.477C369.098 478.237 369.1 477.983 369.039 477.742C369.019 477.58 368.963 477.425 368.874 477.292C368.786 477.159 368.668 477.052 368.532 476.98C367.541 476.839 366.535 477.08 365.694 477.66C366.3 476.989 366.656 476.103 366.695 475.17C366.656 474.949 366.551 474.748 366.395 474.597C366.239 474.447 366.042 474.357 365.833 474.339C365.637 474.303 365.436 474.31 365.242 474.359C365.048 474.408 364.866 474.499 364.705 474.625C363.641 475.605 363.438 478.708 363.438 478.885L363.527 478.844ZM364.617 478.218L364.401 478.34C364.35 477.154 364.651 475.982 365.263 474.993C365.332 474.923 365.414 474.869 365.503 474.834C365.593 474.799 365.688 474.784 365.782 474.789H365.896C366.239 474.789 366.315 475.034 366.327 475.183C366.102 476.377 365.497 477.45 364.617 478.218ZM364.756 478.749C366.023 478.027 367.734 477.225 368.38 477.551C368.447 477.583 368.505 477.634 368.548 477.699C368.59 477.764 368.615 477.84 368.621 477.919C368.66 478.075 368.661 478.241 368.623 478.398C368.586 478.556 368.51 478.7 368.405 478.817C367.898 479.293 366.555 479.252 364.756 478.749Z" fill="#407BFF"/>
<path d="M394.19 201.57C393.949 202.141 393.683 202.713 393.404 203.244C391.779 206.359 389.315 208.873 386.334 210.456C385.582 210.859 384.803 211.2 384.003 211.477C380.926 212.597 377.591 212.6 374.512 211.487C371.433 210.373 368.78 208.203 366.961 205.312C362.108 197.909 363.426 190.629 364.718 178.095C364.975 175.167 365.924 172.359 367.477 169.937C369.03 167.515 371.134 165.561 373.589 164.259C376.044 162.958 378.769 162.353 381.503 162.502C384.237 162.652 386.891 163.55 389.21 165.112C399.79 172.148 398.447 190.873 394.19 201.57Z" fill="#E4897B"/>
<path opacity="0.2" d="M386.334 210.456C385.582 210.859 384.803 211.2 384.003 211.477C381.896 212.225 379.66 212.461 377.457 212.167C375.255 211.872 373.141 211.056 371.269 209.776C372.02 208.381 372.936 207.095 373.993 205.952C378.424 206.15 382.708 207.713 386.334 210.456Z" fill="black"/>
<path d="M355.798 213.777C357.8 221.86 370.711 228.338 370.711 228.338C370.711 228.338 379.416 231.304 379.353 227.739C375.463 223.942 374.664 220.295 375.475 216.852C376.047 214.789 376.99 212.865 378.25 211.191C378.927 210.243 379.65 209.335 380.417 208.469L372.815 186.628C370.065 195.704 363.895 211.49 355.798 213.777Z" fill="#E4897B"/>
<path d="M392.543 174.189C392.543 174.189 395.812 186.015 384.522 194.507C384.522 194.507 379.783 205.394 377.135 206.755C374.487 208.115 368.507 207.299 366.492 206.755C364.477 206.21 354.049 196.929 357.065 175.101C360.081 153.273 377.135 160.132 377.135 160.132C377.135 160.132 382.964 154.688 393.797 161.493C402.844 167.127 401.07 177.66 392.543 174.189Z" fill="#263238"/>
<path d="M382.989 188.846C383.029 190.05 383.317 191.23 383.832 192.3C384.347 193.371 385.076 194.306 385.967 195.038C388.146 196.535 390.249 193.269 390.49 189.485C390.693 186.124 389.831 181.184 387.221 181.32C384.611 181.456 382.698 185.362 382.989 188.846Z" fill="#E4897B"/>
<path d="M393.936 229.563C393.936 229.563 377.921 210.293 356.52 212.28C335.12 214.267 313.744 232.026 303.013 259.923C292.281 287.821 289.138 329.994 289.138 329.994C289.138 329.994 323.767 340.649 358.978 330.933C366.333 295.608 378.092 261.51 393.936 229.563Z" fill="#263238"/>
<path d="M393.936 229.563C399.347 235.591 414.792 263.23 419.189 264.264C423.585 265.299 429.984 261.053 434.989 262.672C439.994 264.292 445.125 269.191 443.985 272.334C442.845 275.478 431.061 283.847 416.452 284.296C403.946 284.691 377.591 251.241 377.591 251.241C377.591 238.313 393.936 229.563 393.936 229.563Z" fill="#263238"/>
<path d="M394.608 206.632V205.271C394.908 205.261 395.203 205.186 395.476 205.051C395.749 204.916 395.993 204.723 396.195 204.485C396.397 204.246 396.553 203.966 396.652 203.662C396.752 203.358 396.793 203.035 396.775 202.713C396.775 200.685 392.086 196.303 389.172 194.017L389.907 192.915C390.743 193.554 398.105 199.338 398.092 202.713C398.113 203.219 398.038 203.723 397.872 204.197C397.706 204.671 397.453 205.104 397.128 205.47C396.802 205.836 396.411 206.128 395.978 206.327C395.545 206.527 395.079 206.631 394.608 206.632Z" fill="#263238"/>
<path d="M393.873 188.37C393.873 194.003 390.807 198.576 387.044 198.576C383.28 198.576 380.214 194.003 380.214 188.37C380.214 182.736 383.268 178.177 387.044 178.177C390.819 178.177 393.873 182.736 393.873 188.37Z" fill="#407BFF"/>
<path opacity="0.2" d="M393.873 188.37C393.873 194.003 390.807 198.576 387.044 198.576C383.28 198.576 380.214 194.003 380.214 188.37C380.214 182.736 383.268 178.177 387.044 178.177C390.819 178.177 393.873 182.736 393.873 188.37Z" fill="black"/>
<path d="M389.438 195.092C391.923 195.092 393.936 192.082 393.936 188.37C393.936 184.657 391.923 181.647 389.438 181.647C386.954 181.647 384.94 184.657 384.94 188.37C384.94 192.082 386.954 195.092 389.438 195.092Z" fill="#407BFF"/>
<path d="M391.58 183.498C391.58 183.498 391.934 154.076 371.307 159.152C371.307 159.152 386.727 161.152 387.778 184.301L391.58 183.498Z" fill="#407BFF"/>
<path d="M394.941 204.867L393.893 205.061C393.541 205.127 393.305 205.486 393.366 205.864L393.465 206.48C393.526 206.858 393.861 207.111 394.212 207.046L395.261 206.851C395.613 206.786 395.848 206.427 395.788 206.049L395.688 205.432C395.628 205.055 395.293 204.801 394.941 204.867Z" fill="#263238"/>
<path d="M280.041 356.789H364.832C366.512 356.789 368.124 357.506 369.312 358.782C370.5 360.058 371.167 361.789 371.167 363.593V372.697H273.706V363.593C273.706 361.789 274.373 360.058 275.561 358.782C276.749 357.506 278.361 356.789 280.041 356.789Z" fill="#407BFF"/>
<path opacity="0.3" d="M280.041 356.789H364.832C366.512 356.789 368.124 357.506 369.312 358.782C370.5 360.058 371.167 361.789 371.167 363.593V372.697H273.706V363.593C273.706 361.789 274.373 360.058 275.561 358.782C276.749 357.506 278.361 356.789 280.041 356.789Z" fill="black"/>
<path d="M263.696 295.863H298.54C308.743 295.863 317.014 286.98 317.014 276.022V261.379C317.014 250.421 308.743 241.538 298.54 241.538H263.696C253.493 241.538 245.222 250.421 245.222 261.379V276.022C245.222 286.98 253.493 295.863 263.696 295.863Z" fill="#407BFF"/>
<g opacity="0.3">
<path opacity="0.3" d="M263.696 295.863H298.54C308.743 295.863 317.014 286.98 317.014 276.022V261.379C317.014 250.421 308.743 241.538 298.54 241.538H263.696C253.493 241.538 245.222 250.421 245.222 261.379V276.022C245.222 286.98 253.493 295.863 263.696 295.863Z" fill="black"/>
</g>
<path d="M277.418 463.262L313.935 459.411V404.31H328.404V459.397L365.048 463.262C366.805 463.445 368.437 464.323 369.624 465.727C370.812 467.131 371.47 468.959 371.471 470.856V476.748H271.007V470.856C271.008 468.961 271.664 467.135 272.849 465.731C274.034 464.328 275.663 463.448 277.418 463.262Z" fill="#263238"/>
<path opacity="0.2" d="M277.418 463.262L313.935 459.411V404.31H328.404V459.397L365.048 463.262C366.805 463.445 368.437 464.323 369.624 465.727C370.812 467.131 371.47 468.959 371.471 470.856V476.748H271.007V470.856C271.008 468.961 271.664 467.135 272.849 465.731C274.034 464.328 275.663 463.448 277.418 463.262Z" fill="white"/>
<path d="M369.15 494.075C374.309 493.176 377.813 487.954 376.976 482.412C376.138 476.87 371.276 473.107 366.117 474.007C360.957 474.906 357.453 480.128 358.291 485.67C359.128 491.212 363.99 494.975 369.15 494.075Z" fill="#263238"/>
<path d="M281.572 491.246C285.268 487.276 285.268 480.84 281.572 476.87C277.876 472.9 271.883 472.9 268.186 476.87C264.49 480.84 264.49 487.276 268.186 491.246C271.883 495.216 277.876 495.216 281.572 491.246Z" fill="#263238"/>
<path d="M325.655 416.149H316.671C315.284 416.149 313.953 415.557 312.971 414.503C311.99 413.449 311.438 412.02 311.438 410.529V367.063H330.888V410.515C330.889 411.255 330.755 411.987 330.493 412.67C330.231 413.354 329.846 413.975 329.36 414.498C328.873 415.022 328.296 415.437 327.66 415.72C327.025 416.004 326.343 416.149 325.655 416.149Z" fill="#263238"/>
<path opacity="0.3" d="M325.655 416.149H316.671C315.284 416.149 313.953 415.557 312.971 414.503C311.99 413.449 311.438 412.02 311.438 410.529V367.063H330.888V410.515C330.889 411.255 330.755 411.987 330.493 412.67C330.231 413.354 329.846 413.975 329.36 414.498C328.873 415.022 328.296 415.437 327.66 415.72C327.025 416.004 326.343 416.149 325.655 416.149Z" fill="white"/>
<path d="M286.579 280.935C286.579 280.935 283.817 354.421 302.861 367.063H281.118C281.118 367.063 264.266 342.037 269.03 280.935H286.579Z" fill="#263238"/>
<path opacity="0.3" d="M286.579 280.935C286.579 280.935 283.817 354.421 302.861 367.063H281.118C281.118 367.063 264.266 342.037 269.03 280.935H286.579Z" fill="white"/>
<path d="M372.688 364.75H272.198C270.791 364.75 269.651 365.974 269.651 367.485V369.962C269.651 371.473 270.791 372.697 272.198 372.697H372.688C374.094 372.697 375.235 371.473 375.235 369.962V367.485C375.235 365.974 374.094 364.75 372.688 364.75Z" fill="#263238"/>
<path opacity="0.6" d="M372.688 364.75H272.198C270.791 364.75 269.651 365.974 269.651 367.485V369.962C269.651 371.473 270.791 372.697 272.198 372.697H372.688C374.094 372.697 375.235 371.473 375.235 369.962V367.485C375.235 365.974 374.094 364.75 372.688 364.75Z" fill="white"/>
<path d="M286.858 258.045H267.18C261.414 258.045 256.74 263.066 256.74 269.259V277.519C256.74 283.712 261.414 288.732 267.18 288.732H286.858C292.624 288.732 297.298 283.712 297.298 277.519V269.259C297.298 263.066 292.624 258.045 286.858 258.045Z" fill="#263238"/>
<path opacity="0.2" d="M286.858 258.045H267.18C261.414 258.045 256.74 263.066 256.74 269.259V277.519C256.74 283.712 261.414 288.732 267.18 288.732H286.858C292.624 288.732 297.298 283.712 297.298 277.519V269.259C297.298 263.066 292.624 258.045 286.858 258.045Z" fill="white"/>
</svg>
