<svg width="348" height="316" viewBox="0 0 348 316" fill="none" xmlns="http://www.w3.org/2000/svg">
<path fill-rule="evenodd" clip-rule="evenodd" d="M172.083 21.4778C204.129 25.6757 237.024 19.5964 266.043 32.6146C298.976 47.3881 333.527 67.2719 344.821 98.9676C356.111 130.649 334.528 162.687 323.732 194.51C312.722 226.963 309.391 263.655 281.324 286.139C252.11 309.54 211.067 316.331 172.083 315.988C133.383 315.647 92.5535 308.277 64.372 284.231C37.5545 261.349 38.2989 224.348 27.3316 192.478C16.5378 161.112 -4.23081 131.929 0.76209 99.3849C6.30652 63.2464 20.1005 21.4704 56.078 5.1099C91.9347 -11.1957 132.38 16.2768 172.083 21.4778Z" fill="#DAE5D0" fill-opacity="0.95"/>
</svg>
