<svg width="375" height="393" viewBox="0 0 375 393" fill="none" xmlns="http://www.w3.org/2000/svg">
<path fill-rule="evenodd" clip-rule="evenodd" d="M348.786 182.417C359.438 220.389 387.221 261.711 367.613 296.225C348.043 330.672 295.556 324.368 258.892 340.645C221.531 357.232 191.977 394.238 151.071 392.363C108.02 390.388 63.1093 367.422 42.0379 330.7C21.7603 295.362 53.9965 252.054 47.5586 211.969C40.3951 167.365 -9.82096 130.813 2.95396 87.3431C15.8221 43.5564 63.7444 14.4054 108.883 3.30075C151.135 -7.09393 193.673 12.6844 233.012 30.7453C264.962 45.4137 290.422 68.6785 311.536 96.3395C331.059 121.915 340.14 151.602 348.786 182.417Z" fill="#F9EBC8" fill-opacity="0.95"/>
</svg>
