<svg width="52" height="51" viewBox="0 0 52 51" fill="none" xmlns="http://www.w3.org/2000/svg">
<g clip-path="url(#clip0_532_3240)">
<path d="M33.1354 27.467C29.9791 28.085 28.235 27.876 27.4811 26.7895C26.5089 25.3885 27.7502 23.368 28.9505 21.414C29.4157 20.6569 30.167 19.4341 30.2525 18.9188C29.604 18.8209 27.7008 19.0785 26.5261 19.2376C22.9248 19.7255 21.0206 19.9222 20.5011 18.6794C20.0777 17.667 21.0385 16.6508 22.6114 15.4363C25.8569 12.9303 26.1038 11.9469 26.121 11.7816C25.9834 11.6852 25.0317 11.1823 21.0851 11.9639C18.3105 12.5132 14.9468 13.5378 12.0871 14.7044C11.6499 14.8828 11.152 14.673 10.9739 14.2364C10.7958 13.7997 11.0054 13.3012 11.442 13.1231C14.4912 11.8792 18.0582 10.8029 20.9839 10.2438C26.016 9.28236 27.1778 10.1778 27.6138 10.9351C28.3847 12.2739 27.1638 14.0789 23.6552 16.7882C22.9815 17.3084 22.5987 17.6685 22.382 17.9052C23.2945 17.9522 25.1182 17.7049 26.2969 17.5453C29.0559 17.1717 30.5316 17 31.2959 17.5072C31.7969 17.8399 32.2751 18.5324 31.7073 19.9439C31.4214 20.6543 30.928 21.4575 30.4057 22.3079C29.9037 23.125 29.3847 23.9698 29.0842 24.6899C28.8123 25.342 28.8065 25.704 28.8841 25.8158C28.9025 25.8427 29.3781 26.4623 32.8069 25.7911C35.0838 25.3447 36.5937 25.4591 37.4225 26.1413C37.8628 26.5037 38.0957 27.0082 38.0957 27.6006C38.0957 28.0722 37.7134 28.4545 37.2418 28.4545C36.7702 28.4545 36.3879 28.0722 36.3879 27.6006C36.3879 27.5015 36.3655 27.4831 36.3373 27.4599C36.2751 27.4086 35.6559 26.9731 33.1354 27.467ZM43.4032 35.9145C42.9316 35.9145 42.5493 36.2968 42.5493 36.7684C42.5493 37.24 42.9316 37.6223 43.4032 37.6223H46.3145C46.7861 37.6223 47.1684 37.24 47.1684 36.7684V4.98926C47.1684 4.51767 46.7861 4.13538 46.3145 4.13538H5.68529C5.2137 4.13538 4.8314 4.51767 4.8314 4.98926V36.7684C4.8314 37.24 5.2137 37.6223 5.68529 37.6223H30.8365C31.3081 37.6223 31.6904 37.24 31.6904 36.7684C31.6904 36.2968 31.3081 35.9145 30.8365 35.9145H6.53918V5.84315H45.4606V35.9145H43.4032ZM41.0544 34.0685V48.9429C41.0544 50.0772 40.1316 51 38.9971 51H35.2424C34.1079 51 33.1851 50.0772 33.1851 48.9429V34.0685C33.1851 32.2705 34.6478 30.8078 36.4458 30.8078H37.7939C39.5917 30.8078 41.0544 32.2705 41.0544 34.0685ZM39.3466 34.0685C39.3466 33.2121 38.65 32.5155 37.7939 32.5155H36.4458C35.5894 32.5155 34.8929 33.2122 34.8929 34.0685V48.9429C34.8929 49.1323 35.053 49.2922 35.2424 49.2922H38.9971C39.1866 49.2922 39.3466 49.1322 39.3466 48.9429V34.0685ZM50.6461 0H1.35389C0.882298 0 0.5 0.382298 0.5 0.853887V40.9039C0.5 41.3755 0.882298 41.7578 1.35389 41.7578H30.8364C31.308 41.7578 31.6903 41.3755 31.6903 40.9039C31.6903 40.4323 31.308 40.05 30.8364 40.05H2.20777V1.70777H49.7922V40.05H43.4032C42.9316 40.05 42.5493 40.4323 42.5493 40.9039C42.5493 41.3755 42.9316 41.7578 43.4032 41.7578H50.6461C51.1177 41.7578 51.5 41.3755 51.5 40.9039V0.853887C51.5 0.382298 51.1177 0 50.6461 0Z" fill="#A0BCC2"/>
</g>
<defs>
<clipPath id="clip0_532_3240">
<rect width="51" height="51" fill="white" transform="translate(0.5)"/>
</clipPath>
</defs>
</svg>
