<svg width="1920" height="868" viewBox="0 0 1920 868" fill="none" xmlns="http://www.w3.org/2000/svg">
<path fill-rule="evenodd" clip-rule="evenodd" d="M-415.68 197.273C-377.898 96.8404 -130.899 61.7956 29.5561 -4.76105C159.436 -58.6351 257.991 -128.495 421.083 -149.816C632.527 -177.458 880.653 -204.094 1046.6 -137.719C1217.22 -69.4763 1220.33 56.1778 1210.21 165.817C1200.75 268.323 1164.02 383.609 992.83 444.822C833.606 501.755 626.721 437.988 432.569 443.878C228.981 450.054 20.2782 529.845 -152.648 479.572C-340.87 424.852 -456.139 304.821 -415.68 197.273Z" fill="#FEFBE7"/>
<path fill-rule="evenodd" clip-rule="evenodd" d="M2052.72 755.444C2096.13 831.749 2074.84 927.507 1953.02 986.842C1833.94 1044.85 1649.77 1021.56 1487.43 1030.8C1319.32 1040.36 1140.71 1082.2 1002.1 1040.94C849.788 995.6 757.227 906.668 768.103 816.662C778.435 731.151 933.69 669.405 1054.99 603.294C1176.32 537.165 1285.81 432.647 1459.28 439.953C1633.98 447.31 1636.54 571.505 1751.51 632.627C1843.42 681.489 2015.77 690.495 2052.72 755.444Z" fill="#DAE5D0"/>
</svg>
