<svg width="90" height="90" viewBox="0 0 90 90" fill="none" xmlns="http://www.w3.org/2000/svg">
<path d="M46.7754 41.6777H32.3262C31.2363 41.6777 30.498 42.5918 30.498 43.5059V86.2207C30.498 87.3281 31.4121 88.0488 32.3262 88.0488H46.7754C47.6895 88.0488 48.6035 87.3105 48.6035 86.2207V43.5059C48.6035 42.416 47.6895 41.6777 46.7754 41.6777ZM44.9473 84.3926H34.1543V45.3516H44.9473V84.3926Z" fill="#A0BCC2"/>
<path d="M18.2285 47.918H3.7793C2.68945 47.918 1.95117 48.832 1.95117 49.7461V86.2383C1.95117 87.3457 2.86523 88.0664 3.7793 88.0664H18.2285C19.1426 88.0664 20.0566 87.3281 20.0566 86.2383V49.7461C20.0566 48.6387 19.1426 47.918 18.2285 47.918ZM16.4004 84.3926H5.60742V51.5742H16.4004V84.3926Z" fill="#A0BCC2"/>
<path d="M87.75 27.7383L69.6445 2.61914C68.9063 1.70508 67.4473 1.70508 66.7266 2.61914L48.6211 27.7383C47.8828 28.7754 48.1641 30.4805 50.0801 30.4805H59.0449V86.2207C59.0449 87.3281 59.959 88.0488 60.8731 88.0488H75.3223C76.2363 88.0488 77.1504 87.3105 77.3262 86.2207V30.498H86.291C88.084 30.498 88.4707 28.6699 87.75 27.7383V27.7383ZM75.3047 26.8242C74.2149 26.8242 73.4766 27.7383 73.4766 28.6523V84.3926H62.6836H62.5078V28.6523C62.5078 27.5449 61.5938 26.8242 60.6797 26.8242H53.3672L67.9922 6.66211L82.6172 26.8242H75.3047V26.8242Z" fill="#A0BCC2"/>
</svg>
