<svg width="68" height="68" viewBox="0 0 68 68" fill="none" xmlns="http://www.w3.org/2000/svg">
<path d="M47.7424 0H20.2576C9.0875 0 0 9.0875 0 20.2576V47.7424C0 58.9125 9.0875 68 20.2576 68H47.7424C58.9125 68 68 58.9125 68 47.7424V20.2576C67.9999 9.0875 58.9124 0 47.7424 0ZM61.1592 47.7424C61.1592 55.1522 55.1522 61.1592 47.7424 61.1592H20.2576C12.8478 61.1592 6.8408 55.1522 6.8408 47.7424V20.2576C6.8408 12.8476 12.8478 6.8408 20.2576 6.8408H47.7424C55.1522 6.8408 61.1592 12.8476 61.1592 20.2576V47.7424Z" fill="url(#paint0_linear_916_3221)"/>
<path d="M34 16.4126C24.3024 16.4126 16.4128 24.3022 16.4128 33.9997C16.4128 43.6972 24.3024 51.5869 34 51.5869C43.6976 51.5869 51.5872 43.6973 51.5872 33.9997C51.5872 24.3021 43.6976 16.4126 34 16.4126ZM34 44.7462C28.0649 44.7462 23.2536 39.935 23.2536 33.9998C23.2536 28.0647 28.065 23.2534 34 23.2534C39.9351 23.2534 44.7464 28.0647 44.7464 33.9998C44.7464 39.9348 39.935 44.7462 34 44.7462Z" fill="url(#paint1_linear_916_3221)"/>
<path d="M51.6208 20.7593C53.9482 20.7593 55.8349 18.8726 55.8349 16.5452C55.8349 14.2178 53.9482 12.3311 51.6208 12.3311C49.2934 12.3311 47.4067 14.2178 47.4067 16.5452C47.4067 18.8726 49.2934 20.7593 51.6208 20.7593Z" fill="url(#paint2_linear_916_3221)"/>
<defs>
<linearGradient id="paint0_linear_916_3221" x1="34" y1="67.8019" x2="34" y2="0.528142" gradientUnits="userSpaceOnUse">
<stop stop-color="#E09B3D"/>
<stop offset="0.3" stop-color="#C74C4D"/>
<stop offset="0.6" stop-color="#C21975"/>
<stop offset="1" stop-color="#7024C4"/>
</linearGradient>
<linearGradient id="paint1_linear_916_3221" x1="34" y1="67.8017" x2="34" y2="0.527962" gradientUnits="userSpaceOnUse">
<stop stop-color="#E09B3D"/>
<stop offset="0.3" stop-color="#C74C4D"/>
<stop offset="0.6" stop-color="#C21975"/>
<stop offset="1" stop-color="#7024C4"/>
</linearGradient>
<linearGradient id="paint2_linear_916_3221" x1="51.6208" y1="67.802" x2="51.6208" y2="0.528273" gradientUnits="userSpaceOnUse">
<stop stop-color="#E09B3D"/>
<stop offset="0.3" stop-color="#C74C4D"/>
<stop offset="0.6" stop-color="#C21975"/>
<stop offset="1" stop-color="#7024C4"/>
</linearGradient>
</defs>
</svg>
