<svg width="84" height="85" viewBox="0 0 84 85" fill="none" xmlns="http://www.w3.org/2000/svg">
<path d="M4 6H68V47.5L42.5 69H4V6Z" fill="white" fill-opacity="0.4"/>
<line x1="5" y1="6" x2="5" y2="69" stroke="#A0BCC2" stroke-width="2"/>
<line x1="6" y1="7" x2="68" y2="7" stroke="#A0BCC2" stroke-width="2"/>
<path d="M67 8V50" stroke="#A0BCC2" stroke-width="2"/>
<path d="M6 68H45" stroke="#A0BCC2" stroke-width="2"/>
<g clip-path="url(#clip0_1195_3208)">
<path d="M14.5928 21.9794C14.7299 22.0268 14.8361 22.0412 14.9696 22.0895C15.1107 22.2137 15.1702 22.3768 15.2002 22.5434C15.2028 22.5539 15.2143 22.5695 15.2169 22.58C15.3004 23.1297 15.0043 23.8183 15.5232 24.0412C18.406 25.2917 21.4231 25.9976 19.5419 30.5032C18.723 32.4664 21.9426 30.6399 22.2814 31.1928C22.8847 34.0324 18.5481 33.9176 20.0417 36.0135C21.5591 38.1442 22.0739 35.2638 23.0748 34.6594C23.1582 34.6127 23.7328 35.0293 23.7552 35.2571C24.2434 40.7666 26.9202 35.8854 28.8437 36.2112C26.9346 41.1089 28.695 41.879 33.2536 40.1049C38.0682 38.2302 39.6846 43.0517 40.9678 45.3407C42.9657 48.9153 39.0496 49.4072 36.2749 49.7376C35.3384 49.8519 33.8092 50.4247 34.4482 50.9474C35.6348 51.9157 32.9545 54.2305 35.7983 54.1015C38.8046 53.9691 38.288 55.6201 37.3572 57.2703C35.7089 60.2065 36.6204 62.1619 39.8851 62.4728C40.9718 62.5805 42.0437 62.766 44.5839 63.1274C37.0547 64.673 37.8753 71.3668 33.1766 74.4723C35.6189 74.7913 36.7081 73.8241 38.0255 73.2855C42.6651 71.4098 46.023 67.5262 51.2388 66.3483C56.8982 65.06 62.5432 63.0566 67.6217 60.0272C68.618 59.435 70.0105 58.3887 69.644 56.9757C69.2029 55.2776 66.9558 57.5625 66.1239 55.9429C66.4266 55.3417 66.5904 54.7934 66.9486 54.4006C68.7742 52.3761 70.3812 50.0836 69.0515 47.4395C67.6629 44.6654 64.8754 45.388 62.5678 46.1913C60.9629 46.7347 61.0347 46.076 60.5357 44.9701C57.3607 37.8984 48.4627 36.5354 44.6582 29.9721C44.2782 29.3145 43.0671 28.8747 42.1927 28.7957C38.7182 28.4813 38.2711 26.8662 39.6296 24.002C40.328 22.517 40.4541 20.7927 41.0422 19.2462C42.241 16.1217 41.371 15.0673 38.0213 16.0037C35.4142 16.7333 32.7732 17.3268 29.732 18.0828C29.7556 15.2281 31.5362 14.215 32.4196 12.71C33.1835 11.4272 33.4032 9.10177 31.1382 10.0464C27.2683 11.6714 21.4575 11.3266 20.8999 17.3517C20.8508 17.8418 20.7911 18.3049 20.7165 18.7383C20.1488 21.7578 18.6335 23.2422 14.9768 22.0877C14.8837 22.0034 14.8567 21.9101 14.7098 21.854C14.6837 21.8716 14.6533 21.8866 14.6273 21.9042C14.6226 21.9313 14.6099 21.9567 14.6035 21.9768L14.5928 21.9794Z" fill="#F9EBC8"/>
<path d="M13.2954 47.3259C13.4812 48.4096 14.4879 48.9446 15.2393 48.8801C18.5083 48.5973 21.829 48.3386 24.9823 47.514C26.5155 47.1255 27.6196 45.4692 27.1653 43.1372C25.3547 41.7832 24.393 38.6326 20.8362 39.3167C18.0851 39.8339 12.9671 45.3329 13.2954 47.3259Z" fill="#F9EBC8"/>
<path d="M15.9855 14.9429C12.8229 16.6626 11.3083 18.8988 12.4283 22.3805C9.87174 23.2827 11.4486 24.1243 12.2725 24.8864C12.4009 24.1803 12.8919 23.4507 13.1815 22.6748C13.6611 22.4185 14.1425 22.1544 14.6229 21.9016C15.0544 19.6791 17.7434 17.8882 15.9855 14.9429Z" fill="#F9EBC8"/>
<path d="M9.06964 27.4239C9.69323 27.023 9.39435 26.6055 8.91121 26.1549C8.82985 26.5741 8.82454 26.993 9.06964 27.4239Z" fill="#F9EBC8"/>
<path d="M17.052 30.13L20.752 30.13L20.752 30.76L17.052 30.76L17.052 30.13ZM17.132 33.36L21.342 33.36L21.342 34L16.392 34L16.392 27L21.192 27L21.192 27.64L17.132 27.64L17.132 33.36ZM24.7738 34L21.6738 27L22.4738 27L25.3738 33.59L24.9338 33.59L27.8538 27L28.6038 27L25.5038 34L24.7738 34ZM30.0797 30.13L33.7797 30.13L33.7797 30.76L30.0797 30.76L30.0797 30.13ZM30.1597 33.36L34.3697 33.36L34.3697 34L29.4197 34L29.4197 27L34.2197 27L34.2197 27.64L30.1597 27.64L30.1597 33.36ZM35.9091 34L35.9091 27L36.5191 27L41.3491 33.08L41.0291 33.08L41.0291 27L41.7591 27L41.7591 34L41.1491 34L36.3291 27.92L36.6491 27.92L36.6491 34L35.9091 34ZM44.4839 32.26L44.4539 31.36L48.6939 27L49.5439 27L46.4539 30.24L46.0339 30.69L44.4839 32.26ZM43.8439 34L43.8439 27L44.5839 27L44.5839 34L43.8439 34ZM48.8739 34L45.8539 30.52L46.3539 29.98L49.7539 34L48.8739 34ZM53.5594 34.06C53.0327 34.06 52.5427 33.9733 52.0894 33.8C51.6427 33.62 51.2527 33.37 50.9194 33.05C50.5927 32.7233 50.336 32.3467 50.1494 31.92C49.9694 31.4867 49.8794 31.0133 49.8794 30.5C49.8794 29.9867 49.9694 29.5167 50.1494 29.09C50.336 28.6567 50.5927 28.28 50.9194 27.96C51.2527 27.6333 51.6427 27.3833 52.0894 27.21C52.536 27.03 53.026 26.94 53.5594 26.94C54.086 26.94 54.5727 27.03 55.0194 27.21C55.466 27.3833 55.8527 27.63 56.1794 27.95C56.5127 28.27 56.7694 28.6467 56.9494 29.08C57.136 29.5133 57.2294 29.9867 57.2294 30.5C57.2294 31.0133 57.136 31.4867 56.9494 31.92C56.7694 32.3533 56.5127 32.73 56.1794 33.05C55.8527 33.37 55.466 33.62 55.0194 33.8C54.5727 33.9733 54.086 34.06 53.5594 34.06ZM53.5594 33.4C53.9794 33.4 54.366 33.33 54.7194 33.19C55.0794 33.0433 55.3894 32.84 55.6494 32.58C55.916 32.3133 56.1227 32.0067 56.2694 31.66C56.416 31.3067 56.4894 30.92 56.4894 30.5C56.4894 30.08 56.416 29.6967 56.2694 29.35C56.1227 28.9967 55.916 28.69 55.6494 28.43C55.3894 28.1633 55.0794 27.96 54.7194 27.82C54.366 27.6733 53.9794 27.6 53.5594 27.6C53.1394 27.6 52.7494 27.6733 52.3894 27.82C52.0294 27.96 51.716 28.1633 51.4494 28.43C51.1894 28.69 50.9827 28.9967 50.8294 29.35C50.6827 29.6967 50.6094 30.08 50.6094 30.5C50.6094 30.9133 50.6827 31.2967 50.8294 31.65C50.9827 32.0033 51.1894 32.3133 51.4494 32.58C51.716 32.84 52.0294 33.0433 52.3894 33.19C52.7494 33.33 53.1394 33.4 53.5594 33.4ZM16.024 44.13L19.724 44.13L19.724 44.76L16.024 44.76L16.024 44.13ZM16.104 47.36L20.314 47.36L20.314 48L15.364 48L15.364 41L20.164 41L20.164 41.64L16.104 41.64L16.104 47.36ZM21.8535 48L21.8535 41L22.4635 41L27.2935 47.08L26.9735 47.08L26.9735 41L27.7035 41L27.7035 48L27.0935 48L22.2735 41.92L22.5935 41.92L22.5935 48L21.8535 48ZM32.8582 48.06C32.3249 48.06 31.8316 47.9733 31.3782 47.8C30.9316 47.62 30.5416 47.37 30.2082 47.05C29.8816 46.73 29.6249 46.3533 29.4382 45.92C29.2582 45.4867 29.1682 45.0133 29.1682 44.5C29.1682 43.9867 29.2582 43.5133 29.4382 43.08C29.6249 42.6467 29.8849 42.27 30.2182 41.95C30.5516 41.63 30.9416 41.3833 31.3882 41.21C31.8416 41.03 32.3349 40.94 32.8682 40.94C33.4016 40.94 33.8882 41.0233 34.3282 41.19C34.7749 41.3567 35.1549 41.61 35.4682 41.95L35.0082 42.42C34.7149 42.1267 34.3916 41.9167 34.0382 41.79C33.6849 41.6633 33.3049 41.6 32.8982 41.6C32.4649 41.6 32.0649 41.6733 31.6982 41.82C31.3382 41.96 31.0216 42.1633 30.7482 42.43C30.4816 42.69 30.2716 42.9967 30.1182 43.35C29.9716 43.6967 29.8982 44.08 29.8982 44.5C29.8982 44.9133 29.9716 45.2967 30.1182 45.65C30.2716 46.0033 30.4816 46.3133 30.7482 46.58C31.0216 46.84 31.3382 47.0433 31.6982 47.19C32.0649 47.33 32.4616 47.4 32.8882 47.4C33.2882 47.4 33.6649 47.34 34.0182 47.22C34.3782 47.1 34.7082 46.8967 35.0082 46.61L35.4282 47.17C35.0949 47.4633 34.7049 47.6867 34.2582 47.84C33.8116 47.9867 33.3449 48.06 32.8582 48.06ZM34.7182 47.08L34.7182 44.5L35.4282 44.5L35.4282 47.17L34.7182 47.08ZM37.3226 48L37.3226 41L38.0626 41L38.0626 47.36L41.9826 47.36L41.9826 48L37.3226 48ZM43.0113 48L43.0113 41L43.7513 41L43.7513 48L43.0113 48ZM47.7589 48.06C47.2389 48.06 46.7389 47.9767 46.2589 47.81C45.7855 47.6367 45.4189 47.4167 45.1589 47.15L45.4489 46.58C45.6955 46.82 46.0255 47.0233 46.4389 47.19C46.8589 47.35 47.2989 47.43 47.7589 47.43C48.1989 47.43 48.5555 47.3767 48.8289 47.27C49.1089 47.1567 49.3122 47.0067 49.4389 46.82C49.5722 46.6333 49.6389 46.4267 49.6389 46.2C49.6389 45.9267 49.5589 45.7067 49.3989 45.54C49.2455 45.3733 49.0422 45.2433 48.7889 45.15C48.5355 45.05 48.2555 44.9633 47.9489 44.89C47.6422 44.8167 47.3355 44.74 47.0289 44.66C46.7222 44.5733 46.4389 44.46 46.1789 44.32C45.9255 44.18 45.7189 43.9967 45.5589 43.77C45.4055 43.5367 45.3289 43.2333 45.3289 42.86C45.3289 42.5133 45.4189 42.1967 45.5989 41.91C45.7855 41.6167 46.0689 41.3833 46.4489 41.21C46.8289 41.03 47.3155 40.94 47.9089 40.94C48.3022 40.94 48.6922 40.9967 49.0789 41.11C49.4655 41.2167 49.7989 41.3667 50.0789 41.56L49.8289 42.15C49.5289 41.95 49.2089 41.8033 48.8689 41.71C48.5355 41.6167 48.2122 41.57 47.8989 41.57C47.4789 41.57 47.1322 41.6267 46.8589 41.74C46.5855 41.8533 46.3822 42.0067 46.2489 42.2C46.1222 42.3867 46.0589 42.6 46.0589 42.84C46.0589 43.1133 46.1355 43.3333 46.2889 43.5C46.4489 43.6667 46.6555 43.7967 46.9089 43.89C47.1689 43.9833 47.4522 44.0667 47.7589 44.14C48.0655 44.2133 48.3689 44.2933 48.6689 44.38C48.9755 44.4667 49.2555 44.58 49.5089 44.72C49.7689 44.8533 49.9755 45.0333 50.1289 45.26C50.2889 45.4867 50.3689 45.7833 50.3689 46.15C50.3689 46.49 50.2755 46.8067 50.0889 47.1C49.9022 47.3867 49.6155 47.62 49.2289 47.8C48.8489 47.9733 48.3589 48.06 47.7589 48.06ZM56.9012 41L57.6312 41L57.6312 48L56.9012 48L56.9012 41ZM52.5212 48L51.7812 48L51.7812 41L52.5212 41L52.5212 48ZM56.9712 44.77L52.4412 44.77L52.4412 44.12L56.9712 44.12L56.9712 44.77Z" fill="black"/>
</g>
<defs>
<clipPath id="clip0_1195_3208">
<rect width="68.6927" height="70.3169" fill="white" transform="translate(0 16.5713) rotate(-13.9596)"/>
</clipPath>
</defs>
</svg>
