<svg width="85" height="85" viewBox="0 0 85 85" fill="none" xmlns="http://www.w3.org/2000/svg">
<rect x="9" y="6" width="62" height="61" fill="white" stroke="#A0BCC2" stroke-width="2"/>
<rect x="49" y="49" width="27" height="25" fill="white"/>
<g clip-path="url(#clip0_1181_3273)">
<path d="M15.1772 21.5023C15.3229 21.5564 15.4353 21.5735 15.5772 21.6285C15.7279 21.7674 15.7929 21.9482 15.8267 22.1325C15.8296 22.1441 15.8419 22.1616 15.8448 22.1731C15.9399 22.7812 15.6351 23.5378 16.1867 23.7904C19.2513 25.2066 22.4514 26.0231 20.5169 30.9748C19.675 33.1324 23.058 31.1553 23.4232 31.77C24.0962 34.9128 19.5078 34.7327 21.1134 37.0653C22.7446 39.4367 23.2537 36.2625 24.3049 35.6074C24.3926 35.5569 25.0055 36.0239 25.032 36.2758C25.6162 42.3652 28.3875 37.0085 30.4261 37.3918C28.467 42.7763 30.3385 43.6482 35.1384 41.7454C40.208 39.7346 41.977 45.0783 43.3625 47.6215C45.5197 51.5931 41.3836 52.088 38.4527 52.4187C37.4635 52.5333 35.853 53.147 36.5354 53.7321C37.8025 54.8158 34.9958 57.3387 38.0022 57.2312C41.1805 57.1221 40.6544 58.9387 39.6901 60.7493C37.9828 63.9711 38.971 66.1414 42.428 66.5248C43.5788 66.6572 44.7148 66.8752 47.4061 67.3054C39.4612 68.9194 40.4115 76.3206 35.4798 79.6917C38.067 80.074 39.2072 79.0194 40.594 78.4409C45.4784 76.4269 48.9825 72.1802 54.4849 70.9436C60.4552 69.5908 66.4015 67.4482 71.7359 64.1656C72.7824 63.524 74.2424 62.3859 73.8375 60.8213C73.35 58.9408 71.0013 61.436 70.1014 59.6376C70.4141 58.9774 70.5807 58.3741 70.9548 57.9447C72.8608 55.7318 74.5324 53.2203 73.0934 50.2843C71.5905 47.2043 68.651 47.9678 66.22 48.8264C64.5291 49.4067 64.597 48.6802 64.0555 47.453C60.6103 39.6056 51.1818 37.9912 47.0768 30.6974C46.6668 29.9667 45.3804 29.4661 44.4545 29.3681C40.7756 28.9783 40.2828 27.1894 41.6845 24.0436C42.405 22.4125 42.5171 20.5101 43.1201 18.8098C44.3497 15.3745 43.4165 14.1996 39.885 15.1923C37.1363 15.9658 34.3502 16.5887 31.1426 17.386C31.1325 14.2343 33.0034 13.1376 33.9193 11.4866C34.7115 10.0797 34.9153 7.51466 32.5312 8.52978C28.4578 10.2765 22.3072 9.82433 21.7916 16.4701C21.7456 17.0107 21.6883 17.5212 21.6147 17.9989C21.0514 21.326 19.4668 22.9463 15.5848 21.6266C15.4852 21.5324 15.4555 21.4291 15.2994 21.3653C15.2721 21.3844 15.2401 21.4006 15.2128 21.4197C15.2082 21.4495 15.1951 21.4774 15.1886 21.4995L15.1772 21.5023Z" fill="#F9EBC8"/>
<path d="M14.1167 49.473C14.3265 50.6719 15.398 51.2751 16.192 51.2131C19.6463 50.9409 23.1555 50.6962 26.4807 49.8245C28.0977 49.4143 29.2452 47.5992 28.7359 45.0186C26.8041 43.5013 25.7481 40.0107 21.9944 40.7223C19.0908 41.2595 13.745 47.2684 14.1167 49.473Z" fill="#F9EBC8"/>
<path d="M16.5637 13.75C13.2397 15.61 11.6651 18.0604 12.8926 21.9185C10.1995 22.8833 11.8778 23.832 12.7586 24.6836C12.8857 23.9055 13.3962 23.1059 13.693 22.2528C14.197 21.9758 14.703 21.69 15.208 21.4168C15.6371 18.9681 18.4593 17.0237 16.5637 13.75Z" fill="#F9EBC8"/>
<path d="M12.9011 25.8048C13.4238 25.4575 13.1673 25.0865 12.7548 24.6845C12.6902 25.0533 12.6899 25.4226 12.9011 25.8048Z" fill="#F9EBC8"/>
<path d="M20.052 28.13L23.752 28.13L23.752 28.76L20.052 28.76L20.052 28.13ZM20.132 31.36L24.342 31.36L24.342 32L19.392 32L19.392 25L24.192 25L24.192 25.64L20.132 25.64L20.132 31.36ZM27.7738 32L24.6738 25L25.4738 25L28.3738 31.59L27.9338 31.59L30.8538 25L31.6038 25L28.5038 32L27.7738 32ZM33.0797 28.13L36.7797 28.13L36.7797 28.76L33.0797 28.76L33.0797 28.13ZM33.1597 31.36L37.3697 31.36L37.3697 32L32.4197 32L32.4197 25L37.2197 25L37.2197 25.64L33.1597 25.64L33.1597 31.36ZM38.9091 32L38.9091 25L39.5191 25L44.3491 31.08L44.0291 31.08L44.0291 25L44.7591 25L44.7591 32L44.1491 32L39.3291 25.92L39.6491 25.92L39.6491 32L38.9091 32ZM47.4839 30.26L47.4539 29.36L51.6939 25L52.5439 25L49.4539 28.24L49.0339 28.69L47.4839 30.26ZM46.8439 32L46.8439 25L47.5839 25L47.5839 32L46.8439 32ZM51.8739 32L48.8539 28.52L49.3539 27.98L52.7539 32L51.8739 32ZM56.5594 32.06C56.0327 32.06 55.5427 31.9733 55.0894 31.8C54.6427 31.62 54.2527 31.37 53.9194 31.05C53.5927 30.7233 53.336 30.3467 53.1494 29.92C52.9694 29.4867 52.8794 29.0133 52.8794 28.5C52.8794 27.9867 52.9694 27.5167 53.1494 27.09C53.336 26.6567 53.5927 26.28 53.9194 25.96C54.2527 25.6333 54.6427 25.3833 55.0894 25.21C55.536 25.03 56.026 24.94 56.5594 24.94C57.086 24.94 57.5727 25.03 58.0194 25.21C58.466 25.3833 58.8527 25.63 59.1794 25.95C59.5127 26.27 59.7694 26.6467 59.9494 27.08C60.136 27.5133 60.2294 27.9867 60.2294 28.5C60.2294 29.0133 60.136 29.4867 59.9494 29.92C59.7694 30.3533 59.5127 30.73 59.1794 31.05C58.8527 31.37 58.466 31.62 58.0194 31.8C57.5727 31.9733 57.086 32.06 56.5594 32.06ZM56.5594 31.4C56.9794 31.4 57.366 31.33 57.7194 31.19C58.0794 31.0433 58.3894 30.84 58.6494 30.58C58.916 30.3133 59.1227 30.0067 59.2694 29.66C59.416 29.3067 59.4894 28.92 59.4894 28.5C59.4894 28.08 59.416 27.6967 59.2694 27.35C59.1227 26.9967 58.916 26.69 58.6494 26.43C58.3894 26.1633 58.0794 25.96 57.7194 25.82C57.366 25.6733 56.9794 25.6 56.5594 25.6C56.1394 25.6 55.7494 25.6733 55.3894 25.82C55.0294 25.96 54.716 26.1633 54.4494 26.43C54.1894 26.69 53.9827 26.9967 53.8294 27.35C53.6827 27.6967 53.6094 28.08 53.6094 28.5C53.6094 28.9133 53.6827 29.2967 53.8294 29.65C53.9827 30.0033 54.1894 30.3133 54.4494 30.58C54.716 30.84 55.0294 31.0433 55.3894 31.19C55.7494 31.33 56.1394 31.4 56.5594 31.4ZM19.024 42.13L22.724 42.13L22.724 42.76L19.024 42.76L19.024 42.13ZM19.104 45.36L23.314 45.36L23.314 46L18.364 46L18.364 39L23.164 39L23.164 39.64L19.104 39.64L19.104 45.36ZM24.8535 46L24.8535 39L25.4635 39L30.2935 45.08L29.9735 45.08L29.9735 39L30.7035 39L30.7035 46L30.0935 46L25.2735 39.92L25.5935 39.92L25.5935 46L24.8535 46ZM35.8582 46.06C35.3249 46.06 34.8316 45.9733 34.3782 45.8C33.9316 45.62 33.5416 45.37 33.2082 45.05C32.8816 44.73 32.6249 44.3533 32.4382 43.92C32.2582 43.4867 32.1682 43.0133 32.1682 42.5C32.1682 41.9867 32.2582 41.5133 32.4382 41.08C32.6249 40.6467 32.8849 40.27 33.2182 39.95C33.5516 39.63 33.9416 39.3833 34.3882 39.21C34.8416 39.03 35.3349 38.94 35.8682 38.94C36.4016 38.94 36.8882 39.0233 37.3282 39.19C37.7749 39.3567 38.1549 39.61 38.4682 39.95L38.0082 40.42C37.7149 40.1267 37.3916 39.9167 37.0382 39.79C36.6849 39.6633 36.3049 39.6 35.8982 39.6C35.4649 39.6 35.0649 39.6733 34.6982 39.82C34.3382 39.96 34.0216 40.1633 33.7482 40.43C33.4816 40.69 33.2716 40.9967 33.1182 41.35C32.9716 41.6967 32.8982 42.08 32.8982 42.5C32.8982 42.9133 32.9716 43.2967 33.1182 43.65C33.2716 44.0033 33.4816 44.3133 33.7482 44.58C34.0216 44.84 34.3382 45.0433 34.6982 45.19C35.0649 45.33 35.4616 45.4 35.8882 45.4C36.2882 45.4 36.6649 45.34 37.0182 45.22C37.3782 45.1 37.7082 44.8967 38.0082 44.61L38.4282 45.17C38.0949 45.4633 37.7049 45.6867 37.2582 45.84C36.8116 45.9867 36.3449 46.06 35.8582 46.06ZM37.7182 45.08L37.7182 42.5L38.4282 42.5L38.4282 45.17L37.7182 45.08ZM40.3226 46L40.3226 39L41.0626 39L41.0626 45.36L44.9826 45.36L44.9826 46L40.3226 46ZM46.0113 46L46.0113 39L46.7513 39L46.7513 46L46.0113 46ZM50.7589 46.06C50.2389 46.06 49.7389 45.9767 49.2589 45.81C48.7855 45.6367 48.4189 45.4167 48.1589 45.15L48.4489 44.58C48.6955 44.82 49.0255 45.0233 49.4389 45.19C49.8589 45.35 50.2989 45.43 50.7589 45.43C51.1989 45.43 51.5555 45.3767 51.8289 45.27C52.1089 45.1567 52.3122 45.0067 52.4389 44.82C52.5722 44.6333 52.6389 44.4267 52.6389 44.2C52.6389 43.9267 52.5589 43.7067 52.3989 43.54C52.2455 43.3733 52.0422 43.2433 51.7889 43.15C51.5355 43.05 51.2555 42.9633 50.9489 42.89C50.6422 42.8167 50.3355 42.74 50.0289 42.66C49.7222 42.5733 49.4389 42.46 49.1789 42.32C48.9255 42.18 48.7189 41.9967 48.5589 41.77C48.4055 41.5367 48.3289 41.2333 48.3289 40.86C48.3289 40.5133 48.4189 40.1967 48.5989 39.91C48.7855 39.6167 49.0689 39.3833 49.4489 39.21C49.8289 39.03 50.3155 38.94 50.9089 38.94C51.3022 38.94 51.6922 38.9967 52.0789 39.11C52.4655 39.2167 52.7989 39.3667 53.0789 39.56L52.8289 40.15C52.5289 39.95 52.2089 39.8033 51.8689 39.71C51.5355 39.6167 51.2122 39.57 50.8989 39.57C50.4789 39.57 50.1322 39.6267 49.8589 39.74C49.5855 39.8533 49.3822 40.0067 49.2489 40.2C49.1222 40.3867 49.0589 40.6 49.0589 40.84C49.0589 41.1133 49.1355 41.3333 49.2889 41.5C49.4489 41.6667 49.6555 41.7967 49.9089 41.89C50.1689 41.9833 50.4522 42.0667 50.7589 42.14C51.0655 42.2133 51.3689 42.2933 51.6689 42.38C51.9755 42.4667 52.2555 42.58 52.5089 42.72C52.7689 42.8533 52.9755 43.0333 53.1289 43.26C53.2889 43.4867 53.3689 43.7833 53.3689 44.15C53.3689 44.49 53.2755 44.8067 53.0889 45.1C52.9022 45.3867 52.6155 45.62 52.2289 45.8C51.8489 45.9733 51.3589 46.06 50.7589 46.06ZM59.9012 39L60.6312 39L60.6312 46L59.9012 46L59.9012 39ZM55.5212 46L54.7812 46L54.7812 39L55.5212 39L55.5212 46ZM59.9712 42.77L55.4412 42.77L55.4412 42.12L59.9712 42.12L59.9712 42.77Z" fill="black"/>
</g>
<defs>
<clipPath id="clip0_1181_3273">
<rect width="68.6927" height="70.3169" fill="white" transform="translate(0 16.5713) rotate(-13.9596)"/>
</clipPath>
</defs>
</svg>
