<svg width="182" height="63" viewBox="0 0 182 63" fill="none" xmlns="http://www.w3.org/2000/svg">
<path fill-rule="evenodd" clip-rule="evenodd" d="M21.9493 0.594859C25.9606 1.04635 29.3255 2.74881 32.8475 4.73317C38.6799 8.01921 47.3222 9.13267 48.7626 15.7019C50.2304 22.3958 44.6358 29.0044 39.0198 32.8827C34.1275 36.2612 27.8716 33.8571 21.9493 34.2183C15.2761 34.6253 7.58817 39.664 2.67634 35.0994C-2.23325 30.537 0.897466 22.3311 2.02413 15.7019C2.90165 10.5385 4.14952 5.12285 8.30662 1.97098C12.1015 -0.90625 17.2276 0.0634073 21.9493 0.594859Z" fill="#DAE5D0"/>
<path fill-rule="evenodd" clip-rule="evenodd" d="M143.95 20.8837C148.406 21.8216 152.07 24.1476 155.544 27.1161C159.491 30.4888 164.399 33.6278 164.94 38.8194C165.513 44.3147 161.878 49.1192 158.269 53.2733C154.328 57.8086 149.911 63.4071 143.95 62.9766C138.098 62.5539 135.758 55.465 131.544 51.3431C127.198 47.0922 120.302 44.8357 119.254 38.8194C118.111 32.2619 120.894 24.8378 126.248 20.9494C131.227 17.3331 137.945 19.6197 143.95 20.8837Z" fill="#F9EBC8"/>
<path d="M46.7298 27.535V28H39.6348V17.5H46.5198V17.965H40.1448V22.435H45.8448V22.9H40.1448V27.535H46.7298ZM57.6229 17.5L52.9129 28H52.4179L47.7079 17.5H48.2779L52.6879 27.34L57.0829 17.5H57.6229ZM66.5345 27.535V28H59.4395V17.5H66.3245V17.965H59.9495V22.435H65.6495V22.9H59.9495V27.535H66.5345ZM77.8441 17.5V28H77.4241L69.9691 18.43V28H69.4591V17.5H69.8791L77.3341 27.07V17.5H77.8441ZM84.7055 22.645L82.2005 25.225V28H81.6905V17.5H82.2005V24.565L89.0705 17.5H89.7005L85.0505 22.3L90.0305 28H89.4005L84.7055 22.645ZM96.1186 28.06C95.0986 28.06 94.1736 27.83 93.3436 27.37C92.5236 26.91 91.8786 26.275 91.4086 25.465C90.9386 24.655 90.7036 23.75 90.7036 22.75C90.7036 21.75 90.9386 20.845 91.4086 20.035C91.8786 19.225 92.5236 18.59 93.3436 18.13C94.1736 17.67 95.0986 17.44 96.1186 17.44C97.1386 17.44 98.0636 17.67 98.8936 18.13C99.7236 18.59 100.374 19.225 100.844 20.035C101.314 20.845 101.549 21.75 101.549 22.75C101.549 23.75 101.314 24.655 100.844 25.465C100.374 26.275 99.7236 26.91 98.8936 27.37C98.0636 27.83 97.1386 28.06 96.1186 28.06ZM96.1186 27.595C97.0386 27.595 97.8736 27.385 98.6236 26.965C99.3736 26.545 99.9636 25.965 100.394 25.225C100.824 24.485 101.039 23.66 101.039 22.75C101.039 21.84 100.824 21.015 100.394 20.275C99.9636 19.535 99.3736 18.955 98.6236 18.535C97.8736 18.115 97.0386 17.905 96.1186 17.905C95.1986 17.905 94.3636 18.115 93.6136 18.535C92.8736 18.955 92.2886 19.535 91.8586 20.275C91.4286 21.015 91.2136 21.84 91.2136 22.75C91.2136 23.66 91.4286 24.485 91.8586 25.225C92.2886 25.965 92.8736 26.545 93.6136 26.965C94.3636 27.385 95.1986 27.595 96.1186 27.595ZM115.211 27.535V28H108.116V17.5H115.001V17.965H108.626V22.435H114.326V22.9H108.626V27.535H115.211ZM126.521 17.5V28H126.101L118.646 18.43V28H118.136V17.5H118.556L126.011 27.07V17.5H126.521ZM137.957 22.825H138.437V26.71C137.977 27.15 137.427 27.485 136.787 27.715C136.157 27.945 135.482 28.06 134.762 28.06C133.732 28.06 132.802 27.83 131.972 27.37C131.142 26.91 130.487 26.275 130.007 25.465C129.537 24.655 129.302 23.75 129.302 22.75C129.302 21.75 129.537 20.845 130.007 20.035C130.487 19.225 131.142 18.59 131.972 18.13C132.802 17.67 133.732 17.44 134.762 17.44C135.512 17.44 136.202 17.555 136.832 17.785C137.462 18.015 138.002 18.36 138.452 18.82L138.152 19.165C137.282 18.325 136.157 17.905 134.777 17.905C133.837 17.905 132.987 18.12 132.227 18.55C131.477 18.97 130.887 19.55 130.457 20.29C130.027 21.03 129.812 21.85 129.812 22.75C129.812 23.65 130.027 24.47 130.457 25.21C130.887 25.95 131.477 26.535 132.227 26.965C132.987 27.385 133.837 27.595 134.777 27.595C136.087 27.595 137.147 27.23 137.957 26.5V22.825ZM141.983 17.5H142.493V27.535H148.643V28H141.983V17.5ZM150.714 17.5H151.224V28H150.714V17.5ZM157.72 28.06C156.96 28.06 156.235 27.925 155.545 27.655C154.865 27.385 154.34 27.035 153.97 26.605L154.24 26.245C154.59 26.645 155.075 26.975 155.695 27.235C156.325 27.485 156.995 27.61 157.705 27.61C158.755 27.61 159.545 27.405 160.075 26.995C160.615 26.575 160.885 26.04 160.885 25.39C160.885 24.89 160.745 24.49 160.465 24.19C160.185 23.88 159.84 23.65 159.43 23.5C159.02 23.34 158.46 23.175 157.75 23.005C156.99 22.815 156.38 22.63 155.92 22.45C155.46 22.27 155.07 21.995 154.75 21.625C154.43 21.255 154.27 20.76 154.27 20.14C154.27 19.65 154.4 19.2 154.66 18.79C154.92 18.38 155.315 18.055 155.845 17.815C156.385 17.565 157.055 17.44 157.855 17.44C158.425 17.44 158.985 17.525 159.535 17.695C160.095 17.865 160.57 18.1 160.96 18.4L160.735 18.805C160.325 18.505 159.865 18.28 159.355 18.13C158.855 17.97 158.36 17.89 157.87 17.89C156.85 17.89 156.075 18.105 155.545 18.535C155.025 18.955 154.765 19.49 154.765 20.14C154.765 20.65 154.905 21.06 155.185 21.37C155.475 21.67 155.825 21.9 156.235 22.06C156.655 22.22 157.215 22.385 157.915 22.555C158.675 22.745 159.285 22.93 159.745 23.11C160.205 23.28 160.59 23.55 160.9 23.92C161.22 24.28 161.38 24.765 161.38 25.375C161.38 25.865 161.245 26.315 160.975 26.725C160.715 27.135 160.31 27.46 159.76 27.7C159.21 27.94 158.53 28.06 157.72 28.06ZM172.502 17.5V28H171.992V22.9H164.627V28H164.117V17.5H164.627V22.435H171.992V17.5H172.502ZM175.854 28.045C175.714 28.045 175.594 28 175.494 27.91C175.404 27.81 175.359 27.69 175.359 27.55C175.359 27.41 175.409 27.295 175.509 27.205C175.609 27.105 175.724 27.055 175.854 27.055C175.994 27.055 176.109 27.105 176.199 27.205C176.299 27.295 176.349 27.41 176.349 27.55C176.349 27.69 176.299 27.81 176.199 27.91C176.109 28 175.994 28.045 175.854 28.045Z" fill="black"/>
<path d="M46.7298 27.535H47.2298V27.035H46.7298V27.535ZM46.7298 28V28.5H47.2298V28H46.7298ZM39.6348 28H39.1348V28.5H39.6348V28ZM39.6348 17.5V17H39.1348V17.5H39.6348ZM46.5198 17.5H47.0198V17H46.5198V17.5ZM46.5198 17.965V18.465H47.0198V17.965H46.5198ZM40.1448 17.965V17.465H39.6448V17.965H40.1448ZM40.1448 22.435H39.6448V22.935H40.1448V22.435ZM45.8448 22.435H46.3448V21.935H45.8448V22.435ZM45.8448 22.9V23.4H46.3448V22.9H45.8448ZM40.1448 22.9V22.4H39.6448V22.9H40.1448ZM40.1448 27.535H39.6448V28.035H40.1448V27.535ZM46.2298 27.535V28H47.2298V27.535H46.2298ZM46.7298 27.5H39.6348V28.5H46.7298V27.5ZM40.1348 28V17.5H39.1348V28H40.1348ZM39.6348 18H46.5198V17H39.6348V18ZM46.0198 17.5V17.965H47.0198V17.5H46.0198ZM46.5198 17.465H40.1448V18.465H46.5198V17.465ZM39.6448 17.965V22.435H40.6448V17.965H39.6448ZM40.1448 22.935H45.8448V21.935H40.1448V22.935ZM45.3448 22.435V22.9H46.3448V22.435H45.3448ZM45.8448 22.4H40.1448V23.4H45.8448V22.4ZM39.6448 22.9V27.535H40.6448V22.9H39.6448ZM40.1448 28.035H46.7298V27.035H40.1448V28.035ZM57.6229 17.5L58.0791 17.7046L58.3952 17H57.6229V17.5ZM52.9129 28V28.5H53.2366L53.3691 28.2046L52.9129 28ZM52.4179 28L51.9617 28.2046L52.0942 28.5H52.4179V28ZM47.7079 17.5V17H46.9356L47.2517 17.7046L47.7079 17.5ZM48.2779 17.5L48.7342 17.2955L48.6017 17H48.2779V17.5ZM52.6879 27.34L52.2316 27.5445L52.6887 28.5643L53.1444 27.5439L52.6879 27.34ZM57.0829 17.5V17H56.7586L56.6264 17.2961L57.0829 17.5ZM57.1667 17.2954L52.4567 27.7954L53.3691 28.2046L58.0791 17.7046L57.1667 17.2954ZM52.9129 27.5H52.4179V28.5H52.9129V27.5ZM52.8741 27.7954L48.1641 17.2954L47.2517 17.7046L51.9617 28.2046L52.8741 27.7954ZM47.7079 18H48.2779V17H47.7079V18ZM47.8216 17.7045L52.2316 27.5445L53.1442 27.1355L48.7342 17.2955L47.8216 17.7045ZM53.1444 27.5439L57.5394 17.7039L56.6264 17.2961L52.2314 27.1361L53.1444 27.5439ZM57.0829 18H57.6229V17H57.0829V18ZM66.5345 27.535H67.0345V27.035H66.5345V27.535ZM66.5345 28V28.5H67.0345V28H66.5345ZM59.4395 28H58.9395V28.5H59.4395V28ZM59.4395 17.5V17H58.9395V17.5H59.4395ZM66.3245 17.5H66.8245V17H66.3245V17.5ZM66.3245 17.965V18.465H66.8245V17.965H66.3245ZM59.9495 17.965V17.465H59.4495V17.965H59.9495ZM59.9495 22.435H59.4495V22.935H59.9495V22.435ZM65.6495 22.435H66.1495V21.935H65.6495V22.435ZM65.6495 22.9V23.4H66.1495V22.9H65.6495ZM59.9495 22.9V22.4H59.4495V22.9H59.9495ZM59.9495 27.535H59.4495V28.035H59.9495V27.535ZM66.0345 27.535V28H67.0345V27.535H66.0345ZM66.5345 27.5H59.4395V28.5H66.5345V27.5ZM59.9395 28V17.5H58.9395V28H59.9395ZM59.4395 18H66.3245V17H59.4395V18ZM65.8245 17.5V17.965H66.8245V17.5H65.8245ZM66.3245 17.465H59.9495V18.465H66.3245V17.465ZM59.4495 17.965V22.435H60.4495V17.965H59.4495ZM59.9495 22.935H65.6495V21.935H59.9495V22.935ZM65.1495 22.435V22.9H66.1495V22.435H65.1495ZM65.6495 22.4H59.9495V23.4H65.6495V22.4ZM59.4495 22.9V27.535H60.4495V22.9H59.4495ZM59.9495 28.035H66.5345V27.035H59.9495V28.035ZM77.8441 17.5H78.3441V17H77.8441V17.5ZM77.8441 28V28.5H78.3441V28H77.8441ZM77.4241 28L77.0296 28.3073L77.1798 28.5H77.4241V28ZM69.9691 18.43L70.3635 18.1227L69.4691 16.9745V18.43H69.9691ZM69.9691 28V28.5H70.4691V28H69.9691ZM69.4591 28H68.9591V28.5H69.4591V28ZM69.4591 17.5V17H68.9591V17.5H69.4591ZM69.8791 17.5L70.2735 17.1927L70.1234 17H69.8791V17.5ZM77.3341 27.07L76.9396 27.3773L77.8341 28.5255V27.07H77.3341ZM77.3341 17.5V17H76.8341V17.5H77.3341ZM77.3441 17.5V28H78.3441V17.5H77.3441ZM77.8441 27.5H77.4241V28.5H77.8441V27.5ZM77.8185 27.6927L70.3635 18.1227L69.5746 18.7373L77.0296 28.3073L77.8185 27.6927ZM69.4691 18.43V28H70.4691V18.43H69.4691ZM69.9691 27.5H69.4591V28.5H69.9691V27.5ZM69.9591 28V17.5H68.9591V28H69.9591ZM69.4591 18H69.8791V17H69.4591V18ZM69.4846 17.8073L76.9396 27.3773L77.7285 26.7627L70.2735 17.1927L69.4846 17.8073ZM77.8341 27.07V17.5H76.8341V27.07H77.8341ZM77.3341 18H77.8441V17H77.3341V18ZM84.7055 22.645L85.0815 22.3154L84.7242 21.9079L84.3468 22.2967L84.7055 22.645ZM82.2005 25.225L81.8418 24.8767L81.7005 25.0222V25.225H82.2005ZM82.2005 28V28.5H82.7005V28H82.2005ZM81.6905 28H81.1905V28.5H81.6905V28ZM81.6905 17.5V17H81.1905V17.5H81.6905ZM82.2005 17.5H82.7005V17H82.2005V17.5ZM82.2005 24.565H81.7005V25.7964L82.559 24.9136L82.2005 24.565ZM89.0705 17.5V17H88.8593L88.712 17.1514L89.0705 17.5ZM89.7005 17.5L90.0596 17.8479L90.881 17H89.7005V17.5ZM85.0505 22.3L84.6914 21.9521L84.3713 22.2825L84.674 22.629L85.0505 22.3ZM90.0305 28V28.5H91.1313L90.407 27.671L90.0305 28ZM89.4005 28L89.0245 28.3296L89.1739 28.5H89.4005V28ZM84.3468 22.2967L81.8418 24.8767L82.5592 25.5733L85.0642 22.9933L84.3468 22.2967ZM81.7005 25.225V28H82.7005V25.225H81.7005ZM82.2005 27.5H81.6905V28.5H82.2005V27.5ZM82.1905 28V17.5H81.1905V28H82.1905ZM81.6905 18H82.2005V17H81.6905V18ZM81.7005 17.5V24.565H82.7005V17.5H81.7005ZM82.559 24.9136L89.429 17.8486L88.712 17.1514L81.842 24.2164L82.559 24.9136ZM89.0705 18H89.7005V17H89.0705V18ZM89.3414 17.1521L84.6914 21.9521L85.4096 22.6479L90.0596 17.8479L89.3414 17.1521ZM84.674 22.629L89.654 28.329L90.407 27.671L85.427 21.971L84.674 22.629ZM90.0305 27.5H89.4005V28.5H90.0305V27.5ZM89.7765 27.6704L85.0815 22.3154L84.3295 22.9746L89.0245 28.3296L89.7765 27.6704ZM93.3436 27.37L93.099 27.8061L93.1013 27.8073L93.3436 27.37ZM91.4086 25.465L91.8411 25.2141L91.4086 25.465ZM91.4086 20.035L91.8411 20.2859L91.4086 20.035ZM93.3436 18.13L93.1013 17.6927L93.099 17.6939L93.3436 18.13ZM100.844 20.035L100.411 20.2859L100.844 20.035ZM100.844 25.465L100.411 25.2141L100.844 25.465ZM98.8936 27.37L99.136 27.8073L98.8936 27.37ZM98.6236 26.965L98.3793 26.5287L98.6236 26.965ZM100.394 25.225L99.9613 24.9738L100.394 25.225ZM100.394 20.275L99.9613 20.5262L100.394 20.275ZM93.6136 18.535L93.3693 18.0987L93.3668 18.1002L93.6136 18.535ZM91.8586 20.275L91.4263 20.0238L91.8586 20.275ZM91.8586 25.225L91.4263 25.4762L91.8586 25.225ZM93.6136 26.965L93.3668 27.3998L93.3693 27.4013L93.6136 26.965ZM96.1186 27.56C95.1769 27.56 94.3363 27.3485 93.586 26.9327L93.1013 27.8073C94.0109 28.3115 95.0204 28.56 96.1186 28.56V27.56ZM93.5883 26.9339C92.846 26.5175 92.266 25.9463 91.8411 25.2141L90.9762 25.7159C91.4913 26.6037 92.2013 27.3025 93.099 27.8061L93.5883 26.9339ZM91.8411 25.2141C91.4183 24.4855 91.2036 23.6681 91.2036 22.75H90.2036C90.2036 23.8319 90.4589 24.8245 90.9762 25.7159L91.8411 25.2141ZM91.2036 22.75C91.2036 21.8319 91.4183 21.0145 91.8411 20.2859L90.9762 19.7841C90.4589 20.6755 90.2036 21.6681 90.2036 22.75H91.2036ZM91.8411 20.2859C92.266 19.5537 92.846 18.9825 93.5883 18.5661L93.099 17.6939C92.2013 18.1975 91.4913 18.8963 90.9762 19.7841L91.8411 20.2859ZM93.586 18.5673C94.3363 18.1515 95.1769 17.94 96.1186 17.94V16.94C95.0204 16.94 94.0109 17.1885 93.1013 17.6927L93.586 18.5673ZM96.1186 17.94C97.0604 17.94 97.9009 18.1515 98.6513 18.5673L99.136 17.6927C98.2263 17.1885 97.2169 16.94 96.1186 16.94V17.94ZM98.6513 18.5673C99.4033 18.9841 99.9872 19.5552 100.411 20.2859L101.276 19.7841C100.76 18.8948 100.044 18.1959 99.136 17.6927L98.6513 18.5673ZM100.411 20.2859C100.834 21.0145 101.049 21.8319 101.049 22.75H102.049C102.049 21.6681 101.793 20.6755 101.276 19.7841L100.411 20.2859ZM101.049 22.75C101.049 23.6681 100.834 24.4855 100.411 25.2141L101.276 25.7159C101.793 24.8245 102.049 23.8319 102.049 22.75H101.049ZM100.411 25.2141C99.9872 25.9448 99.4033 26.5159 98.6513 26.9327L99.136 27.8073C100.044 27.3041 100.76 26.6052 101.276 25.7159L100.411 25.2141ZM98.6513 26.9327C97.9009 27.3485 97.0604 27.56 96.1186 27.56V28.56C97.2169 28.56 98.2263 28.3115 99.136 27.8073L98.6513 26.9327ZM96.1186 28.095C97.118 28.095 98.0381 27.866 98.8679 27.4013L98.3793 26.5287C97.7092 26.904 96.9593 27.095 96.1186 27.095V28.095ZM98.8679 27.4013C99.6957 26.9377 100.351 26.294 100.826 25.4762L99.9613 24.9738C99.5765 25.636 99.0516 26.1523 98.3793 26.5287L98.8679 27.4013ZM100.826 25.4762C101.303 24.6551 101.539 23.7425 101.539 22.75H100.539C100.539 23.5775 100.344 24.3149 99.9613 24.9738L100.826 25.4762ZM101.539 22.75C101.539 21.7575 101.303 20.8449 100.826 20.0238L99.9613 20.5262C100.344 21.1851 100.539 21.9225 100.539 22.75H101.539ZM100.826 20.0238C100.351 19.206 99.6957 18.5623 98.8679 18.0987L98.3793 18.9713C99.0516 19.3477 99.5765 19.864 99.9613 20.5262L100.826 20.0238ZM98.8679 18.0987C98.0381 17.634 97.118 17.405 96.1186 17.405V18.405C96.9593 18.405 97.7092 18.596 98.3793 18.9713L98.8679 18.0987ZM96.1186 17.405C95.1193 17.405 94.1992 17.634 93.3693 18.0987L93.8579 18.9713C94.5281 18.596 95.278 18.405 96.1186 18.405V17.405ZM93.3668 18.1002C92.5494 18.5641 91.9005 19.2077 91.4263 20.0238L92.2909 20.5262C92.6767 19.8623 93.1979 19.3459 93.8604 18.9698L93.3668 18.1002ZM91.4263 20.0238C90.9492 20.8449 90.7136 21.7575 90.7136 22.75H91.7136C91.7136 21.9225 91.9081 21.1851 92.2909 20.5262L91.4263 20.0238ZM90.7136 22.75C90.7136 23.7425 90.9492 24.6551 91.4263 25.4762L92.2909 24.9738C91.9081 24.3149 91.7136 23.5775 91.7136 22.75H90.7136ZM91.4263 25.4762C91.9005 26.2923 92.5494 26.9359 93.3668 27.3998L93.8604 26.5302C93.1979 26.1541 92.6767 25.6377 92.2909 24.9738L91.4263 25.4762ZM93.3693 27.4013C94.1992 27.866 95.1193 28.095 96.1186 28.095V27.095C95.278 27.095 94.5281 26.904 93.8579 26.5287L93.3693 27.4013ZM115.211 27.535H115.711V27.035H115.211V27.535ZM115.211 28V28.5H115.711V28H115.211ZM108.116 28H107.616V28.5H108.116V28ZM108.116 17.5V17H107.616V17.5H108.116ZM115.001 17.5H115.501V17H115.001V17.5ZM115.001 17.965V18.465H115.501V17.965H115.001ZM108.626 17.965V17.465H108.126V17.965H108.626ZM108.626 22.435H108.126V22.935H108.626V22.435ZM114.326 22.435H114.826V21.935H114.326V22.435ZM114.326 22.9V23.4H114.826V22.9H114.326ZM108.626 22.9V22.4H108.126V22.9H108.626ZM108.626 27.535H108.126V28.035H108.626V27.535ZM114.711 27.535V28H115.711V27.535H114.711ZM115.211 27.5H108.116V28.5H115.211V27.5ZM108.616 28V17.5H107.616V28H108.616ZM108.116 18H115.001V17H108.116V18ZM114.501 17.5V17.965H115.501V17.5H114.501ZM115.001 17.465H108.626V18.465H115.001V17.465ZM108.126 17.965V22.435H109.126V17.965H108.126ZM108.626 22.935H114.326V21.935H108.626V22.935ZM113.826 22.435V22.9H114.826V22.435H113.826ZM114.326 22.4H108.626V23.4H114.326V22.4ZM108.126 22.9V27.535H109.126V22.9H108.126ZM108.626 28.035H115.211V27.035H108.626V28.035ZM126.521 17.5H127.021V17H126.521V17.5ZM126.521 28V28.5H127.021V28H126.521ZM126.101 28L125.706 28.3073L125.857 28.5H126.101V28ZM118.646 18.43L119.04 18.1227L118.146 16.9745V18.43H118.646ZM118.646 28V28.5H119.146V28H118.646ZM118.136 28H117.636V28.5H118.136V28ZM118.136 17.5V17H117.636V17.5H118.136ZM118.556 17.5L118.95 17.1927L118.8 17H118.556V17.5ZM126.011 27.07L125.616 27.3773L126.511 28.5255V27.07H126.011ZM126.011 17.5V17H125.511V17.5H126.011ZM126.021 17.5V28H127.021V17.5H126.021ZM126.521 27.5H126.101V28.5H126.521V27.5ZM126.495 27.6927L119.04 18.1227L118.251 18.7373L125.706 28.3073L126.495 27.6927ZM118.146 18.43V28H119.146V18.43H118.146ZM118.646 27.5H118.136V28.5H118.646V27.5ZM118.636 28V17.5H117.636V28H118.636ZM118.136 18H118.556V17H118.136V18ZM118.161 17.8073L125.616 27.3773L126.405 26.7627L118.95 17.1927L118.161 17.8073ZM126.511 27.07V17.5H125.511V27.07H126.511ZM126.011 18H126.521V17H126.011V18ZM137.957 22.825V22.325H137.457V22.825H137.957ZM138.437 22.825H138.937V22.325H138.437V22.825ZM138.437 26.71L138.783 27.0713L138.937 26.9236V26.71H138.437ZM136.787 27.715L136.618 27.2445L136.616 27.2453L136.787 27.715ZM131.972 27.37L131.73 27.8073L131.972 27.37ZM130.007 25.465L129.575 25.7159L129.577 25.7199L130.007 25.465ZM130.007 20.035L129.577 19.7801L129.575 19.7841L130.007 20.035ZM136.832 17.785L136.661 18.2547L136.832 17.785ZM138.452 18.82L138.83 19.1481L139.132 18.8L138.81 18.4704L138.452 18.82ZM138.152 19.165L137.805 19.5247L138.184 19.8906L138.53 19.4931L138.152 19.165ZM132.227 18.55L132.472 18.9863L132.473 18.9852L132.227 18.55ZM130.457 20.29L130.89 20.5412L130.457 20.29ZM130.457 25.21L130.025 25.4612L130.457 25.21ZM132.227 26.965L131.979 27.3988L131.985 27.4026L132.227 26.965ZM137.957 26.5L138.292 26.8714L138.457 26.7225V26.5H137.957ZM137.957 23.325H138.437V22.325H137.957V23.325ZM137.937 22.825V26.71H138.937V22.825H137.937ZM138.092 26.3487C137.686 26.7371 137.197 27.0365 136.618 27.2445L136.956 28.1855C137.658 27.9335 138.269 27.5629 138.783 27.0713L138.092 26.3487ZM136.616 27.2453C136.045 27.4538 135.428 27.56 134.762 27.56V28.56C135.536 28.56 136.27 28.4362 136.959 28.1847L136.616 27.2453ZM134.762 27.56C133.81 27.56 132.964 27.3481 132.215 26.9327L131.73 27.8073C132.64 28.3119 133.655 28.56 134.762 28.56V27.56ZM132.215 26.9327C131.462 26.5154 130.872 25.9431 130.437 25.2101L129.577 25.7199C130.103 26.6069 130.823 27.3046 131.73 27.8073L132.215 26.9327ZM130.44 25.2141C130.017 24.4855 129.802 23.6681 129.802 22.75H128.802C128.802 23.8319 129.058 24.8245 129.575 25.7159L130.44 25.2141ZM129.802 22.75C129.802 21.8319 130.017 21.0145 130.44 20.2859L129.575 19.7841C129.058 20.6755 128.802 21.6681 128.802 22.75H129.802ZM130.437 20.2899C130.872 19.5569 131.462 18.9846 132.215 18.5673L131.73 17.6927C130.823 18.1954 130.103 18.8931 129.577 19.7801L130.437 20.2899ZM132.215 18.5673C132.964 18.1519 133.81 17.94 134.762 17.94V16.94C133.655 16.94 132.64 17.1881 131.73 17.6927L132.215 18.5673ZM134.762 17.94C135.461 17.94 136.092 18.047 136.661 18.2547L137.004 17.3153C136.313 17.063 135.564 16.94 134.762 16.94V17.94ZM136.661 18.2547C137.224 18.4602 137.699 18.7653 138.095 19.1696L138.81 18.4704C138.305 17.9547 137.701 17.5698 137.004 17.3153L136.661 18.2547ZM138.075 18.4919L137.775 18.8369L138.53 19.4931L138.83 19.1481L138.075 18.4919ZM138.5 18.8053C137.523 17.8624 136.267 17.405 134.777 17.405V18.405C136.047 18.405 137.041 18.7876 137.805 19.5247L138.5 18.8053ZM134.777 17.405C133.758 17.405 132.822 17.6391 131.981 18.1148L132.473 18.9852C133.153 18.6009 133.917 18.405 134.777 18.405V17.405ZM131.983 18.1137C131.155 18.5773 130.5 19.221 130.025 20.0388L130.89 20.5412C131.274 19.879 131.799 19.3627 132.472 18.9863L131.983 18.1137ZM130.025 20.0388C129.548 20.8591 129.312 21.7665 129.312 22.75H130.312C130.312 21.9335 130.506 21.2009 130.89 20.5412L130.025 20.0388ZM129.312 22.75C129.312 23.7335 129.548 24.6409 130.025 25.4612L130.89 24.9588C130.506 24.2991 130.312 23.5665 130.312 22.75H129.312ZM130.025 25.4612C130.5 26.2779 131.153 26.9256 131.979 27.3988L132.476 26.5312C131.801 26.1444 131.275 25.6221 130.89 24.9588L130.025 25.4612ZM131.985 27.4026C132.826 27.8669 133.76 28.095 134.777 28.095V27.095C133.915 27.095 133.149 26.9031 132.469 26.5274L131.985 27.4026ZM134.777 28.095C136.185 28.095 137.372 27.7002 138.292 26.8714L137.623 26.1286C136.922 26.7598 135.99 27.095 134.777 27.095V28.095ZM138.457 26.5V22.825H137.457V26.5H138.457ZM141.983 17.5V17H141.483V17.5H141.983ZM142.493 17.5H142.993V17H142.493V17.5ZM142.493 27.535H141.993V28.035H142.493V27.535ZM148.643 27.535H149.143V27.035H148.643V27.535ZM148.643 28V28.5H149.143V28H148.643ZM141.983 28H141.483V28.5H141.983V28ZM141.983 18H142.493V17H141.983V18ZM141.993 17.5V27.535H142.993V17.5H141.993ZM142.493 28.035H148.643V27.035H142.493V28.035ZM148.143 27.535V28H149.143V27.535H148.143ZM148.643 27.5H141.983V28.5H148.643V27.5ZM142.483 28V17.5H141.483V28H142.483ZM150.714 17.5V17H150.214V17.5H150.714ZM151.224 17.5H151.724V17H151.224V17.5ZM151.224 28V28.5H151.724V28H151.224ZM150.714 28H150.214V28.5H150.714V28ZM150.714 18H151.224V17H150.714V18ZM150.724 17.5V28H151.724V17.5H150.724ZM151.224 27.5H150.714V28.5H151.224V27.5ZM151.214 28V17.5H150.214V28H151.214ZM155.545 27.655L155.36 28.1197L155.362 28.1206L155.545 27.655ZM153.97 26.605L153.57 26.305L153.328 26.6265L153.591 26.9311L153.97 26.605ZM154.24 26.245L154.616 25.9157L154.21 25.4515L153.84 25.945L154.24 26.245ZM155.695 27.235L155.501 27.6962L155.51 27.6997L155.695 27.235ZM160.075 26.995L160.38 27.3905L160.382 27.3897L160.075 26.995ZM160.465 24.19L160.093 24.5252L160.099 24.5312L160.465 24.19ZM159.43 23.5L159.248 23.9659L159.258 23.9696L159.43 23.5ZM157.75 23.005L157.628 23.4901L157.633 23.4913L157.75 23.005ZM155.92 22.45L155.737 22.9156V22.9156L155.92 22.45ZM155.845 17.815L156.051 18.2705L156.055 18.2687L155.845 17.815ZM159.535 17.695L159.387 18.1727L159.389 18.1734L159.535 17.695ZM160.96 18.4L161.397 18.6428L161.606 18.2663L161.264 18.0037L160.96 18.4ZM160.735 18.805L160.439 19.2085L160.896 19.5431L161.172 19.0478L160.735 18.805ZM159.355 18.13L159.202 18.6063L159.213 18.6097L159.355 18.13ZM155.545 18.535L155.859 18.924L155.86 18.9233L155.545 18.535ZM155.185 21.37L154.813 21.7051L154.819 21.7114L154.825 21.7175L155.185 21.37ZM156.235 22.06L156.053 22.5258L156.057 22.5272L156.235 22.06ZM157.915 22.555L158.036 22.0699L158.033 22.0691L157.915 22.555ZM159.745 23.11L159.562 23.5757L159.571 23.579L159.745 23.11ZM160.9 23.92L160.516 24.2411L160.521 24.2467L160.526 24.2522L160.9 23.92ZM160.975 26.725L160.557 26.45L160.552 26.4572L160.975 26.725ZM159.76 27.7L159.96 28.1583L159.76 27.7ZM157.72 27.56C157.02 27.56 156.357 27.4361 155.727 27.1894L155.362 28.1206C156.112 28.4139 156.899 28.56 157.72 28.56V27.56ZM155.729 27.1903C155.103 26.9417 154.653 26.6325 154.349 26.2789L153.591 26.9311C154.026 27.4375 154.626 27.8283 155.36 28.1197L155.729 27.1903ZM154.37 26.905L154.64 26.545L153.84 25.945L153.57 26.305L154.37 26.905ZM153.863 26.5743C154.275 27.0447 154.829 27.4142 155.501 27.6961L155.888 26.7739C155.32 26.5358 154.904 26.2453 154.616 25.9157L153.863 26.5743ZM155.51 27.6997C156.202 27.9741 156.934 28.11 157.705 28.11V27.11C157.055 27.11 156.447 26.9959 155.879 26.7703L155.51 27.6997ZM157.705 28.11C158.806 28.11 159.726 27.8971 160.38 27.3905L159.769 26.5995C159.363 26.9129 158.703 27.11 157.705 27.11V28.11ZM160.382 27.3897C161.036 26.8807 161.385 26.2035 161.385 25.39H160.385C160.385 25.8765 160.193 26.2693 159.768 26.6003L160.382 27.3897ZM161.385 25.39C161.385 24.7925 161.214 24.2607 160.83 23.8488L160.099 24.5312C160.275 24.7193 160.385 24.9875 160.385 25.39H161.385ZM160.836 23.8549C160.499 23.4818 160.084 23.2071 159.601 23.0304L159.258 23.9696C159.595 24.0929 159.87 24.2782 160.093 24.5251L160.836 23.8549ZM159.611 23.0342C159.171 22.8623 158.586 22.6911 157.866 22.5187L157.633 23.4913C158.333 23.6589 158.868 23.8177 159.248 23.9658L159.611 23.0342ZM157.871 22.5199C157.121 22.3325 156.534 22.1535 156.102 21.9844L155.737 22.9156C156.225 23.1065 156.858 23.2975 157.628 23.4901L157.871 22.5199ZM156.102 21.9844C155.717 21.8337 155.394 21.6059 155.128 21.2979L154.371 21.9521C154.745 22.3841 155.202 22.7063 155.737 22.9156L156.102 21.9844ZM155.128 21.2979C154.906 21.041 154.77 20.6729 154.77 20.14H153.77C153.77 20.8471 153.954 21.469 154.371 21.9521L155.128 21.2979ZM154.77 20.14C154.77 19.7439 154.873 19.3869 155.082 19.0578L154.237 18.5222C153.926 19.0131 153.77 19.5561 153.77 20.14H154.77ZM155.082 19.0578C155.28 18.7452 155.592 18.4784 156.051 18.2705L155.638 17.3595C155.037 17.6316 154.559 18.0148 154.237 18.5222L155.082 19.0578ZM156.055 18.2687C156.51 18.0578 157.103 17.94 157.855 17.94V16.94C157.006 16.94 156.259 17.0722 155.634 17.3613L156.055 18.2687ZM157.855 17.94C158.374 17.94 158.884 18.0173 159.387 18.1727L159.682 17.2173C159.085 17.0327 158.475 16.94 157.855 16.94V17.94ZM159.389 18.1734C159.902 18.3292 160.321 18.5393 160.655 18.7963L161.264 18.0037C160.818 17.6607 160.287 17.4008 159.68 17.2166L159.389 18.1734ZM160.522 18.1572L160.297 18.5622L161.172 19.0478L161.397 18.6428L160.522 18.1572ZM161.03 18.4015C160.571 18.0658 160.058 17.8158 159.496 17.6503L159.213 18.6097C159.671 18.7442 160.078 18.9442 160.439 19.2085L161.03 18.4015ZM159.507 17.6538C158.961 17.4791 158.415 17.39 157.87 17.39V18.39C158.304 18.39 158.748 18.4608 159.202 18.6062L159.507 17.6538ZM157.87 17.39C156.789 17.39 155.883 17.6163 155.23 18.1467L155.86 18.9233C156.266 18.5937 156.91 18.39 157.87 18.39V17.39ZM155.23 18.146C154.597 18.6578 154.265 19.334 154.265 20.14H155.265C155.265 19.646 155.452 19.2522 155.859 18.924L155.23 18.146ZM154.265 20.14C154.265 20.7452 154.433 21.284 154.813 21.7051L155.556 21.0349C155.376 20.836 155.265 20.5548 155.265 20.14H154.265ZM154.825 21.7175C155.168 22.0721 155.579 22.3411 156.053 22.5258L156.416 21.5942C156.07 21.4589 155.781 21.2679 155.544 21.0225L154.825 21.7175ZM156.057 22.5272C156.504 22.6978 157.087 22.8685 157.797 23.0409L158.033 22.0691C157.342 21.9015 156.805 21.7422 156.413 21.5928L156.057 22.5272ZM157.793 23.0401C158.543 23.2275 159.13 23.4065 159.562 23.5756L159.927 22.6444C159.439 22.4535 158.806 22.2625 158.036 22.0699L157.793 23.0401ZM159.571 23.579C159.951 23.7193 160.263 23.9389 160.516 24.2411L161.283 23.5989C160.916 23.161 160.458 22.8407 159.918 22.641L159.571 23.579ZM160.526 24.2522C160.745 24.4983 160.88 24.8537 160.88 25.375H161.88C161.88 24.6763 161.695 24.0617 161.273 23.5878L160.526 24.2522ZM160.88 25.375C160.88 25.7671 160.773 26.1215 160.557 26.45L161.392 27C161.716 26.5085 161.88 25.9629 161.88 25.375H160.88ZM160.552 26.4572C160.357 26.765 160.04 27.0321 159.56 27.2417L159.96 28.1583C160.579 27.8879 161.072 27.505 161.397 26.9928L160.552 26.4572ZM159.56 27.2417C159.091 27.4464 158.483 27.56 157.72 27.56V28.56C158.576 28.56 159.328 28.4336 159.96 28.1583L159.56 27.2417ZM172.502 17.5H173.002V17H172.502V17.5ZM172.502 28V28.5H173.002V28H172.502ZM171.992 28H171.492V28.5H171.992V28ZM171.992 22.9H172.492V22.4H171.992V22.9ZM164.627 22.9V22.4H164.127V22.9H164.627ZM164.627 28V28.5H165.127V28H164.627ZM164.117 28H163.617V28.5H164.117V28ZM164.117 17.5V17H163.617V17.5H164.117ZM164.627 17.5H165.127V17H164.627V17.5ZM164.627 22.435H164.127V22.935H164.627V22.435ZM171.992 22.435V22.935H172.492V22.435H171.992ZM171.992 17.5V17H171.492V17.5H171.992ZM172.002 17.5V28H173.002V17.5H172.002ZM172.502 27.5H171.992V28.5H172.502V27.5ZM172.492 28V22.9H171.492V28H172.492ZM171.992 22.4H164.627V23.4H171.992V22.4ZM164.127 22.9V28H165.127V22.9H164.127ZM164.627 27.5H164.117V28.5H164.627V27.5ZM164.617 28V17.5H163.617V28H164.617ZM164.117 18H164.627V17H164.117V18ZM164.127 17.5V22.435H165.127V17.5H164.127ZM164.627 22.935H171.992V21.935H164.627V22.935ZM172.492 22.435V17.5H171.492V22.435H172.492ZM171.992 18H172.502V17H171.992V18ZM175.494 27.91L175.122 28.2445L175.14 28.264L175.159 28.2816L175.494 27.91ZM175.509 27.205L175.843 27.5766L175.853 27.5679L175.862 27.5586L175.509 27.205ZM176.199 27.205L175.827 27.5395L175.845 27.559L175.864 27.5766L176.199 27.205ZM176.199 27.91L176.552 28.2636L176.199 27.91ZM175.854 27.545C175.846 27.545 175.84 27.5444 175.838 27.5439C175.836 27.5436 175.835 27.5434 175.835 27.5433C175.835 27.5432 175.834 27.5431 175.834 27.5431C175.834 27.5431 175.834 27.5431 175.834 27.5431C175.834 27.5431 175.834 27.5431 175.834 27.5429C175.833 27.5426 175.832 27.5414 175.828 27.5384L175.159 28.2816C175.355 28.4579 175.596 28.545 175.854 28.545V27.545ZM175.865 27.5755C175.862 27.5722 175.861 27.5702 175.861 27.5697C175.861 27.5694 175.861 27.5693 175.861 27.5694C175.861 27.5694 175.861 27.5694 175.861 27.5694C175.861 27.5694 175.861 27.5692 175.86 27.5687C175.86 27.5682 175.86 27.5674 175.86 27.566C175.859 27.5633 175.859 27.5581 175.859 27.55H174.859C174.859 27.808 174.946 28.0487 175.122 28.2445L175.865 27.5755ZM175.859 27.55C175.859 27.5448 175.859 27.5437 175.859 27.5459C175.858 27.5482 175.857 27.5526 175.855 27.5581C175.852 27.5637 175.849 27.5686 175.847 27.5724C175.844 27.5762 175.842 27.5775 175.843 27.5766L175.174 26.8334C174.964 27.0225 174.859 27.2748 174.859 27.55H175.859ZM175.862 27.5586C175.868 27.5527 175.872 27.5501 175.873 27.5494C175.873 27.5488 175.872 27.5497 175.869 27.551C175.866 27.5524 175.863 27.5535 175.859 27.5543C175.855 27.555 175.853 27.555 175.854 27.555V26.555C175.579 26.555 175.34 26.6668 175.155 26.8514L175.862 27.5586ZM175.854 27.555C175.859 27.555 175.86 27.5555 175.858 27.555C175.856 27.5546 175.851 27.5534 175.846 27.551C175.84 27.5486 175.835 27.5457 175.831 27.5429C175.828 27.5402 175.826 27.5386 175.827 27.5395L176.57 26.8705C176.381 26.6604 176.129 26.555 175.854 26.555V27.555ZM175.864 27.5766C175.865 27.5775 175.864 27.5762 175.861 27.5724C175.858 27.5686 175.855 27.5637 175.853 27.5581C175.85 27.5526 175.849 27.5482 175.849 27.5459C175.848 27.5437 175.849 27.5448 175.849 27.55H176.849C176.849 27.2748 176.743 27.0225 176.533 26.8334L175.864 27.5766ZM175.849 27.55C175.849 27.5551 175.848 27.5572 175.848 27.5568C175.848 27.5564 175.849 27.5548 175.85 27.5527C175.851 27.5506 175.851 27.5495 175.851 27.5496C175.851 27.5498 175.849 27.5521 175.845 27.5564L176.552 28.2636C176.745 28.0709 176.849 27.8241 176.849 27.55H175.849ZM175.845 27.5564C175.846 27.5559 175.848 27.5539 175.852 27.5515C175.855 27.549 175.859 27.547 175.863 27.5456C175.866 27.5443 175.868 27.544 175.867 27.5442C175.866 27.5443 175.862 27.545 175.854 27.545V28.545C176.112 28.545 176.359 28.4571 176.552 28.2636L175.845 27.5564Z" fill="black"/>
</svg>
