<svg width="209" height="133" viewBox="0 0 209 133" fill="none" xmlns="http://www.w3.org/2000/svg">
<g clip-path="url(#clip0_534_9509)">
<path d="M175.754 -0.222168H35.929C31.0054 -0.222168 27 3.78563 27 8.71214V99.9559C27 104.882 31.0054 108.89 35.929 108.89H124.079C125.653 108.89 126.929 107.614 126.929 106.039C126.929 104.464 125.653 103.187 124.079 103.187H35.929C34.1481 103.187 32.6992 101.738 32.6992 99.9556V8.71214C32.6992 6.93019 34.1481 5.48044 35.929 5.48044H175.754C177.535 5.48044 178.984 6.93019 178.984 8.71214V48.2519C178.984 49.8265 180.259 51.1034 181.833 51.1034C183.407 51.1034 184.683 49.8269 184.683 48.2519V8.71214C184.683 3.78563 180.677 -0.222168 175.754 -0.222168Z" fill="#A0BCC2"/>
<path d="M169.674 54.5244C147.99 54.5244 130.349 72.1764 130.349 93.8732C130.349 115.57 147.99 133.222 169.674 133.222C191.358 133.222 209 115.57 209 93.8732C209 72.176 191.358 54.5244 169.674 54.5244ZM169.674 127.519C151.133 127.519 136.048 112.426 136.048 93.8732C136.048 75.3206 151.133 60.227 169.674 60.227C188.216 60.227 203.301 75.3206 203.301 93.8732C203.301 112.426 188.216 127.519 169.674 127.519Z" fill="#A0BCC2"/>
<path d="M75.4447 21.0679H51.1274C47.8799 21.0679 45.238 23.7113 45.238 26.9608V45.2096C45.238 48.4591 47.8799 51.1025 51.1274 51.1025H75.4447C78.6923 51.1025 81.3341 48.4591 81.3341 45.2096V26.9608C81.3341 23.7113 78.6923 21.0679 75.4447 21.0679ZM57.3965 45.3995H51.1274C51.0226 45.3995 50.9376 45.3145 50.9376 45.2096V26.9608C50.9376 26.8558 51.0226 26.7708 51.1274 26.7708H57.3968V45.3995H57.3965ZM75.6345 45.2096C75.6345 45.3145 75.5496 45.3995 75.4447 45.3995H63.0961V38.9365H66.3259C67.8995 38.9365 69.1757 37.6599 69.1757 36.085C69.1757 34.5101 67.8999 33.2335 66.3259 33.2335H63.0961V26.7705H75.4447C75.5496 26.7705 75.6345 26.8555 75.6345 26.9604V45.2096Z" fill="#A0BCC2"/>
<path d="M149.916 18.0269C146.551 18.0269 143.419 19.0409 140.805 20.7759C138.114 18.9915 134.944 18.0269 131.678 18.0269C122.565 18.0269 115.15 25.4456 115.15 34.5649C115.15 43.6841 122.565 51.1029 131.678 51.1029C135.045 51.1029 138.178 50.0881 140.793 48.3517C143.485 50.1347 146.658 51.1029 149.916 51.1029C159.03 51.1029 166.445 43.6841 166.445 34.5649C166.445 25.4456 159.03 18.0269 149.916 18.0269ZM136.525 44.25C135.065 44.9841 133.42 45.3999 131.678 45.3999C125.707 45.3999 120.85 40.5392 120.85 34.5649C120.85 28.5905 125.708 23.7295 131.678 23.7295C133.378 23.7295 135.037 24.1303 136.531 24.8797C134.557 27.6042 133.388 30.9494 133.388 34.5645C133.388 38.0808 134.506 41.4572 136.525 44.25ZM149.916 45.3999C148.22 45.3999 146.559 44.9984 145.064 44.2486C147.039 41.5241 148.207 38.1793 148.207 34.5645C148.207 32.9899 146.931 31.713 145.357 31.713C143.783 31.713 142.507 32.9896 142.507 34.5645C142.507 36.7117 141.877 38.7139 140.796 40.3991C139.693 38.6744 139.087 36.6573 139.087 34.5645C139.087 28.5898 143.945 23.7291 149.916 23.7291C155.887 23.7291 160.745 28.5898 160.745 34.5645C160.745 40.5392 155.888 45.3999 149.916 45.3999Z" fill="#A0BCC2"/>
<path d="M72.4051 66.6899H48.0878C46.5142 66.6899 45.238 67.9665 45.238 69.5414C45.238 71.1164 46.5138 72.3929 48.0878 72.3929H72.4051C73.9788 72.3929 75.2549 71.1164 75.2549 69.5414C75.2549 67.9665 73.9788 66.6899 72.4051 66.6899Z" fill="#A0BCC2"/>
<path d="M121.04 84.939H48.0878C46.5142 84.939 45.238 86.2155 45.238 87.7904C45.238 89.3654 46.5138 90.6419 48.0878 90.6419H121.04C122.614 90.6419 123.89 89.3654 123.89 87.7904C123.89 86.2155 122.614 84.939 121.04 84.939Z" fill="#A0BCC2"/>
<path d="M108.881 66.6899H84.5639C82.9902 66.6899 81.7141 67.9665 81.7141 69.5414C81.7141 71.1164 82.9899 72.3929 84.5639 72.3929H108.881C110.455 72.3929 111.731 71.1164 111.731 69.5414C111.731 67.9665 110.455 66.6899 108.881 66.6899Z" fill="#A0BCC2"/>
<path d="M127.119 66.6899H121.039C119.466 66.6899 118.19 67.9665 118.19 69.5414C118.19 71.1164 119.465 72.3929 121.039 72.3929H127.119C128.692 72.3929 129.969 71.1164 129.969 69.5414C129.969 67.9665 128.693 66.6899 127.119 66.6899Z" fill="#A0BCC2"/>
<path d="M192.967 79.6912C191.854 78.5775 190.05 78.5775 188.937 79.6912L163.595 105.048L150.412 91.8568C149.299 90.7432 147.494 90.7432 146.382 91.8568C145.269 92.9705 145.269 94.7755 146.382 95.8892L161.58 111.097C162.136 111.654 162.866 111.932 163.595 111.932C164.324 111.932 165.053 111.654 165.61 111.097L192.966 83.7235C194.08 82.6099 194.08 80.8048 192.967 79.6912Z" fill="#A0BCC2"/>
</g>
<defs>
<clipPath id="clip0_534_9509">
<rect width="209" height="133" fill="white"/>
</clipPath>
</defs>
</svg>
