<svg width="44" height="43" viewBox="0 0 44 43" fill="none" xmlns="http://www.w3.org/2000/svg">
<g clip-path="url(#clip0_537_3344)">
<path d="M1.29638 16.7222C1.73616 16.7222 2.09277 16.3656 2.09277 15.9258V1.59256H16.426C16.8658 1.59256 17.2224 1.23596 17.2224 0.796179C17.2224 0.3564 16.8656 0 16.4258 0H1.29638C0.856605 0 0.5 0.356605 0.5 0.796383V15.9258C0.5 16.3656 0.856605 16.7222 1.29638 16.7222Z" fill="#A0BCC2"/>
<path d="M42.7034 0H27.574C27.1342 0 26.7776 0.356605 26.7776 0.796383C26.7776 1.23616 27.1342 1.59277 27.574 1.59277H41.9072V15.926C41.9072 16.3658 42.2638 16.7224 42.7036 16.7224C43.1434 16.7224 43.5 16.3658 43.5 15.926V0.796383C43.4998 0.356605 43.1432 0 42.7034 0Z" fill="#A0BCC2"/>
<path d="M16.4258 41.4072H2.09256V27.074C2.09256 26.6342 1.73596 26.2776 1.29618 26.2776C0.8564 26.2776 0.5 26.6342 0.5 27.074V42.2034C0.5 42.6432 0.856605 42.9998 1.29638 42.9998H16.4258C16.8656 42.9998 17.2222 42.6432 17.2222 42.2034C17.2222 41.7636 16.8656 41.4072 16.4258 41.4072Z" fill="#A0BCC2"/>
<path d="M42.7034 26.2776C42.2636 26.2776 41.907 26.6342 41.907 27.074V41.4072H27.5738C27.134 41.4072 26.7774 41.7638 26.7774 42.2036C26.7774 42.6434 27.134 43 27.5738 43H42.7032C43.143 43 43.4996 42.6434 43.4996 42.2036V27.0742C43.4998 26.6342 43.1432 26.2776 42.7034 26.2776Z" fill="#A0BCC2"/>
<path d="M30.7591 21.4999H22.7961V13.5369H21.2035V21.4999H13.2407V23.0924H21.2035V31.0555H22.7961V23.0924H30.7591V21.4999Z" fill="#A0BCC2"/>
</g>
<defs>
<clipPath id="clip0_537_3344">
<rect width="43" height="43" fill="white" transform="translate(0.5)"/>
</clipPath>
</defs>
</svg>
