<svg width="68" height="68" viewBox="0 0 68 68" fill="none" xmlns="http://www.w3.org/2000/svg">
<g clip-path="url(#clip0_936_3283)">
<path d="M1.14073 29.4668H3.40744C4.03298 29.4668 4.54073 28.959 4.54073 28.3335C4.54073 27.7079 4.03298 27.2002 3.40744 27.2002H1.14073C0.515179 27.2002 0.00743675 27.7079 0.00743675 28.3335C0.00743675 28.959 0.515179 29.4668 1.14073 29.4668Z" fill="#A0BCC2"/>
<path d="M58.713 11.5612C52.9874 5.83565 45.4587 2.57497 37.4074 2.29394V1.13329C37.4074 0.507742 36.8997 0 36.2742 0C35.6486 0 35.1409 0.507742 35.1409 1.13329V2.2938C27.0896 2.57484 19.5609 5.83552 13.8353 11.5611C10.4489 14.9475 7.93063 18.9379 6.34857 23.4225C6.14005 24.013 6.45057 24.6601 7.04105 24.8687C7.62928 25.0785 8.2786 24.7679 8.48605 24.1775C9.95483 20.0135 12.2941 16.3087 15.4379 13.1637C21.0036 7.599 28.4032 4.53342 36.2742 4.53342C44.1452 4.53342 51.5447 7.59913 57.1104 13.1637C68.599 24.6535 68.599 43.3477 57.1116 54.8364C55.5194 56.4287 53.7729 57.808 51.9131 58.9776C51.8191 58.9969 51.7238 59.0082 51.6343 59.0524C51.4711 59.134 51.3465 59.2552 51.2445 59.3914C46.7576 62.0479 41.626 63.4668 36.2743 63.4668C30.9227 63.4668 25.791 62.0468 21.303 59.3903C21.201 59.2543 21.0763 59.1341 20.9143 59.0526C20.8258 59.0083 20.7307 58.9981 20.6377 58.9788C18.778 57.8081 17.0303 56.4288 15.438 54.8366C12.2918 51.6905 9.95151 47.9833 8.4838 43.8206C8.27528 43.2301 7.62809 42.9196 7.0376 43.1281C6.44712 43.3366 6.1378 43.9838 6.34631 44.5743C7.92731 49.06 10.4478 53.0516 13.8353 56.4391C15.3959 57.9996 17.0926 59.3733 18.8956 60.5576L15.9931 66.3603C15.7132 66.9201 15.941 67.6001 16.5009 67.8813C16.6629 67.9617 16.8364 68.0003 17.0064 68.0003C17.4223 68.0003 17.8224 67.7713 18.0219 67.3735L20.8416 61.734C25.5076 64.3408 30.7821 65.7336 36.2742 65.7336C41.7663 65.7336 47.0409 64.3408 51.7079 61.7351L54.5264 67.3734C54.7259 67.7712 55.126 68.0001 55.5419 68.0001C55.7119 68.0001 55.8854 67.9616 56.0474 67.8811C56.6072 67.6001 56.8351 66.9201 56.5552 66.3602L53.6539 60.5586C55.4559 59.3732 57.1536 57.9996 58.7142 56.4389C71.0856 44.0663 71.0856 23.9348 58.713 11.5612Z" fill="#A0BCC2"/>
<path d="M2.27415 34.0001C2.27415 34.6256 2.78189 35.1333 3.40744 35.1333H9.33937L6.9696 39.0831C6.75883 39.4333 6.75312 39.8696 6.95486 40.2255C7.1554 40.5802 7.53286 40.8001 7.94086 40.8001H18.1409C18.4854 40.8001 18.8106 40.6436 19.0261 40.3751L23.2193 35.1333H25.9246C25.9756 35.1401 26.0221 35.1639 26.0753 35.1639H26.0788C26.132 35.1639 26.1763 35.1401 26.2273 35.1333H32.8731H32.8753H32.8776H36.2741C36.8997 35.1333 37.4074 34.6256 37.4074 34.0001C37.4074 33.3745 36.8997 32.8668 36.2741 32.8668H34.3214C34.4189 32.699 34.5311 32.5381 34.6716 32.3975C35.1001 31.9691 35.6689 31.7333 36.2741 31.7333C36.8794 31.7333 37.4483 31.9691 37.8767 32.3975C38.3051 32.826 38.5409 33.3948 38.5409 34.0001C38.5409 34.6063 38.3051 35.1753 37.8779 35.6026C37.4506 36.031 36.8806 36.2666 36.2741 36.2666C35.6474 36.2666 35.1408 36.7744 35.1408 37.3999C35.1408 38.0267 35.6486 38.5332 36.2741 38.5332C37.4857 38.5332 38.6247 38.0607 39.4804 37.206C41.2484 35.4392 41.2472 32.5616 39.4792 30.7948C38.6235 29.939 37.4857 29.4665 36.2741 29.4665C35.0637 29.4665 33.9247 29.939 33.0679 30.7948C32.4877 31.3762 32.1012 32.0913 31.9029 32.8665H27.2869C27.5328 30.8752 28.4201 29.0325 29.8629 27.5885C33.3989 24.056 39.1506 24.0548 42.6854 27.5885C46.2202 31.1245 46.2202 36.8762 42.6854 40.411C39.1505 43.9458 33.3977 43.9458 29.8629 40.411C29.1296 39.6778 28.5346 38.838 28.0926 37.9132C27.8218 37.3488 27.1429 37.1108 26.5808 37.3795C26.0164 37.6503 25.7773 38.3269 26.0481 38.8913C26.6001 40.0473 27.3446 41.0978 28.2604 42.0136C30.4704 44.2236 33.3717 45.3274 36.2741 45.3274C39.1766 45.3274 42.0791 44.2236 44.2879 42.0136C48.7067 37.5958 48.7067 30.406 44.2879 25.986C39.8691 21.5683 32.6792 21.5683 28.2604 25.986C26.3881 27.8595 25.2536 30.2688 24.9986 32.8665H23.2181L20.9266 30.0025C21.6349 27.2768 23.0481 24.787 25.0553 22.781C28.0519 19.7845 32.0356 18.1332 36.2741 18.1332C40.5127 18.1332 44.4964 19.7845 47.4929 22.781C53.6797 28.9678 53.6797 39.033 47.4929 45.2198C44.4964 48.2163 40.5127 49.8665 36.2741 49.8665C32.0356 49.8665 28.0519 48.2152 25.0553 45.2187C24.0263 44.1908 23.1468 43.0337 22.4408 41.7802C22.1336 41.235 21.4446 41.0412 20.8972 41.3484C20.3522 41.6556 20.1595 42.3469 20.4655 42.892C21.2735 44.3245 22.2777 45.6472 23.453 46.8212C26.8767 50.2462 31.4305 52.1332 36.2744 52.1332C41.1182 52.1332 45.672 50.2474 49.0959 46.8224C56.1667 39.7527 56.1667 28.2482 49.0959 21.1785C45.6721 17.7535 41.1183 15.8665 36.2744 15.8665C31.4306 15.8665 26.8769 17.7535 23.453 21.1785C21.5512 23.0802 20.1152 25.3627 19.2165 27.8629L19.0259 27.6251C18.8106 27.3565 18.4854 27.2001 18.1407 27.2001H14.6489C15.7381 23.7321 17.6534 20.5655 20.2465 17.9725C24.5282 13.692 30.2198 11.3335 36.274 11.3335C42.3283 11.3335 48.0198 13.692 52.3016 17.9725C61.1381 26.8102 61.1393 41.19 52.3027 50.0288C48.021 54.3093 42.3295 56.6668 36.2752 56.6668C30.2209 56.6668 24.5282 54.3083 20.2465 50.0277C18.3878 48.169 16.8817 46.0327 15.7709 43.6777C15.5035 43.1122 14.828 42.8707 14.2625 43.1372C13.6958 43.4034 13.4532 44.0789 13.7207 44.6456C14.9435 47.2364 16.6005 49.5869 18.6439 51.6304C23.3541 56.3394 29.6157 58.9336 36.2752 58.9336C42.9347 58.9336 49.1964 56.3394 53.9054 51.6316C63.6259 41.9098 63.6259 26.0908 53.9042 16.3701C49.1952 11.6611 42.9335 9.06689 36.274 9.06689C29.6145 9.06689 23.3528 11.6611 18.6438 16.3701C15.6246 19.3893 13.4508 23.1214 12.296 27.2002H7.94072C7.53272 27.2002 7.15527 27.4201 6.95472 27.7747C6.75298 28.1305 6.75869 28.567 6.96947 28.9172L9.33924 32.8669H3.40744C2.78189 32.8668 2.27415 33.3745 2.27415 34.0001ZM17.0074 32.8668H11.9822L9.94221 29.4668H17.5967L21.2222 34.0001L17.5967 38.5333H9.94221L11.9822 35.1333H17.0074C17.633 35.1333 18.1407 34.6256 18.1407 34.0001C18.1407 33.3745 17.633 32.8668 17.0074 32.8668Z" fill="#A0BCC2"/>
<path d="M3.40744 38.5332H1.14073C0.515179 38.5332 0.00743675 39.0409 0.00743675 39.6665C0.00743675 40.292 0.515179 40.7998 1.14073 40.7998H3.40744C4.03298 40.7998 4.54073 40.292 4.54073 39.6665C4.54073 39.0409 4.03298 38.5332 3.40744 38.5332Z" fill="#A0BCC2"/>
</g>
<defs>
<clipPath id="clip0_936_3283">
<rect width="68" height="68" fill="white"/>
</clipPath>
</defs>
</svg>
