<svg width="66" height="66" viewBox="0 0 66 66" fill="none" xmlns="http://www.w3.org/2000/svg">
<path d="M33 0C14.7745 0 0 14.7745 0 33C0 51.2255 14.7745 66 33 66C51.2255 66 66 51.2255 66 33C66 14.7745 51.2255 0 33 0Z" fill="#40B3E0"/>
<path d="M49.0572 18.9828L43.1631 48.7001C43.1631 48.7001 42.3389 50.7611 40.072 49.7718L26.4703 39.3438L21.5244 36.9534L13.1986 34.1505C13.1986 34.1505 11.9209 33.6972 11.7971 32.708C11.6736 31.7188 13.2399 31.1831 13.2399 31.1831L46.3368 18.1996C46.3368 18.1996 49.0572 17.0044 49.0572 18.9828Z" fill="white"/>
<path d="M25.4249 48.3665C25.4249 48.3665 25.0279 48.3294 24.5331 46.7629C24.0386 45.1967 21.5245 36.9534 21.5245 36.9534L41.5145 24.2587C41.5145 24.2587 42.6687 23.558 42.6274 24.2587C42.6274 24.2587 42.8334 24.3822 42.2152 24.9592C41.597 25.5364 26.5116 39.0966 26.5116 39.0966" fill="#D2E5F1"/>
<path d="M31.6855 43.3425L26.3055 48.2476C26.3055 48.2476 25.885 48.5668 25.4248 48.3667L26.455 39.2554" fill="#B5CFE4"/>
</svg>
