<svg width="66" height="67" viewBox="0 0 66 67" fill="none" xmlns="http://www.w3.org/2000/svg">
<g clip-path="url(#clip0_975_3218)">
<path d="M56 -0.443848H10C4.47715 -0.443848 0 4.0333 0 9.55615V56.5562C0 62.079 4.47715 66.5562 10 66.5562H56C61.5229 66.5562 66 62.079 66 56.5562V9.55615C66 4.0333 61.5229 -0.443848 56 -0.443848Z" fill="#7D3DAF"/>
<path d="M53.8733 21.5968L53.8603 21.5439C52.806 17.2172 48.0529 12.5744 43.688 11.6085L43.6387 11.5982C36.5786 10.2309 29.4201 10.2309 22.3614 11.5982L22.3107 11.6085C17.9473 12.5744 13.1942 17.2172 12.1384 21.5439L12.1268 21.5968C10.8234 27.6392 10.8234 33.7668 12.1268 39.8092L12.1384 39.8621C13.1491 44.0042 17.5483 48.4336 21.7503 49.6518V54.4816C21.7503 56.2296 23.8488 57.0882 25.0421 55.8268L29.8625 50.7402C30.908 50.7996 31.954 50.8326 33.0001 50.8326C36.554 50.8326 40.1094 50.4916 43.6387 49.8079L43.688 49.7977C48.0529 48.8318 52.806 44.189 53.8603 39.8623L53.8733 39.8093C55.1767 33.7668 55.1767 27.6392 53.8733 21.5968ZM50.0587 38.933C49.3549 41.7557 45.7459 45.265 42.8784 45.9133C39.1245 46.638 35.3408 46.9477 31.561 46.8414C31.4858 46.8394 31.4136 46.8689 31.3611 46.9236C30.8247 47.4826 27.8415 50.5914 27.8415 50.5914L24.0979 54.4917C23.8241 54.7814 23.3433 54.5844 23.3433 54.1845V46.1835C23.3433 46.0514 23.2504 45.9391 23.1225 45.9136C23.1218 45.9135 23.121 45.9133 23.1203 45.9132C20.2528 45.2648 16.6453 41.7556 15.94 38.9328C14.767 33.4712 14.767 27.9345 15.94 22.4729C16.6453 19.6501 20.2528 16.1409 23.1203 15.4925C29.6764 14.2267 36.3238 14.2267 42.8784 15.4925C45.7473 16.1409 49.3549 19.6501 50.0587 22.4729C51.2331 27.9347 51.2331 33.4713 50.0587 38.933Z" fill="white"/>
<path d="M39.2377 42.6263C38.7969 42.4905 38.3768 42.3992 37.9866 42.2348C33.9438 40.5321 30.223 38.3354 27.2757 34.968C25.5997 33.0531 24.2879 30.8912 23.179 28.6033C22.6531 27.5183 22.21 26.3909 21.7583 25.2707C21.3464 24.2493 21.953 23.194 22.5919 22.4244C23.1913 21.7021 23.9626 21.1493 24.7979 20.7419C25.4499 20.4239 26.0931 20.6072 26.5693 21.1683C27.5987 22.3811 28.5442 23.6561 29.3099 25.062C29.7807 25.9267 29.6515 26.9838 28.7982 27.5723C28.5908 27.7153 28.4018 27.8832 28.2086 28.0448C28.0392 28.1864 27.8798 28.3294 27.7636 28.5211C27.5513 28.8719 27.5412 29.2856 27.6779 29.667C28.7302 32.6026 30.5038 34.8853 33.4144 36.1148C33.8802 36.3115 34.348 36.5406 34.8845 36.4771C35.7831 36.3705 36.0741 35.3699 36.7038 34.8471C37.3193 34.3362 38.1058 34.3295 38.7688 34.7554C39.4319 35.1814 40.0748 35.6388 40.7138 36.101C41.341 36.5547 41.9655 36.9985 42.544 37.5158C43.1003 38.0131 43.2919 38.6656 42.9786 39.3405C42.4051 40.5766 41.5707 41.605 40.3669 42.2614C40.027 42.4465 39.6211 42.5065 39.2377 42.6263C38.7969 42.4904 39.6211 42.5065 39.2377 42.6263Z" fill="white"/>
<path d="M33.0111 19.3284C38.2993 19.4788 42.6426 23.0415 43.5734 28.3488C43.732 29.2531 43.7885 30.1776 43.859 31.0955C43.8887 31.4815 43.6733 31.8483 43.2629 31.8533C42.839 31.8585 42.6483 31.4984 42.6208 31.1125C42.5663 30.3486 42.5285 29.5813 42.4248 28.8238C41.8774 24.8248 38.7362 21.5163 34.8151 20.8064C34.2251 20.6995 33.6212 20.6714 33.0235 20.6077C32.6457 20.5675 32.1508 20.5442 32.0671 20.0675C31.9969 19.6677 32.3293 19.3494 32.7042 19.329C32.8062 19.3233 32.9087 19.328 33.0111 19.3284C38.2993 19.4788 32.9087 19.328 33.0111 19.3284Z" fill="white"/>
<path d="M41.0476 29.9042C41.0389 29.9713 41.0342 30.1289 40.9956 30.2773C40.8552 30.8163 40.0503 30.8838 39.8649 30.3398C39.8101 30.1784 39.8018 29.9948 39.8015 29.821C39.7996 28.684 39.5562 27.5481 38.9914 26.5589C38.4108 25.5421 37.5237 24.6873 36.4833 24.1701C35.8542 23.8574 35.1739 23.6631 34.4844 23.5472C34.183 23.4966 33.8784 23.4659 33.5756 23.4231C33.2086 23.3714 33.0127 23.134 33.0301 22.7669C33.0463 22.4228 33.2939 22.1754 33.6632 22.1966C34.8768 22.2666 36.049 22.5328 37.1279 23.1128C39.322 24.2923 40.5753 26.1541 40.9411 28.6402C40.9576 28.7528 40.9843 28.8644 40.9927 28.9774C41.0134 29.2566 41.0264 29.5361 41.0476 29.9042C41.0389 29.9713 41.0264 29.5361 41.0476 29.9042Z" fill="white"/>
<path d="M37.7583 29.7742C37.3159 29.7823 37.0791 29.5337 37.0335 29.1219C37.0018 28.8348 36.9767 28.5438 36.9093 28.2645C36.7763 27.7144 36.4883 27.2045 36.0324 26.8674C35.8171 26.7082 35.5733 26.5922 35.3178 26.5174C34.9933 26.4222 34.6562 26.4484 34.3324 26.3679C33.9808 26.2804 33.7863 25.9913 33.8416 25.6564C33.8919 25.3517 34.184 25.1138 34.512 25.1379C36.5623 25.2882 38.0276 26.3642 38.2367 28.8144C38.2515 28.9872 38.2688 29.17 38.231 29.3354C38.1663 29.6185 37.9598 29.7604 37.7583 29.7742C37.3159 29.7823 37.9598 29.7604 37.7583 29.7742Z" fill="white"/>
</g>
<defs>
<clipPath id="clip0_975_3218">
<rect width="66" height="67" fill="white"/>
</clipPath>
</defs>
</svg>
