<svg width="43" height="42" viewBox="0 0 43 42" fill="none" xmlns="http://www.w3.org/2000/svg">
<g clip-path="url(#clip0_533_3337)">
<path d="M39.975 2.30933H3.02497C1.63274 2.30933 0.5 3.44197 0.5 4.83429V29.7756C0.5 31.1678 1.63274 32.3005 3.02497 32.3005H39.9751C41.3674 32.3005 42.5001 31.1678 42.5001 29.7756V4.83429C42.5 3.44197 41.3673 2.30933 39.975 2.30933ZM41.1452 29.7756C41.1452 30.4208 40.6202 30.9456 39.975 30.9456H3.02497C2.37979 30.9456 1.85484 30.4208 1.85484 29.7756V4.83429C1.85484 4.18912 2.37979 3.66416 3.02497 3.66416H39.9751C40.6203 3.66416 41.1453 4.18903 41.1453 4.83429V29.7756H41.1452Z" fill="#A0BCC2"/>
<path d="M21.5 16.5967C24.4203 16.5967 26.7962 14.2209 26.7962 11.3005C26.7962 8.38024 24.4203 6.00439 21.5 6.00439C18.5797 6.00439 16.2039 8.38024 16.2039 11.3005C16.2039 14.2209 18.5797 16.5967 21.5 16.5967ZM21.5 7.35914C23.6733 7.35914 25.4413 9.12721 25.4413 11.3005C25.4413 13.4737 23.6733 15.2418 21.5 15.2418C19.3268 15.2418 17.5587 13.4737 17.5587 11.3005C17.5587 9.12721 19.3268 7.35914 21.5 7.35914Z" fill="#A0BCC2"/>
<path d="M14.395 23.9373C14.7417 24.0777 15.1367 23.9104 15.2771 23.5636C16.3093 21.0149 18.7518 19.368 21.5 19.368C24.2482 19.368 26.6908 21.0149 27.7229 23.5636C27.8295 23.8271 28.0832 23.9869 28.351 23.9869C28.4357 23.9869 28.5218 23.971 28.605 23.9373C28.9518 23.7968 29.1191 23.4019 28.9787 23.0551C27.7385 19.9922 24.8029 18.0132 21.5 18.0132C18.1971 18.0132 15.2616 19.9922 14.0213 23.0551C13.8809 23.4018 14.0482 23.7968 14.395 23.9373Z" fill="#A0BCC2"/>
<path d="M39.1129 26.3269H3.88711C3.51299 26.3269 3.20969 26.6302 3.20969 27.0043C3.20969 27.3784 3.51299 27.6817 3.88711 27.6817H39.1129C39.487 27.6817 39.7903 27.3784 39.7903 27.0043C39.7903 26.6302 39.487 26.3269 39.1129 26.3269Z" fill="#A0BCC2"/>
<path d="M32.585 38.3359H26.7961V34.3329C26.7961 33.9588 26.4928 33.6555 26.1187 33.6555C25.7446 33.6555 25.4413 33.9588 25.4413 34.3329V38.3359H17.5587V34.3329C17.5587 33.9588 17.2554 33.6555 16.8813 33.6555C16.5071 33.6555 16.2038 33.9588 16.2038 34.3329V38.3359H10.415C10.0409 38.3359 9.73755 38.6392 9.73755 39.0133C9.73755 39.3874 10.0409 39.6907 10.415 39.6907H32.585C32.9591 39.6907 33.2624 39.3874 33.2624 39.0133C33.2624 38.6392 32.9591 38.3359 32.585 38.3359Z" fill="#A0BCC2"/>
</g>
<defs>
<clipPath id="clip0_533_3337">
<rect width="42" height="42" fill="white" transform="translate(0.5)"/>
</clipPath>
</defs>
</svg>
