<svg width="66" height="66" viewBox="0 0 66 66" fill="none" xmlns="http://www.w3.org/2000/svg">
<path d="M23.3941 1.63379H42.6386C60.2168 1.63379 64.3663 5.81597 64.3663 23.3942V42.6387C64.3663 60.217 60.1842 64.3665 42.6059 64.3665H23.3614C5.78317 64.3665 1.63367 60.1843 1.63367 42.6061V23.3615C1.63367 5.81597 5.81585 1.63379 23.3941 1.63379Z" fill="#5181B8"/>
<path d="M0 10C0 4.47715 4.47715 0 10 0H56C61.5229 0 66 4.47715 66 10V56C66 61.5229 61.5228 66 56 66H10C4.47715 66 0 61.5228 0 56V10Z" fill="#5181B8"/>
<path fill-rule="evenodd" clip-rule="evenodd" d="M52.996 23.2308C53.2901 22.2506 52.996 21.5645 51.6238 21.5645H47.0495C45.8733 21.5645 45.3505 22.1852 45.0564 22.8714C45.0564 22.8714 42.7366 28.5565 39.4366 32.2159C38.3584 33.2942 37.901 33.6209 37.3129 33.6209C37.0188 33.6209 36.5941 33.2942 36.5941 32.314V23.2308C36.5941 22.0546 36.2673 21.5645 35.2871 21.5645H28.099C27.3802 21.5645 26.9228 22.1199 26.9228 22.61C26.9228 23.7209 28.5564 23.9823 28.7525 27.0536V33.7843C28.7525 35.2546 28.4911 35.5159 27.903 35.5159C26.3673 35.5159 22.5772 29.8308 20.3554 23.2961C19.898 22.0872 19.4733 21.5645 18.297 21.5645H13.7228C12.4158 21.5645 12.1544 22.1852 12.1544 22.8714C12.1544 24.0803 13.6901 30.0922 19.3752 38.0318C23.1653 43.4555 28.4911 46.3961 33.3267 46.3961C36.2347 46.3961 36.5941 45.7427 36.5941 44.6318V40.515C36.5941 39.208 36.8554 38.9466 37.803 38.9466C38.4891 38.9466 39.6327 39.2734 42.3446 41.8872C45.4485 44.9912 45.9713 46.3961 47.703 46.3961H52.2772C53.5842 46.3961 54.2376 45.7427 53.8455 44.4684C53.4208 43.1942 51.9505 41.3318 49.9901 39.11C48.9119 37.8357 47.3109 36.4961 46.8535 35.81C46.1673 34.9278 46.3634 34.5357 46.8535 33.7843C46.8535 33.7516 52.4406 25.91 52.996 23.2308Z" fill="white"/>
</svg>
