<svg width="46" height="45" viewBox="0 0 46 45" fill="none" xmlns="http://www.w3.org/2000/svg">
<path d="M38.0313 0H13.9812C12.3494 0 11.0219 1.32759 11.0219 2.95928V3.00621H10.975C9.3432 3.00621 8.0157 4.3338 8.0157 5.96549V6.01242H7.96877C6.33699 6.01242 5.00949 7.34001 5.00949 8.9717V42.0405C5.00949 43.6723 6.33708 44.9998 7.96877 44.9998H32.0189C33.6507 44.9998 34.9782 43.6722 34.9782 42.0405V41.9936H35.0251C36.6569 41.9936 37.9844 40.666 37.9844 39.0343V38.9874H38.0313C39.6631 38.9874 40.9906 37.6598 40.9906 36.0281V2.95928C40.9906 1.32759 39.6631 0 38.0313 0ZM33.5689 42.0407C33.5689 42.8955 32.8736 43.5909 32.0188 43.5909H7.96868C7.11394 43.5909 6.41855 42.8955 6.41855 42.0407V29.9687H33.5689V42.0407H33.5689ZM33.5689 28.5595H6.41855V8.97179C6.41855 8.11705 7.11394 7.42166 7.96868 7.42166H32.0188C32.8736 7.42166 33.5689 8.11705 33.5689 8.97179V28.5595ZM36.5751 39.0344C36.5751 39.8892 35.8798 40.5845 35.025 40.5845H34.9781V26.9624H36.5751V39.0344ZM36.5751 25.5532H34.9781V8.97179C34.9781 7.34001 33.6505 6.01251 32.0188 6.01251H9.42485V5.96558C9.42485 5.11084 10.1202 4.41545 10.975 4.41545H35.0251C35.8798 4.41545 36.5752 5.11084 36.5752 5.96558V25.5532H36.5751ZM39.5814 36.0282C39.5814 36.8829 38.8861 37.5783 38.0313 37.5783H37.9844V23.9562H39.5814V36.0282ZM39.5814 22.5469H37.9844V5.96558C37.9844 4.3338 36.6568 3.0063 35.0251 3.0063H12.4311V2.95928C12.4311 2.10454 13.1265 1.40915 13.9812 1.40915H38.0313C38.8861 1.40915 39.5814 2.10454 39.5814 2.95928V22.5469Z" fill="#A0BCC2"/>
<path d="M21.4241 24.5662L17.9721 12.1389C17.7077 11.1869 16.8331 10.522 15.845 10.522H14.3722C13.3841 10.522 12.5094 11.1869 12.245 12.1388L8.79282 24.5662C8.68876 24.9411 8.90822 25.3295 9.28325 25.4337C9.65828 25.5377 10.0466 25.3182 10.1507 24.9433L11.0512 21.7015H19.1658L20.0663 24.9432C20.1529 25.2552 20.4362 25.4595 20.7449 25.4595C20.8073 25.4595 20.8707 25.4512 20.9339 25.4337C21.3088 25.3295 21.5283 24.9411 21.4241 24.5662ZM11.4426 20.2923L13.6028 12.5159C13.6984 12.1717 14.0148 11.9311 14.3722 11.9311H15.845C16.2024 11.9311 16.5188 12.1716 16.6143 12.5159L18.7744 20.2923H11.4426Z" fill="#A0BCC2"/>
<path d="M30.5156 24.0502C30.4897 24.0502 30.4687 24.0292 30.4687 24.0032V21.3727V20.6212V17.2392C30.4687 16.8501 30.1532 16.5345 29.7641 16.5345C29.3749 16.5345 29.0594 16.85 29.0594 17.2392V17.5378C28.3417 16.9137 27.4055 16.5345 26.3819 16.5345C24.1286 16.5345 22.2953 18.3678 22.2953 20.6212V21.3727C22.2953 23.6261 24.1285 25.4594 26.3819 25.4594C27.433 25.4594 28.3924 25.0603 29.1173 24.4059C29.2926 25.0134 29.8525 25.4594 30.5155 25.4594C30.9046 25.4594 31.2201 25.144 31.2201 24.7548C31.2201 24.3656 30.9048 24.0502 30.5156 24.0502ZM29.0595 21.3727C29.0595 22.849 27.8584 24.0501 26.382 24.0501C24.9056 24.0501 23.7046 22.849 23.7046 21.3727V20.6211C23.7046 19.1447 24.9057 17.9437 26.382 17.9437C27.8583 17.9437 29.0595 19.1448 29.0595 20.6211V21.3727Z" fill="#A0BCC2"/>
<path d="M29.764 33.069H10.2233C9.83423 33.069 9.51871 33.3844 9.51871 33.7736C9.51871 34.1627 9.83415 34.4782 10.2233 34.4782H29.764C30.1531 34.4782 30.4687 34.1628 30.4687 33.7736C30.4687 33.3844 30.1532 33.069 29.764 33.069Z" fill="#A0BCC2"/>
<path d="M22.2484 39.0814H10.2233C9.83423 39.0814 9.51871 39.3969 9.51871 39.786C9.51871 40.1751 9.83415 40.4907 10.2233 40.4907H22.2483C22.6374 40.4907 22.953 40.1752 22.953 39.786C22.953 39.3969 22.6375 39.0814 22.2484 39.0814Z" fill="#A0BCC2"/>
<path d="M14.7325 36.0752H10.2233C9.83423 36.0752 9.51871 36.3906 9.51871 36.7798C9.51871 37.1689 9.83415 37.4844 10.2233 37.4844H14.7325C15.1216 37.4844 15.4371 37.169 15.4371 36.7798C15.4371 36.3906 15.1216 36.0752 14.7325 36.0752Z" fill="#A0BCC2"/>
<path d="M29.7641 36.0752H17.739C17.35 36.0752 17.0344 36.3906 17.0344 36.7798C17.0344 37.1689 17.3499 37.4844 17.739 37.4844H29.7641C30.1532 37.4844 30.4687 37.169 30.4687 36.7798C30.4687 36.3906 30.1532 36.0752 29.7641 36.0752Z" fill="#A0BCC2"/>
</svg>
