<svg width="68" height="68" viewBox="0 0 68 68" fill="none" xmlns="http://www.w3.org/2000/svg">
<path d="M67.9801 0H0.0199219C0.00891933 0 0 0.00891933 0 0.0199219V67.9801C0 67.9911 0.00891933 68 0.0199219 68H67.9801C67.9911 68 68 67.9911 68 67.9801V0.0199219C68 0.00891933 67.9911 0 67.9801 0Z" fill="#25D366"/>
<path d="M16.3359 52.1953L18.1953 43.5625C15.8055 39.7931 14.8732 35.2811 15.5734 30.8732C16.2736 26.4653 18.5581 22.4643 21.9984 19.621C25.4386 16.7777 29.7982 15.2874 34.2591 15.4297C38.72 15.5721 42.9757 17.3373 46.2277 20.3942C49.4797 23.451 51.5045 27.5895 51.9222 32.0331C52.34 36.4767 51.1219 40.92 48.4966 44.5294C45.8713 48.1388 42.0192 50.6662 37.663 51.6374C33.3068 52.6087 28.7458 51.957 24.8359 49.8047L16.3359 52.1953Z" fill="#25D366" stroke="white" stroke-width="3"/>
<path d="M40.9063 36.2578C40.5078 35.9921 40.1094 35.8593 39.7109 36.3906L38.1172 38.5156C37.7188 38.7812 37.4531 38.914 36.9219 38.6484C34.9297 37.5859 32.1406 36.3906 29.75 32.4062C29.6172 31.8749 29.8828 31.6093 30.1484 31.3437L31.3438 29.4843C31.6094 29.2187 31.4766 28.9531 31.3438 28.6874L29.75 24.8359C29.3516 23.7734 28.9531 23.9062 28.5547 23.9062H27.4922C27.2266 23.9062 26.6953 24.039 26.1641 24.5703C23.2422 27.4921 24.4375 31.6093 26.5625 34.2656C26.9609 34.7968 29.6172 39.5781 35.3281 42.1015C39.5781 43.9609 40.5078 43.6953 41.7031 43.4296C43.1641 43.2968 44.625 42.1015 45.2891 40.9062C45.4219 40.5078 46.086 38.7812 45.5547 38.5156" fill="white"/>
</svg>
