<?xml version="1.0" standalone="no"?>
<!DOCTYPE svg PUBLIC "-//W3C//DTD SVG 20010904//EN"
 "http://www.w3.org/TR/2001/REC-SVG-20010904/DTD/svg10.dtd">
<svg version="1.0" xmlns="http://www.w3.org/2000/svg"
 width="632.000000pt" height="632.000000pt" viewBox="0 0 632.000000 632.000000"
 preserveAspectRatio="xMidYMid meet">
<metadata>
Created by potrace 1.14, written by Peter Selinger 2001-2017
</metadata>
<g transform="translate(0.000000,632.000000) scale(0.100000,-0.100000)"
fill="#000000" stroke="none">
<path d="M3436 5883 c-2 -2 -50 -6 -107 -8 -107 -5 -169 -10 -275 -21 -34 -3
-77 -7 -95 -9 -68 -6 -155 -16 -179 -21 -33 -6 -107 -16 -145 -19 -16 -2 -30
-4 -30 -5 0 -1 -15 -3 -34 -6 -18 -2 -97 -16 -175 -30 -77 -15 -148 -27 -156
-29 -8 -1 -28 -5 -45 -8 -16 -4 -41 -10 -55 -13 -14 -3 -34 -7 -45 -9 -11 -2
-20 -4 -20 -5 0 -1 -10 -3 -23 -6 -13 -2 -60 -16 -105 -31 -45 -15 -84 -28
-87 -28 -3 -1 -22 -9 -44 -18 -21 -9 -44 -17 -52 -17 -7 0 -15 -4 -18 -9 -3
-5 -32 -21 -63 -37 -144 -69 -281 -170 -409 -298 -89 -90 -234 -272 -234 -294
0 -7 -3 -12 -8 -12 -4 0 -19 -21 -32 -47 -14 -27 -28 -49 -32 -51 -5 -2 -8
-12 -8 -22 0 -10 -4 -20 -9 -22 -9 -3 -115 -210 -111 -217 1 -2 -2 -7 -7 -10
-8 -6 -72 -132 -157 -311 -44 -95 -41 -87 -51 -117 -4 -13 -12 -23 -18 -23 -6
0 -8 -3 -5 -6 6 -5 -8 -38 -93 -221 -16 -34 -29 -65 -29 -68 0 -3 -10 -27 -21
-53 -39 -84 -248 -604 -253 -627 -2 -5 -15 -49 -29 -96 -27 -85 -61 -229 -72
-304 -3 -23 -8 -52 -10 -65 -3 -14 -7 -57 -9 -97 -2 -40 -6 -76 -8 -80 -2 -4
-3 -62 -2 -128 2 -167 16 -329 37 -430 2 -11 8 -38 12 -60 5 -22 9 -42 10 -45
0 -3 5 -23 10 -45 4 -22 10 -44 11 -50 5 -14 24 -87 28 -106 9 -35 89 -265 96
-274 4 -5 11 -21 15 -35 7 -23 88 -191 117 -242 88 -153 228 -313 361 -414
134 -100 338 -191 492 -218 17 -2 41 -7 55 -11 91 -20 374 -26 535 -11 44 4
97 10 119 12 35 3 115 9 291 20 426 27 965 35 1310 19 340 -16 559 -10 760 20
17 3 46 7 65 9 28 4 204 40 290 60 110 26 321 96 465 156 55 22 105 42 110 43
22 6 303 145 345 172 25 16 47 27 49 26 2 -2 7 1 10 6 3 4 33 28 66 53 101 75
156 128 245 237 91 111 178 326 195 483 9 80 10 204 2 290 -6 72 -30 208 -41
240 -3 8 -8 26 -11 40 -2 14 -9 43 -14 65 -9 40 -35 164 -45 220 -4 17 -8 50
-11 75 -3 25 -8 58 -11 73 -19 93 -28 249 -28 477 0 186 10 404 19 420 2 3 6
36 10 75 3 38 8 72 10 76 3 3 7 33 11 65 3 32 8 62 10 65 2 3 6 21 9 40 13 72
38 179 76 314 66 242 82 333 82 480 0 209 -43 354 -146 494 -41 56 -146 161
-160 161 -4 0 -17 8 -27 18 -11 10 -38 28 -61 40 -23 12 -53 29 -68 37 -14 7
-44 21 -66 30 -22 10 -49 21 -60 25 -62 26 -209 68 -334 95 -11 3 -29 7 -38 9
-38 9 -109 25 -133 30 -42 8 -73 15 -120 26 -78 17 -417 77 -490 86 -25 3 -63
8 -85 11 -74 10 -90 12 -160 18 -38 3 -77 8 -85 10 -43 13 -762 30 -774 18z"/>
</g>
</svg>
