<?xml version="1.0" standalone="no"?>
<!DOCTYPE svg PUBLIC "-//W3C//DTD SVG 20010904//EN"
 "http://www.w3.org/TR/2001/REC-SVG-20010904/DTD/svg10.dtd">
<svg version="1.0" xmlns="http://www.w3.org/2000/svg"
 width="700.000000pt" height="700.000000pt" viewBox="0 0 700.000000 700.000000"
 preserveAspectRatio="xMidYMid meet">
<metadata>
Created by potrace 1.14, written by Peter Selinger 2001-2017
</metadata>
<g transform="translate(0.000000,700.000000) scale(0.100000,-0.100000)"
fill="#000000" stroke="none">
<path d="M0 3500 l0 -3500 3500 0 3500 0 0 3500 0 3500 -3500 0 -3500 0 0
-3500z m6447 2947 c3 -4 7 -1332 7 -2952 1 -2611 -1 -2945 -14 -2946 -96 -5
-2810 -2 -2810 4 0 4 6 7 13 7 6 0 41 20 77 45 36 25 76 53 90 63 14 9 57 40
95 67 289 211 429 283 663 345 64 17 155 43 202 57 46 14 91 26 100 28 48 11
425 152 488 184 9 4 60 28 112 52 52 24 151 75 220 113 313 173 404 259 403
379 -1 83 -34 110 -115 96 l-38 -6 0 149 0 150 35 57 c99 160 114 315 45 468
-85 187 -265 233 -522 132 -69 -27 -117 -33 -145 -18 -12 7 -23 16 -23 21 0
23 -105 227 -152 295 l-53 78 282 -1 283 0 0 186 0 186 -487 -1 -488 -1 -150
105 c-160 112 -279 202 -360 274 l-50 44 0 252 c0 160 3 255 10 259 5 4 393 7
860 7 l850 0 3 191 2 190 -1080 0 c-756 0 -1080 -3 -1080 -10 -1 -6 -1 -113
-1 -238 l1 -228 -43 5 c-65 8 -148 35 -182 58 -61 43 -64 52 -65 174 0 100 3
120 31 195 28 78 55 174 66 243 3 17 18 82 35 145 46 176 55 222 52 264 -4 58
-22 93 -59 110 -60 29 -109 23 -350 -44 -211 -58 -314 -85 -443 -119 l-154
-39 6 55 c12 114 36 172 133 315 97 145 123 206 123 290 0 39 -5 54 -26 74
-33 34 -54 31 -264 -39 -91 -31 -203 -67 -250 -82 -251 -77 -390 -198 -444
-385 -18 -65 -23 -93 -31 -185 -30 -358 -155 -490 -408 -431 -84 20 -81 20
-71 -1 4 -10 8 -42 9 -70 1 -58 6 -55 -77 -56 l-38 0 0 -1531 0 -1532 1036 1
c570 0 1038 -3 1040 -7 2 -4 -6 -31 -20 -60 -31 -68 -36 -84 -43 -133 -27
-178 63 -281 272 -310 48 -7 168 -25 210 -32 17 -2 44 -6 60 -8 17 -2 48 -7
70 -11 22 -4 47 -6 55 -5 34 6 0 -9 -75 -34 -161 -53 -294 -155 -389 -299 -30
-44 -97 -167 -150 -272 -53 -105 -103 -199 -110 -209 -13 -17 -70 -18 -1345
-19 l-1331 -1 -1 45 c0 25 -1 1352 -1 2948 -1 2046 2 2906 9 2910 14 9 5881 7
5890 -1z m-4636 -1846 c2 -52 -3 -87 -27 -168 -13 -46 -24 -92 -24 -103 0 -38
33 -42 132 -19 89 21 92 21 106 3 19 -26 9 -105 -18 -149 -12 -19 -44 -53 -73
-76 -131 -107 -143 -154 -61 -247 59 -67 97 -50 171 76 49 83 64 91 97 51 14
-17 27 -40 27 -52 7 -121 54 -217 106 -217 30 0 69 20 164 85 80 55 129 77
147 66 7 -4 3 -32 -13 -86 l-23 -79 -396 -1 c-218 0 -402 2 -409 5 -9 4 -12
114 -12 465 0 253 3 462 7 465 3 3 27 5 52 6 43 0 46 -1 47 -25z m1554 -1175
c78 -76 119 -140 219 -339 81 -161 99 -225 82 -291 -16 -62 -97 -120 -212
-150 -60 -15 -71 -17 -184 -35 -36 -6 -75 -13 -86 -15 -35 -7 -105 -46 -111
-62 -3 -8 5 -34 18 -58 21 -40 22 -48 11 -97 l-12 -54 -688 0 c-378 -1 -689 2
-692 6 -4 6 -5 331 -1 375 1 6 7 11 14 11 108 3 499 77 575 109 47 19 99 74
123 130 28 61 30 77 31 168 0 78 -1 79 -39 120 -22 22 -44 48 -50 56 -10 13
40 15 433 14 441 0 444 0 445 20 1 12 1 56 1 98 l-1 77 31 -11 c17 -6 59 -38
93 -72z"/>
<path d="M1354 5759 c-168 -125 -234 -239 -240 -409 -1 -56 3 -108 15 -152
l17 -67 -28 -12 c-42 -17 -88 -64 -88 -89 0 -20 98 -135 107 -126 3 2 5 10 7
18 1 7 17 52 36 99 33 84 36 87 89 115 31 16 65 28 76 27 16 -1 17 -1 2 3 -11
4 -16 12 -13 22 2 9 8 28 12 42 3 14 30 75 59 135 68 141 84 198 80 277 -3 63
-33 159 -53 166 -5 1 -41 -20 -78 -49z"/>
<path d="M1136 4875 c-7 -20 11 -68 24 -60 15 9 12 51 -4 64 -11 9 -15 8 -20
-4z"/>
</g>
</svg>
