<svg width="478" height="457" viewBox="0 0 478 457" fill="none" xmlns="http://www.w3.org/2000/svg">
  <path fill-rule="evenodd" clip-rule="evenodd" d="M228.64 0.336712C278.908 -3.75618 322.442 30.2772 364.483 58.2078C408.487 87.4417 465.681 113.135 476.426 164.954C487.119 216.529 440.73 260.238 416.011 306.722C396.228 343.923 380.325 383.301 346.788 408.73C312.796 434.503 270.973 443.872 228.64 448.792C181.041 454.323 126.444 468.398 88.7652 438.714C51.183 409.106 61.0138 350.678 46.2477 305.1C31.4831 259.526 -10.2725 218.172 2.34231 171.954C15.0101 125.542 69.6574 108.124 107.933 79.0967C147.181 49.3326 179.592 4.33029 228.64 0.336712Z" fill="#0A6CFF" fill-opacity="0.29"/>
</svg>
