<svg width="40" height="40" viewBox="0 0 40 40" fill="none" xmlns="http://www.w3.org/2000/svg">
<path d="M36.7015 3.81235H3.29852C1.47977 3.81235 0 5.29211 0 7.11086V27.1526C0 28.9714 1.47977 30.4511 3.29852 30.4511H5.34445V34.8925C5.34445 35.4179 5.65812 35.8873 6.14352 36.0884C6.30461 36.1551 6.4732 36.1876 6.64016 36.1876C6.97633 36.1876 7.30586 36.056 7.55406 35.8078L12.9107 30.4512H36.7014C38.5202 30.4512 39.9999 28.9714 39.9999 27.1527V7.11094C40 5.29211 38.5202 3.81235 36.7015 3.81235ZM38.7474 27.1527C38.7474 28.2808 37.8296 29.1986 36.7015 29.1986H12.6513C12.4852 29.1986 12.3259 29.2645 12.2085 29.382L6.66828 34.9222C6.65773 34.9328 6.64859 34.942 6.62289 34.9312C6.59711 34.9205 6.59711 34.9076 6.59711 34.8926V29.8248C6.59711 29.479 6.31672 29.1985 5.97078 29.1985H3.29852C2.17039 29.1985 1.25258 28.2807 1.25258 27.1526V7.11086C1.25258 5.98274 2.17039 5.06493 3.29852 5.06493H36.7014C37.8295 5.06493 38.7473 5.98274 38.7473 7.11086V27.1527H38.7474Z" fill="black"/>
<path d="M17.925 22.9557L14.2115 11.1963C13.9525 10.376 13.2004 9.82492 12.3402 9.82492H11.6264C10.7661 9.82492 10.0141 10.3761 9.75503 11.1963L6.04159 22.9557C5.93737 23.2855 6.12034 23.6373 6.45027 23.7415C6.78019 23.8456 7.13191 23.6627 7.23605 23.3328L8.15261 20.4302H15.8139L16.7305 23.3328C16.8149 23.5999 17.0616 23.7707 17.3276 23.7707C17.39 23.7707 17.4536 23.7612 17.5164 23.7415C17.8462 23.6373 18.0292 23.2856 17.925 22.9557ZM8.54824 19.1777L10.9496 11.5736C11.0432 11.2769 11.3153 11.0776 11.6264 11.0776H12.3402C12.6514 11.0776 12.9233 11.2769 13.017 11.5736L15.4183 19.1777H8.54824Z" fill="black"/>
<path d="M22.0042 15.8374C21.232 15.8374 20.5209 16.1041 19.9582 16.5503V11.1192C19.9582 10.7734 19.6778 10.4929 19.3319 10.4929C18.986 10.4929 18.7056 10.7733 18.7056 11.1192V20.472C18.7056 22.2909 20.1853 23.7705 22.0041 23.7705C24.1912 23.7705 25.9706 21.9911 25.9706 19.804C25.9706 17.6169 24.1913 15.8374 22.0042 15.8374ZM22.0042 22.518C20.876 22.518 19.9582 21.6002 19.9582 20.472V19.1359C19.9582 18.0078 20.876 17.09 22.0042 17.09C23.5006 17.09 24.7181 18.3075 24.7181 19.804C24.7182 21.3005 23.5006 22.518 22.0042 22.518Z" fill="black"/>
<path d="M33.736 21.3077C33.4594 21.0999 33.0668 21.1557 32.8591 21.4323C32.3407 22.1224 31.5491 22.5181 30.6875 22.5181C29.191 22.5181 27.9735 21.3006 27.9735 19.8041C27.9735 18.3077 29.1909 17.0901 30.6874 17.0901C31.5499 17.0901 32.3418 17.4864 32.8601 18.1774C33.0676 18.454 33.4601 18.51 33.7369 18.3025C34.0135 18.0949 34.0695 17.7024 33.862 17.4257C33.1048 16.4164 31.9477 15.8376 30.6873 15.8376C28.5002 15.8376 26.7208 17.617 26.7208 19.8041C26.7208 21.9913 28.5002 23.7707 30.6873 23.7707C31.9467 23.7707 33.1033 23.1926 33.8605 22.1845C34.0683 21.908 34.0126 21.5154 33.736 21.3077Z" fill="black"/>
</svg>
